%TF.GenerationSoftware,KiCad,Pcbnew,(5.1.9-0-10_14)*%
%TF.CreationDate,2021-02-20T18:52:58-05:00*%
%TF.ProjectId,beep_prototype,62656570-5f70-4726-9f74-6f747970652e,rev?*%
%TF.SameCoordinates,Original*%
%TF.FileFunction,Copper,L2,Bot*%
%TF.FilePolarity,Positive*%
%FSLAX46Y46*%
G04 Gerber Fmt 4.6, Leading zero omitted, Abs format (unit mm)*
G04 Created by KiCad (PCBNEW (5.1.9-0-10_14)) date 2021-02-20 18:52:58*
%MOMM*%
%LPD*%
G01*
G04 APERTURE LIST*
%TA.AperFunction,ComponentPad*%
%ADD10C,1.400000*%
%TD*%
%TA.AperFunction,ComponentPad*%
%ADD11C,2.000000*%
%TD*%
%TA.AperFunction,ComponentPad*%
%ADD12R,2.000000X2.000000*%
%TD*%
%TA.AperFunction,Conductor*%
%ADD13C,0.254000*%
%TD*%
%TA.AperFunction,Conductor*%
%ADD14C,0.100000*%
%TD*%
G04 APERTURE END LIST*
D10*
%TO.P,ESP32 DI Mini,2*%
%TO.N,Net-(U1-Pad2)*%
X132355000Y-85225000D03*
%TO.P,ESP32 DI Mini,1*%
%TO.N,GND*%
X129815000Y-85225000D03*
%TO.P,ESP32 DI Mini,3*%
%TO.N,Net-(U1-Pad3)*%
X129815000Y-87765000D03*
%TO.P,ESP32 DI Mini,4*%
%TO.N,Net-(U1-Pad4)*%
X132355000Y-87765000D03*
%TO.P,ESP32 DI Mini,5*%
%TO.N,Net-(U1-Pad5)*%
X129815000Y-90305000D03*
%TO.P,ESP32 DI Mini,6*%
%TO.N,Net-(U1-Pad6)*%
X132355000Y-90305000D03*
%TO.P,ESP32 DI Mini,7*%
%TO.N,Net-(U1-Pad7)*%
X129815000Y-92845000D03*
%TO.P,ESP32 DI Mini,8*%
%TO.N,Net-(U1-Pad8)*%
X132355000Y-92845000D03*
%TO.P,ESP32 DI Mini,9*%
%TO.N,Net-(U1-Pad9)*%
X129815000Y-95385000D03*
%TO.P,ESP32 DI Mini,10*%
%TO.N,Net-(U1-Pad10)*%
X132355000Y-95385000D03*
%TO.P,ESP32 DI Mini,11*%
%TO.N,Net-(U1-Pad11)*%
X129815000Y-97925000D03*
%TO.P,ESP32 DI Mini,12*%
%TO.N,Net-(U1-Pad12)*%
X132355000Y-97925000D03*
%TO.P,ESP32 DI Mini,13*%
%TO.N,Net-(U1-Pad13)*%
X129815000Y-100465000D03*
%TO.P,ESP32 DI Mini,14*%
%TO.N,Net-(U1-Pad14)*%
X132355000Y-100465000D03*
%TO.P,ESP32 DI Mini,15*%
%TO.N,Net-(U1-Pad15)*%
X129815000Y-103005000D03*
%TO.P,ESP32 DI Mini,16*%
%TO.N,Net-(U1-Pad16)*%
X132355000Y-103005000D03*
%TO.P,ESP32 DI Mini,17*%
%TO.N,Net-(U1-Pad17)*%
X129815000Y-105545000D03*
%TO.P,ESP32 DI Mini,18*%
%TO.N,Net-(U1-Pad18)*%
X132355000Y-105545000D03*
%TO.P,ESP32 DI Mini,19*%
%TO.N,Net-(U1-Pad19)*%
X129815000Y-108085000D03*
%TO.P,ESP32 DI Mini,20*%
%TO.N,Net-(U1-Pad20)*%
X132355000Y-108085000D03*
%TO.P,ESP32 DI Mini,21*%
%TO.N,Net-(U1-Pad21)*%
X155215000Y-85225000D03*
%TO.P,ESP32 DI Mini,22*%
%TO.N,GND*%
X157755000Y-85225000D03*
%TO.P,ESP32 DI Mini,23*%
%TO.N,Net-(U1-Pad23)*%
X155215000Y-87765000D03*
%TO.P,ESP32 DI Mini,24*%
%TO.N,Net-(U1-Pad24)*%
X157755000Y-87765000D03*
%TO.P,ESP32 DI Mini,25*%
%TO.N,Net-(U1-Pad25)*%
X155215000Y-90305000D03*
%TO.P,ESP32 DI Mini,26*%
%TO.N,Net-(U1-Pad26)*%
X157755000Y-90305000D03*
%TO.P,ESP32 DI Mini,27*%
%TO.N,Net-(SW1-Pad2)*%
X155215000Y-92845000D03*
%TO.P,ESP32 DI Mini,28*%
%TO.N,Net-(U1-Pad28)*%
X157755000Y-92845000D03*
%TO.P,ESP32 DI Mini,29*%
%TO.N,Net-(U1-Pad29)*%
X155215000Y-95385000D03*
%TO.P,ESP32 DI Mini,30*%
%TO.N,Net-(U1-Pad30)*%
X157755000Y-95385000D03*
%TO.P,ESP32 DI Mini,31*%
%TO.N,Net-(U1-Pad31)*%
X155215000Y-97925000D03*
%TO.P,ESP32 DI Mini,32*%
%TO.N,Net-(U1-Pad32)*%
X157755000Y-97925000D03*
%TO.P,ESP32 DI Mini,33*%
%TO.N,GND*%
X155215000Y-100465000D03*
%TO.P,ESP32 DI Mini,34*%
%TO.N,Net-(BZ1-Pad1)*%
X157755000Y-100465000D03*
%TO.P,ESP32 DI Mini,35*%
%TO.N,+5V*%
X155215000Y-103005000D03*
%TO.P,ESP32 DI Mini,36*%
%TO.N,Net-(U1-Pad36)*%
X157755000Y-103005000D03*
%TO.P,ESP32 DI Mini,37*%
%TO.N,Net-(U1-Pad37)*%
X155215000Y-105545000D03*
%TO.P,ESP32 DI Mini,38*%
%TO.N,Net-(U1-Pad38)*%
X157755000Y-105545000D03*
%TO.P,ESP32 DI Mini,39*%
%TO.N,Net-(U1-Pad39)*%
X155215000Y-108085000D03*
%TO.P,ESP32 DI Mini,40*%
%TO.N,Net-(U1-Pad40)*%
X157755000Y-108085000D03*
%TD*%
D11*
%TO.P,BZ1,2*%
%TO.N,GND*%
X134600000Y-121920000D03*
D12*
%TO.P,BZ1,1*%
%TO.N,Net-(BZ1-Pad1)*%
X127000000Y-121920000D03*
%TD*%
D13*
%TO.N,+5V*%
X161163000Y-128143000D02*
X124587000Y-128143000D01*
X124587000Y-120920000D01*
X125361928Y-120920000D01*
X125361928Y-122920000D01*
X125374188Y-123044482D01*
X125410498Y-123164180D01*
X125469463Y-123274494D01*
X125548815Y-123371185D01*
X125645506Y-123450537D01*
X125755820Y-123509502D01*
X125875518Y-123545812D01*
X126000000Y-123558072D01*
X128000000Y-123558072D01*
X128124482Y-123545812D01*
X128244180Y-123509502D01*
X128354494Y-123450537D01*
X128451185Y-123371185D01*
X128530537Y-123274494D01*
X128589502Y-123164180D01*
X128625812Y-123044482D01*
X128638072Y-122920000D01*
X128638072Y-121758967D01*
X132965000Y-121758967D01*
X132965000Y-122081033D01*
X133027832Y-122396912D01*
X133151082Y-122694463D01*
X133330013Y-122962252D01*
X133557748Y-123189987D01*
X133825537Y-123368918D01*
X134123088Y-123492168D01*
X134438967Y-123555000D01*
X134761033Y-123555000D01*
X135076912Y-123492168D01*
X135374463Y-123368918D01*
X135642252Y-123189987D01*
X135869987Y-122962252D01*
X136048918Y-122694463D01*
X136172168Y-122396912D01*
X136235000Y-122081033D01*
X136235000Y-121758967D01*
X136172168Y-121443088D01*
X136048918Y-121145537D01*
X135869987Y-120877748D01*
X135642252Y-120650013D01*
X135374463Y-120471082D01*
X135076912Y-120347832D01*
X134761033Y-120285000D01*
X134438967Y-120285000D01*
X134123088Y-120347832D01*
X133825537Y-120471082D01*
X133557748Y-120650013D01*
X133330013Y-120877748D01*
X133151082Y-121145537D01*
X133027832Y-121443088D01*
X132965000Y-121758967D01*
X128638072Y-121758967D01*
X128638072Y-120920000D01*
X128625812Y-120795518D01*
X128589502Y-120675820D01*
X128530537Y-120565506D01*
X128451185Y-120468815D01*
X128354494Y-120389463D01*
X128244180Y-120330498D01*
X128124482Y-120294188D01*
X128000000Y-120281928D01*
X126000000Y-120281928D01*
X125875518Y-120294188D01*
X125755820Y-120330498D01*
X125645506Y-120389463D01*
X125548815Y-120468815D01*
X125469463Y-120565506D01*
X125410498Y-120675820D01*
X125374188Y-120795518D01*
X125361928Y-120920000D01*
X124587000Y-120920000D01*
X124587000Y-85093514D01*
X128480000Y-85093514D01*
X128480000Y-85356486D01*
X128531304Y-85614405D01*
X128631939Y-85857359D01*
X128778038Y-86076013D01*
X128963987Y-86261962D01*
X129182641Y-86408061D01*
X129392530Y-86495000D01*
X129182641Y-86581939D01*
X128963987Y-86728038D01*
X128778038Y-86913987D01*
X128631939Y-87132641D01*
X128531304Y-87375595D01*
X128480000Y-87633514D01*
X128480000Y-87896486D01*
X128531304Y-88154405D01*
X128631939Y-88397359D01*
X128778038Y-88616013D01*
X128963987Y-88801962D01*
X129182641Y-88948061D01*
X129392530Y-89035000D01*
X129182641Y-89121939D01*
X128963987Y-89268038D01*
X128778038Y-89453987D01*
X128631939Y-89672641D01*
X128531304Y-89915595D01*
X128480000Y-90173514D01*
X128480000Y-90436486D01*
X128531304Y-90694405D01*
X128631939Y-90937359D01*
X128778038Y-91156013D01*
X128963987Y-91341962D01*
X129182641Y-91488061D01*
X129392530Y-91575000D01*
X129182641Y-91661939D01*
X128963987Y-91808038D01*
X128778038Y-91993987D01*
X128631939Y-92212641D01*
X128531304Y-92455595D01*
X128480000Y-92713514D01*
X128480000Y-92976486D01*
X128531304Y-93234405D01*
X128631939Y-93477359D01*
X128778038Y-93696013D01*
X128963987Y-93881962D01*
X129182641Y-94028061D01*
X129392530Y-94115000D01*
X129182641Y-94201939D01*
X128963987Y-94348038D01*
X128778038Y-94533987D01*
X128631939Y-94752641D01*
X128531304Y-94995595D01*
X128480000Y-95253514D01*
X128480000Y-95516486D01*
X128531304Y-95774405D01*
X128631939Y-96017359D01*
X128778038Y-96236013D01*
X128963987Y-96421962D01*
X129182641Y-96568061D01*
X129392530Y-96655000D01*
X129182641Y-96741939D01*
X128963987Y-96888038D01*
X128778038Y-97073987D01*
X128631939Y-97292641D01*
X128531304Y-97535595D01*
X128480000Y-97793514D01*
X128480000Y-98056486D01*
X128531304Y-98314405D01*
X128631939Y-98557359D01*
X128778038Y-98776013D01*
X128963987Y-98961962D01*
X129182641Y-99108061D01*
X129392530Y-99195000D01*
X129182641Y-99281939D01*
X128963987Y-99428038D01*
X128778038Y-99613987D01*
X128631939Y-99832641D01*
X128531304Y-100075595D01*
X128480000Y-100333514D01*
X128480000Y-100596486D01*
X128531304Y-100854405D01*
X128631939Y-101097359D01*
X128778038Y-101316013D01*
X128963987Y-101501962D01*
X129182641Y-101648061D01*
X129392530Y-101735000D01*
X129182641Y-101821939D01*
X128963987Y-101968038D01*
X128778038Y-102153987D01*
X128631939Y-102372641D01*
X128531304Y-102615595D01*
X128480000Y-102873514D01*
X128480000Y-103136486D01*
X128531304Y-103394405D01*
X128631939Y-103637359D01*
X128778038Y-103856013D01*
X128963987Y-104041962D01*
X129182641Y-104188061D01*
X129392530Y-104275000D01*
X129182641Y-104361939D01*
X128963987Y-104508038D01*
X128778038Y-104693987D01*
X128631939Y-104912641D01*
X128531304Y-105155595D01*
X128480000Y-105413514D01*
X128480000Y-105676486D01*
X128531304Y-105934405D01*
X128631939Y-106177359D01*
X128778038Y-106396013D01*
X128963987Y-106581962D01*
X129182641Y-106728061D01*
X129392530Y-106815000D01*
X129182641Y-106901939D01*
X128963987Y-107048038D01*
X128778038Y-107233987D01*
X128631939Y-107452641D01*
X128531304Y-107695595D01*
X128480000Y-107953514D01*
X128480000Y-108216486D01*
X128531304Y-108474405D01*
X128631939Y-108717359D01*
X128778038Y-108936013D01*
X128963987Y-109121962D01*
X129182641Y-109268061D01*
X129425595Y-109368696D01*
X129683514Y-109420000D01*
X129946486Y-109420000D01*
X130204405Y-109368696D01*
X130447359Y-109268061D01*
X130666013Y-109121962D01*
X130851962Y-108936013D01*
X130998061Y-108717359D01*
X131085000Y-108507470D01*
X131171939Y-108717359D01*
X131318038Y-108936013D01*
X131503987Y-109121962D01*
X131722641Y-109268061D01*
X131965595Y-109368696D01*
X132223514Y-109420000D01*
X132486486Y-109420000D01*
X132744405Y-109368696D01*
X132987359Y-109268061D01*
X133206013Y-109121962D01*
X133391962Y-108936013D01*
X133538061Y-108717359D01*
X133638696Y-108474405D01*
X133690000Y-108216486D01*
X133690000Y-107953514D01*
X133638696Y-107695595D01*
X133538061Y-107452641D01*
X133391962Y-107233987D01*
X133206013Y-107048038D01*
X132987359Y-106901939D01*
X132777470Y-106815000D01*
X132987359Y-106728061D01*
X133206013Y-106581962D01*
X133391962Y-106396013D01*
X133538061Y-106177359D01*
X133638696Y-105934405D01*
X133690000Y-105676486D01*
X133690000Y-105413514D01*
X133638696Y-105155595D01*
X133538061Y-104912641D01*
X133391962Y-104693987D01*
X133206013Y-104508038D01*
X132987359Y-104361939D01*
X132777470Y-104275000D01*
X132987359Y-104188061D01*
X133206013Y-104041962D01*
X133391962Y-103856013D01*
X133538061Y-103637359D01*
X133638696Y-103394405D01*
X133690000Y-103136486D01*
X133690000Y-103079473D01*
X153875610Y-103079473D01*
X153915875Y-103339344D01*
X154006065Y-103586366D01*
X154059963Y-103687203D01*
X154293731Y-103746664D01*
X155035395Y-103005000D01*
X154293731Y-102263336D01*
X154059963Y-102322797D01*
X153949066Y-102561242D01*
X153886817Y-102816740D01*
X153875610Y-103079473D01*
X133690000Y-103079473D01*
X133690000Y-102873514D01*
X133638696Y-102615595D01*
X133538061Y-102372641D01*
X133391962Y-102153987D01*
X133206013Y-101968038D01*
X132987359Y-101821939D01*
X132777470Y-101735000D01*
X132987359Y-101648061D01*
X133206013Y-101501962D01*
X133391962Y-101316013D01*
X133538061Y-101097359D01*
X133638696Y-100854405D01*
X133690000Y-100596486D01*
X133690000Y-100333514D01*
X133638696Y-100075595D01*
X133538061Y-99832641D01*
X133391962Y-99613987D01*
X133206013Y-99428038D01*
X132987359Y-99281939D01*
X132777470Y-99195000D01*
X132987359Y-99108061D01*
X133206013Y-98961962D01*
X133391962Y-98776013D01*
X133538061Y-98557359D01*
X133638696Y-98314405D01*
X133690000Y-98056486D01*
X133690000Y-97793514D01*
X133638696Y-97535595D01*
X133538061Y-97292641D01*
X133391962Y-97073987D01*
X133206013Y-96888038D01*
X132987359Y-96741939D01*
X132777470Y-96655000D01*
X132987359Y-96568061D01*
X133206013Y-96421962D01*
X133391962Y-96236013D01*
X133538061Y-96017359D01*
X133638696Y-95774405D01*
X133690000Y-95516486D01*
X133690000Y-95253514D01*
X133638696Y-94995595D01*
X133538061Y-94752641D01*
X133391962Y-94533987D01*
X133206013Y-94348038D01*
X132987359Y-94201939D01*
X132777470Y-94115000D01*
X132987359Y-94028061D01*
X133206013Y-93881962D01*
X133391962Y-93696013D01*
X133538061Y-93477359D01*
X133638696Y-93234405D01*
X133690000Y-92976486D01*
X133690000Y-92713514D01*
X133638696Y-92455595D01*
X133538061Y-92212641D01*
X133391962Y-91993987D01*
X133206013Y-91808038D01*
X132987359Y-91661939D01*
X132777470Y-91575000D01*
X132987359Y-91488061D01*
X133206013Y-91341962D01*
X133391962Y-91156013D01*
X133538061Y-90937359D01*
X133638696Y-90694405D01*
X133690000Y-90436486D01*
X133690000Y-90173514D01*
X133638696Y-89915595D01*
X133538061Y-89672641D01*
X133391962Y-89453987D01*
X133206013Y-89268038D01*
X132987359Y-89121939D01*
X132777470Y-89035000D01*
X132987359Y-88948061D01*
X133206013Y-88801962D01*
X133391962Y-88616013D01*
X133538061Y-88397359D01*
X133638696Y-88154405D01*
X133690000Y-87896486D01*
X133690000Y-87633514D01*
X133638696Y-87375595D01*
X133538061Y-87132641D01*
X133391962Y-86913987D01*
X133206013Y-86728038D01*
X132987359Y-86581939D01*
X132777470Y-86495000D01*
X132987359Y-86408061D01*
X133206013Y-86261962D01*
X133391962Y-86076013D01*
X133538061Y-85857359D01*
X133638696Y-85614405D01*
X133690000Y-85356486D01*
X133690000Y-85093514D01*
X153880000Y-85093514D01*
X153880000Y-85356486D01*
X153931304Y-85614405D01*
X154031939Y-85857359D01*
X154178038Y-86076013D01*
X154363987Y-86261962D01*
X154582641Y-86408061D01*
X154792530Y-86495000D01*
X154582641Y-86581939D01*
X154363987Y-86728038D01*
X154178038Y-86913987D01*
X154031939Y-87132641D01*
X153931304Y-87375595D01*
X153880000Y-87633514D01*
X153880000Y-87896486D01*
X153931304Y-88154405D01*
X154031939Y-88397359D01*
X154178038Y-88616013D01*
X154363987Y-88801962D01*
X154582641Y-88948061D01*
X154792530Y-89035000D01*
X154582641Y-89121939D01*
X154363987Y-89268038D01*
X154178038Y-89453987D01*
X154031939Y-89672641D01*
X153931304Y-89915595D01*
X153880000Y-90173514D01*
X153880000Y-90436486D01*
X153931304Y-90694405D01*
X154031939Y-90937359D01*
X154178038Y-91156013D01*
X154363987Y-91341962D01*
X154582641Y-91488061D01*
X154792530Y-91575000D01*
X154582641Y-91661939D01*
X154363987Y-91808038D01*
X154178038Y-91993987D01*
X154031939Y-92212641D01*
X153931304Y-92455595D01*
X153880000Y-92713514D01*
X153880000Y-92976486D01*
X153931304Y-93234405D01*
X154031939Y-93477359D01*
X154178038Y-93696013D01*
X154363987Y-93881962D01*
X154582641Y-94028061D01*
X154792530Y-94115000D01*
X154582641Y-94201939D01*
X154363987Y-94348038D01*
X154178038Y-94533987D01*
X154031939Y-94752641D01*
X153931304Y-94995595D01*
X153880000Y-95253514D01*
X153880000Y-95516486D01*
X153931304Y-95774405D01*
X154031939Y-96017359D01*
X154178038Y-96236013D01*
X154363987Y-96421962D01*
X154582641Y-96568061D01*
X154792530Y-96655000D01*
X154582641Y-96741939D01*
X154363987Y-96888038D01*
X154178038Y-97073987D01*
X154031939Y-97292641D01*
X153931304Y-97535595D01*
X153880000Y-97793514D01*
X153880000Y-98056486D01*
X153931304Y-98314405D01*
X154031939Y-98557359D01*
X154178038Y-98776013D01*
X154363987Y-98961962D01*
X154582641Y-99108061D01*
X154792530Y-99195000D01*
X154582641Y-99281939D01*
X154363987Y-99428038D01*
X154178038Y-99613987D01*
X154031939Y-99832641D01*
X153931304Y-100075595D01*
X153880000Y-100333514D01*
X153880000Y-100596486D01*
X153931304Y-100854405D01*
X154031939Y-101097359D01*
X154178038Y-101316013D01*
X154363987Y-101501962D01*
X154582641Y-101648061D01*
X154796444Y-101736621D01*
X154633634Y-101796065D01*
X154532797Y-101849963D01*
X154473336Y-102083731D01*
X155215000Y-102825395D01*
X155956664Y-102083731D01*
X155897203Y-101849963D01*
X155658758Y-101739066D01*
X155639173Y-101734294D01*
X155847359Y-101648061D01*
X156066013Y-101501962D01*
X156251962Y-101316013D01*
X156398061Y-101097359D01*
X156485000Y-100887470D01*
X156571939Y-101097359D01*
X156718038Y-101316013D01*
X156903987Y-101501962D01*
X157122641Y-101648061D01*
X157332530Y-101735000D01*
X157122641Y-101821939D01*
X156903987Y-101968038D01*
X156718038Y-102153987D01*
X156571939Y-102372641D01*
X156483379Y-102586444D01*
X156423935Y-102423634D01*
X156370037Y-102322797D01*
X156136269Y-102263336D01*
X155394605Y-103005000D01*
X156136269Y-103746664D01*
X156370037Y-103687203D01*
X156480934Y-103448758D01*
X156485706Y-103429173D01*
X156571939Y-103637359D01*
X156718038Y-103856013D01*
X156903987Y-104041962D01*
X157122641Y-104188061D01*
X157332530Y-104275000D01*
X157122641Y-104361939D01*
X156903987Y-104508038D01*
X156718038Y-104693987D01*
X156571939Y-104912641D01*
X156485000Y-105122530D01*
X156398061Y-104912641D01*
X156251962Y-104693987D01*
X156066013Y-104508038D01*
X155847359Y-104361939D01*
X155633556Y-104273379D01*
X155796366Y-104213935D01*
X155897203Y-104160037D01*
X155956664Y-103926269D01*
X155215000Y-103184605D01*
X154473336Y-103926269D01*
X154532797Y-104160037D01*
X154771242Y-104270934D01*
X154790827Y-104275706D01*
X154582641Y-104361939D01*
X154363987Y-104508038D01*
X154178038Y-104693987D01*
X154031939Y-104912641D01*
X153931304Y-105155595D01*
X153880000Y-105413514D01*
X153880000Y-105676486D01*
X153931304Y-105934405D01*
X154031939Y-106177359D01*
X154178038Y-106396013D01*
X154363987Y-106581962D01*
X154582641Y-106728061D01*
X154792530Y-106815000D01*
X154582641Y-106901939D01*
X154363987Y-107048038D01*
X154178038Y-107233987D01*
X154031939Y-107452641D01*
X153931304Y-107695595D01*
X153880000Y-107953514D01*
X153880000Y-108216486D01*
X153931304Y-108474405D01*
X154031939Y-108717359D01*
X154178038Y-108936013D01*
X154363987Y-109121962D01*
X154582641Y-109268061D01*
X154825595Y-109368696D01*
X155083514Y-109420000D01*
X155346486Y-109420000D01*
X155604405Y-109368696D01*
X155847359Y-109268061D01*
X156066013Y-109121962D01*
X156251962Y-108936013D01*
X156398061Y-108717359D01*
X156485000Y-108507470D01*
X156571939Y-108717359D01*
X156718038Y-108936013D01*
X156903987Y-109121962D01*
X157122641Y-109268061D01*
X157365595Y-109368696D01*
X157623514Y-109420000D01*
X157886486Y-109420000D01*
X158144405Y-109368696D01*
X158387359Y-109268061D01*
X158606013Y-109121962D01*
X158791962Y-108936013D01*
X158938061Y-108717359D01*
X159038696Y-108474405D01*
X159090000Y-108216486D01*
X159090000Y-107953514D01*
X159038696Y-107695595D01*
X158938061Y-107452641D01*
X158791962Y-107233987D01*
X158606013Y-107048038D01*
X158387359Y-106901939D01*
X158177470Y-106815000D01*
X158387359Y-106728061D01*
X158606013Y-106581962D01*
X158791962Y-106396013D01*
X158938061Y-106177359D01*
X159038696Y-105934405D01*
X159090000Y-105676486D01*
X159090000Y-105413514D01*
X159038696Y-105155595D01*
X158938061Y-104912641D01*
X158791962Y-104693987D01*
X158606013Y-104508038D01*
X158387359Y-104361939D01*
X158177470Y-104275000D01*
X158387359Y-104188061D01*
X158606013Y-104041962D01*
X158791962Y-103856013D01*
X158938061Y-103637359D01*
X159038696Y-103394405D01*
X159090000Y-103136486D01*
X159090000Y-102873514D01*
X159038696Y-102615595D01*
X158938061Y-102372641D01*
X158791962Y-102153987D01*
X158606013Y-101968038D01*
X158387359Y-101821939D01*
X158177470Y-101735000D01*
X158387359Y-101648061D01*
X158606013Y-101501962D01*
X158791962Y-101316013D01*
X158938061Y-101097359D01*
X159038696Y-100854405D01*
X159090000Y-100596486D01*
X159090000Y-100333514D01*
X159038696Y-100075595D01*
X158938061Y-99832641D01*
X158791962Y-99613987D01*
X158606013Y-99428038D01*
X158387359Y-99281939D01*
X158177470Y-99195000D01*
X158387359Y-99108061D01*
X158606013Y-98961962D01*
X158791962Y-98776013D01*
X158938061Y-98557359D01*
X159038696Y-98314405D01*
X159090000Y-98056486D01*
X159090000Y-97793514D01*
X159038696Y-97535595D01*
X158938061Y-97292641D01*
X158791962Y-97073987D01*
X158606013Y-96888038D01*
X158387359Y-96741939D01*
X158177470Y-96655000D01*
X158387359Y-96568061D01*
X158606013Y-96421962D01*
X158791962Y-96236013D01*
X158938061Y-96017359D01*
X159038696Y-95774405D01*
X159090000Y-95516486D01*
X159090000Y-95253514D01*
X159038696Y-94995595D01*
X158938061Y-94752641D01*
X158791962Y-94533987D01*
X158606013Y-94348038D01*
X158387359Y-94201939D01*
X158177470Y-94115000D01*
X158387359Y-94028061D01*
X158606013Y-93881962D01*
X158791962Y-93696013D01*
X158938061Y-93477359D01*
X159038696Y-93234405D01*
X159090000Y-92976486D01*
X159090000Y-92713514D01*
X159038696Y-92455595D01*
X158938061Y-92212641D01*
X158791962Y-91993987D01*
X158606013Y-91808038D01*
X158387359Y-91661939D01*
X158177470Y-91575000D01*
X158387359Y-91488061D01*
X158606013Y-91341962D01*
X158791962Y-91156013D01*
X158938061Y-90937359D01*
X159038696Y-90694405D01*
X159090000Y-90436486D01*
X159090000Y-90173514D01*
X159038696Y-89915595D01*
X158938061Y-89672641D01*
X158791962Y-89453987D01*
X158606013Y-89268038D01*
X158387359Y-89121939D01*
X158177470Y-89035000D01*
X158387359Y-88948061D01*
X158606013Y-88801962D01*
X158791962Y-88616013D01*
X158938061Y-88397359D01*
X159038696Y-88154405D01*
X159090000Y-87896486D01*
X159090000Y-87633514D01*
X159038696Y-87375595D01*
X158938061Y-87132641D01*
X158791962Y-86913987D01*
X158606013Y-86728038D01*
X158387359Y-86581939D01*
X158177470Y-86495000D01*
X158387359Y-86408061D01*
X158606013Y-86261962D01*
X158791962Y-86076013D01*
X158938061Y-85857359D01*
X159038696Y-85614405D01*
X159090000Y-85356486D01*
X159090000Y-85093514D01*
X159038696Y-84835595D01*
X158938061Y-84592641D01*
X158791962Y-84373987D01*
X158606013Y-84188038D01*
X158387359Y-84041939D01*
X158144405Y-83941304D01*
X157886486Y-83890000D01*
X157623514Y-83890000D01*
X157365595Y-83941304D01*
X157122641Y-84041939D01*
X156903987Y-84188038D01*
X156718038Y-84373987D01*
X156571939Y-84592641D01*
X156485000Y-84802530D01*
X156398061Y-84592641D01*
X156251962Y-84373987D01*
X156066013Y-84188038D01*
X155847359Y-84041939D01*
X155604405Y-83941304D01*
X155346486Y-83890000D01*
X155083514Y-83890000D01*
X154825595Y-83941304D01*
X154582641Y-84041939D01*
X154363987Y-84188038D01*
X154178038Y-84373987D01*
X154031939Y-84592641D01*
X153931304Y-84835595D01*
X153880000Y-85093514D01*
X133690000Y-85093514D01*
X133638696Y-84835595D01*
X133538061Y-84592641D01*
X133391962Y-84373987D01*
X133206013Y-84188038D01*
X132987359Y-84041939D01*
X132744405Y-83941304D01*
X132486486Y-83890000D01*
X132223514Y-83890000D01*
X131965595Y-83941304D01*
X131722641Y-84041939D01*
X131503987Y-84188038D01*
X131318038Y-84373987D01*
X131171939Y-84592641D01*
X131085000Y-84802530D01*
X130998061Y-84592641D01*
X130851962Y-84373987D01*
X130666013Y-84188038D01*
X130447359Y-84041939D01*
X130204405Y-83941304D01*
X129946486Y-83890000D01*
X129683514Y-83890000D01*
X129425595Y-83941304D01*
X129182641Y-84041939D01*
X128963987Y-84188038D01*
X128778038Y-84373987D01*
X128631939Y-84592641D01*
X128531304Y-84835595D01*
X128480000Y-85093514D01*
X124587000Y-85093514D01*
X124587000Y-76327000D01*
X161163000Y-76327000D01*
X161163000Y-128143000D01*
%TA.AperFunction,Conductor*%
D14*
G36*
X161163000Y-128143000D02*
G01*
X124587000Y-128143000D01*
X124587000Y-120920000D01*
X125361928Y-120920000D01*
X125361928Y-122920000D01*
X125374188Y-123044482D01*
X125410498Y-123164180D01*
X125469463Y-123274494D01*
X125548815Y-123371185D01*
X125645506Y-123450537D01*
X125755820Y-123509502D01*
X125875518Y-123545812D01*
X126000000Y-123558072D01*
X128000000Y-123558072D01*
X128124482Y-123545812D01*
X128244180Y-123509502D01*
X128354494Y-123450537D01*
X128451185Y-123371185D01*
X128530537Y-123274494D01*
X128589502Y-123164180D01*
X128625812Y-123044482D01*
X128638072Y-122920000D01*
X128638072Y-121758967D01*
X132965000Y-121758967D01*
X132965000Y-122081033D01*
X133027832Y-122396912D01*
X133151082Y-122694463D01*
X133330013Y-122962252D01*
X133557748Y-123189987D01*
X133825537Y-123368918D01*
X134123088Y-123492168D01*
X134438967Y-123555000D01*
X134761033Y-123555000D01*
X135076912Y-123492168D01*
X135374463Y-123368918D01*
X135642252Y-123189987D01*
X135869987Y-122962252D01*
X136048918Y-122694463D01*
X136172168Y-122396912D01*
X136235000Y-122081033D01*
X136235000Y-121758967D01*
X136172168Y-121443088D01*
X136048918Y-121145537D01*
X135869987Y-120877748D01*
X135642252Y-120650013D01*
X135374463Y-120471082D01*
X135076912Y-120347832D01*
X134761033Y-120285000D01*
X134438967Y-120285000D01*
X134123088Y-120347832D01*
X133825537Y-120471082D01*
X133557748Y-120650013D01*
X133330013Y-120877748D01*
X133151082Y-121145537D01*
X133027832Y-121443088D01*
X132965000Y-121758967D01*
X128638072Y-121758967D01*
X128638072Y-120920000D01*
X128625812Y-120795518D01*
X128589502Y-120675820D01*
X128530537Y-120565506D01*
X128451185Y-120468815D01*
X128354494Y-120389463D01*
X128244180Y-120330498D01*
X128124482Y-120294188D01*
X128000000Y-120281928D01*
X126000000Y-120281928D01*
X125875518Y-120294188D01*
X125755820Y-120330498D01*
X125645506Y-120389463D01*
X125548815Y-120468815D01*
X125469463Y-120565506D01*
X125410498Y-120675820D01*
X125374188Y-120795518D01*
X125361928Y-120920000D01*
X124587000Y-120920000D01*
X124587000Y-85093514D01*
X128480000Y-85093514D01*
X128480000Y-85356486D01*
X128531304Y-85614405D01*
X128631939Y-85857359D01*
X128778038Y-86076013D01*
X128963987Y-86261962D01*
X129182641Y-86408061D01*
X129392530Y-86495000D01*
X129182641Y-86581939D01*
X128963987Y-86728038D01*
X128778038Y-86913987D01*
X128631939Y-87132641D01*
X128531304Y-87375595D01*
X128480000Y-87633514D01*
X128480000Y-87896486D01*
X128531304Y-88154405D01*
X128631939Y-88397359D01*
X128778038Y-88616013D01*
X128963987Y-88801962D01*
X129182641Y-88948061D01*
X129392530Y-89035000D01*
X129182641Y-89121939D01*
X128963987Y-89268038D01*
X128778038Y-89453987D01*
X128631939Y-89672641D01*
X128531304Y-89915595D01*
X128480000Y-90173514D01*
X128480000Y-90436486D01*
X128531304Y-90694405D01*
X128631939Y-90937359D01*
X128778038Y-91156013D01*
X128963987Y-91341962D01*
X129182641Y-91488061D01*
X129392530Y-91575000D01*
X129182641Y-91661939D01*
X128963987Y-91808038D01*
X128778038Y-91993987D01*
X128631939Y-92212641D01*
X128531304Y-92455595D01*
X128480000Y-92713514D01*
X128480000Y-92976486D01*
X128531304Y-93234405D01*
X128631939Y-93477359D01*
X128778038Y-93696013D01*
X128963987Y-93881962D01*
X129182641Y-94028061D01*
X129392530Y-94115000D01*
X129182641Y-94201939D01*
X128963987Y-94348038D01*
X128778038Y-94533987D01*
X128631939Y-94752641D01*
X128531304Y-94995595D01*
X128480000Y-95253514D01*
X128480000Y-95516486D01*
X128531304Y-95774405D01*
X128631939Y-96017359D01*
X128778038Y-96236013D01*
X128963987Y-96421962D01*
X129182641Y-96568061D01*
X129392530Y-96655000D01*
X129182641Y-96741939D01*
X128963987Y-96888038D01*
X128778038Y-97073987D01*
X128631939Y-97292641D01*
X128531304Y-97535595D01*
X128480000Y-97793514D01*
X128480000Y-98056486D01*
X128531304Y-98314405D01*
X128631939Y-98557359D01*
X128778038Y-98776013D01*
X128963987Y-98961962D01*
X129182641Y-99108061D01*
X129392530Y-99195000D01*
X129182641Y-99281939D01*
X128963987Y-99428038D01*
X128778038Y-99613987D01*
X128631939Y-99832641D01*
X128531304Y-100075595D01*
X128480000Y-100333514D01*
X128480000Y-100596486D01*
X128531304Y-100854405D01*
X128631939Y-101097359D01*
X128778038Y-101316013D01*
X128963987Y-101501962D01*
X129182641Y-101648061D01*
X129392530Y-101735000D01*
X129182641Y-101821939D01*
X128963987Y-101968038D01*
X128778038Y-102153987D01*
X128631939Y-102372641D01*
X128531304Y-102615595D01*
X128480000Y-102873514D01*
X128480000Y-103136486D01*
X128531304Y-103394405D01*
X128631939Y-103637359D01*
X128778038Y-103856013D01*
X128963987Y-104041962D01*
X129182641Y-104188061D01*
X129392530Y-104275000D01*
X129182641Y-104361939D01*
X128963987Y-104508038D01*
X128778038Y-104693987D01*
X128631939Y-104912641D01*
X128531304Y-105155595D01*
X128480000Y-105413514D01*
X128480000Y-105676486D01*
X128531304Y-105934405D01*
X128631939Y-106177359D01*
X128778038Y-106396013D01*
X128963987Y-106581962D01*
X129182641Y-106728061D01*
X129392530Y-106815000D01*
X129182641Y-106901939D01*
X128963987Y-107048038D01*
X128778038Y-107233987D01*
X128631939Y-107452641D01*
X128531304Y-107695595D01*
X128480000Y-107953514D01*
X128480000Y-108216486D01*
X128531304Y-108474405D01*
X128631939Y-108717359D01*
X128778038Y-108936013D01*
X128963987Y-109121962D01*
X129182641Y-109268061D01*
X129425595Y-109368696D01*
X129683514Y-109420000D01*
X129946486Y-109420000D01*
X130204405Y-109368696D01*
X130447359Y-109268061D01*
X130666013Y-109121962D01*
X130851962Y-108936013D01*
X130998061Y-108717359D01*
X131085000Y-108507470D01*
X131171939Y-108717359D01*
X131318038Y-108936013D01*
X131503987Y-109121962D01*
X131722641Y-109268061D01*
X131965595Y-109368696D01*
X132223514Y-109420000D01*
X132486486Y-109420000D01*
X132744405Y-109368696D01*
X132987359Y-109268061D01*
X133206013Y-109121962D01*
X133391962Y-108936013D01*
X133538061Y-108717359D01*
X133638696Y-108474405D01*
X133690000Y-108216486D01*
X133690000Y-107953514D01*
X133638696Y-107695595D01*
X133538061Y-107452641D01*
X133391962Y-107233987D01*
X133206013Y-107048038D01*
X132987359Y-106901939D01*
X132777470Y-106815000D01*
X132987359Y-106728061D01*
X133206013Y-106581962D01*
X133391962Y-106396013D01*
X133538061Y-106177359D01*
X133638696Y-105934405D01*
X133690000Y-105676486D01*
X133690000Y-105413514D01*
X133638696Y-105155595D01*
X133538061Y-104912641D01*
X133391962Y-104693987D01*
X133206013Y-104508038D01*
X132987359Y-104361939D01*
X132777470Y-104275000D01*
X132987359Y-104188061D01*
X133206013Y-104041962D01*
X133391962Y-103856013D01*
X133538061Y-103637359D01*
X133638696Y-103394405D01*
X133690000Y-103136486D01*
X133690000Y-103079473D01*
X153875610Y-103079473D01*
X153915875Y-103339344D01*
X154006065Y-103586366D01*
X154059963Y-103687203D01*
X154293731Y-103746664D01*
X155035395Y-103005000D01*
X154293731Y-102263336D01*
X154059963Y-102322797D01*
X153949066Y-102561242D01*
X153886817Y-102816740D01*
X153875610Y-103079473D01*
X133690000Y-103079473D01*
X133690000Y-102873514D01*
X133638696Y-102615595D01*
X133538061Y-102372641D01*
X133391962Y-102153987D01*
X133206013Y-101968038D01*
X132987359Y-101821939D01*
X132777470Y-101735000D01*
X132987359Y-101648061D01*
X133206013Y-101501962D01*
X133391962Y-101316013D01*
X133538061Y-101097359D01*
X133638696Y-100854405D01*
X133690000Y-100596486D01*
X133690000Y-100333514D01*
X133638696Y-100075595D01*
X133538061Y-99832641D01*
X133391962Y-99613987D01*
X133206013Y-99428038D01*
X132987359Y-99281939D01*
X132777470Y-99195000D01*
X132987359Y-99108061D01*
X133206013Y-98961962D01*
X133391962Y-98776013D01*
X133538061Y-98557359D01*
X133638696Y-98314405D01*
X133690000Y-98056486D01*
X133690000Y-97793514D01*
X133638696Y-97535595D01*
X133538061Y-97292641D01*
X133391962Y-97073987D01*
X133206013Y-96888038D01*
X132987359Y-96741939D01*
X132777470Y-96655000D01*
X132987359Y-96568061D01*
X133206013Y-96421962D01*
X133391962Y-96236013D01*
X133538061Y-96017359D01*
X133638696Y-95774405D01*
X133690000Y-95516486D01*
X133690000Y-95253514D01*
X133638696Y-94995595D01*
X133538061Y-94752641D01*
X133391962Y-94533987D01*
X133206013Y-94348038D01*
X132987359Y-94201939D01*
X132777470Y-94115000D01*
X132987359Y-94028061D01*
X133206013Y-93881962D01*
X133391962Y-93696013D01*
X133538061Y-93477359D01*
X133638696Y-93234405D01*
X133690000Y-92976486D01*
X133690000Y-92713514D01*
X133638696Y-92455595D01*
X133538061Y-92212641D01*
X133391962Y-91993987D01*
X133206013Y-91808038D01*
X132987359Y-91661939D01*
X132777470Y-91575000D01*
X132987359Y-91488061D01*
X133206013Y-91341962D01*
X133391962Y-91156013D01*
X133538061Y-90937359D01*
X133638696Y-90694405D01*
X133690000Y-90436486D01*
X133690000Y-90173514D01*
X133638696Y-89915595D01*
X133538061Y-89672641D01*
X133391962Y-89453987D01*
X133206013Y-89268038D01*
X132987359Y-89121939D01*
X132777470Y-89035000D01*
X132987359Y-88948061D01*
X133206013Y-88801962D01*
X133391962Y-88616013D01*
X133538061Y-88397359D01*
X133638696Y-88154405D01*
X133690000Y-87896486D01*
X133690000Y-87633514D01*
X133638696Y-87375595D01*
X133538061Y-87132641D01*
X133391962Y-86913987D01*
X133206013Y-86728038D01*
X132987359Y-86581939D01*
X132777470Y-86495000D01*
X132987359Y-86408061D01*
X133206013Y-86261962D01*
X133391962Y-86076013D01*
X133538061Y-85857359D01*
X133638696Y-85614405D01*
X133690000Y-85356486D01*
X133690000Y-85093514D01*
X153880000Y-85093514D01*
X153880000Y-85356486D01*
X153931304Y-85614405D01*
X154031939Y-85857359D01*
X154178038Y-86076013D01*
X154363987Y-86261962D01*
X154582641Y-86408061D01*
X154792530Y-86495000D01*
X154582641Y-86581939D01*
X154363987Y-86728038D01*
X154178038Y-86913987D01*
X154031939Y-87132641D01*
X153931304Y-87375595D01*
X153880000Y-87633514D01*
X153880000Y-87896486D01*
X153931304Y-88154405D01*
X154031939Y-88397359D01*
X154178038Y-88616013D01*
X154363987Y-88801962D01*
X154582641Y-88948061D01*
X154792530Y-89035000D01*
X154582641Y-89121939D01*
X154363987Y-89268038D01*
X154178038Y-89453987D01*
X154031939Y-89672641D01*
X153931304Y-89915595D01*
X153880000Y-90173514D01*
X153880000Y-90436486D01*
X153931304Y-90694405D01*
X154031939Y-90937359D01*
X154178038Y-91156013D01*
X154363987Y-91341962D01*
X154582641Y-91488061D01*
X154792530Y-91575000D01*
X154582641Y-91661939D01*
X154363987Y-91808038D01*
X154178038Y-91993987D01*
X154031939Y-92212641D01*
X153931304Y-92455595D01*
X153880000Y-92713514D01*
X153880000Y-92976486D01*
X153931304Y-93234405D01*
X154031939Y-93477359D01*
X154178038Y-93696013D01*
X154363987Y-93881962D01*
X154582641Y-94028061D01*
X154792530Y-94115000D01*
X154582641Y-94201939D01*
X154363987Y-94348038D01*
X154178038Y-94533987D01*
X154031939Y-94752641D01*
X153931304Y-94995595D01*
X153880000Y-95253514D01*
X153880000Y-95516486D01*
X153931304Y-95774405D01*
X154031939Y-96017359D01*
X154178038Y-96236013D01*
X154363987Y-96421962D01*
X154582641Y-96568061D01*
X154792530Y-96655000D01*
X154582641Y-96741939D01*
X154363987Y-96888038D01*
X154178038Y-97073987D01*
X154031939Y-97292641D01*
X153931304Y-97535595D01*
X153880000Y-97793514D01*
X153880000Y-98056486D01*
X153931304Y-98314405D01*
X154031939Y-98557359D01*
X154178038Y-98776013D01*
X154363987Y-98961962D01*
X154582641Y-99108061D01*
X154792530Y-99195000D01*
X154582641Y-99281939D01*
X154363987Y-99428038D01*
X154178038Y-99613987D01*
X154031939Y-99832641D01*
X153931304Y-100075595D01*
X153880000Y-100333514D01*
X153880000Y-100596486D01*
X153931304Y-100854405D01*
X154031939Y-101097359D01*
X154178038Y-101316013D01*
X154363987Y-101501962D01*
X154582641Y-101648061D01*
X154796444Y-101736621D01*
X154633634Y-101796065D01*
X154532797Y-101849963D01*
X154473336Y-102083731D01*
X155215000Y-102825395D01*
X155956664Y-102083731D01*
X155897203Y-101849963D01*
X155658758Y-101739066D01*
X155639173Y-101734294D01*
X155847359Y-101648061D01*
X156066013Y-101501962D01*
X156251962Y-101316013D01*
X156398061Y-101097359D01*
X156485000Y-100887470D01*
X156571939Y-101097359D01*
X156718038Y-101316013D01*
X156903987Y-101501962D01*
X157122641Y-101648061D01*
X157332530Y-101735000D01*
X157122641Y-101821939D01*
X156903987Y-101968038D01*
X156718038Y-102153987D01*
X156571939Y-102372641D01*
X156483379Y-102586444D01*
X156423935Y-102423634D01*
X156370037Y-102322797D01*
X156136269Y-102263336D01*
X155394605Y-103005000D01*
X156136269Y-103746664D01*
X156370037Y-103687203D01*
X156480934Y-103448758D01*
X156485706Y-103429173D01*
X156571939Y-103637359D01*
X156718038Y-103856013D01*
X156903987Y-104041962D01*
X157122641Y-104188061D01*
X157332530Y-104275000D01*
X157122641Y-104361939D01*
X156903987Y-104508038D01*
X156718038Y-104693987D01*
X156571939Y-104912641D01*
X156485000Y-105122530D01*
X156398061Y-104912641D01*
X156251962Y-104693987D01*
X156066013Y-104508038D01*
X155847359Y-104361939D01*
X155633556Y-104273379D01*
X155796366Y-104213935D01*
X155897203Y-104160037D01*
X155956664Y-103926269D01*
X155215000Y-103184605D01*
X154473336Y-103926269D01*
X154532797Y-104160037D01*
X154771242Y-104270934D01*
X154790827Y-104275706D01*
X154582641Y-104361939D01*
X154363987Y-104508038D01*
X154178038Y-104693987D01*
X154031939Y-104912641D01*
X153931304Y-105155595D01*
X153880000Y-105413514D01*
X153880000Y-105676486D01*
X153931304Y-105934405D01*
X154031939Y-106177359D01*
X154178038Y-106396013D01*
X154363987Y-106581962D01*
X154582641Y-106728061D01*
X154792530Y-106815000D01*
X154582641Y-106901939D01*
X154363987Y-107048038D01*
X154178038Y-107233987D01*
X154031939Y-107452641D01*
X153931304Y-107695595D01*
X153880000Y-107953514D01*
X153880000Y-108216486D01*
X153931304Y-108474405D01*
X154031939Y-108717359D01*
X154178038Y-108936013D01*
X154363987Y-109121962D01*
X154582641Y-109268061D01*
X154825595Y-109368696D01*
X155083514Y-109420000D01*
X155346486Y-109420000D01*
X155604405Y-109368696D01*
X155847359Y-109268061D01*
X156066013Y-109121962D01*
X156251962Y-108936013D01*
X156398061Y-108717359D01*
X156485000Y-108507470D01*
X156571939Y-108717359D01*
X156718038Y-108936013D01*
X156903987Y-109121962D01*
X157122641Y-109268061D01*
X157365595Y-109368696D01*
X157623514Y-109420000D01*
X157886486Y-109420000D01*
X158144405Y-109368696D01*
X158387359Y-109268061D01*
X158606013Y-109121962D01*
X158791962Y-108936013D01*
X158938061Y-108717359D01*
X159038696Y-108474405D01*
X159090000Y-108216486D01*
X159090000Y-107953514D01*
X159038696Y-107695595D01*
X158938061Y-107452641D01*
X158791962Y-107233987D01*
X158606013Y-107048038D01*
X158387359Y-106901939D01*
X158177470Y-106815000D01*
X158387359Y-106728061D01*
X158606013Y-106581962D01*
X158791962Y-106396013D01*
X158938061Y-106177359D01*
X159038696Y-105934405D01*
X159090000Y-105676486D01*
X159090000Y-105413514D01*
X159038696Y-105155595D01*
X158938061Y-104912641D01*
X158791962Y-104693987D01*
X158606013Y-104508038D01*
X158387359Y-104361939D01*
X158177470Y-104275000D01*
X158387359Y-104188061D01*
X158606013Y-104041962D01*
X158791962Y-103856013D01*
X158938061Y-103637359D01*
X159038696Y-103394405D01*
X159090000Y-103136486D01*
X159090000Y-102873514D01*
X159038696Y-102615595D01*
X158938061Y-102372641D01*
X158791962Y-102153987D01*
X158606013Y-101968038D01*
X158387359Y-101821939D01*
X158177470Y-101735000D01*
X158387359Y-101648061D01*
X158606013Y-101501962D01*
X158791962Y-101316013D01*
X158938061Y-101097359D01*
X159038696Y-100854405D01*
X159090000Y-100596486D01*
X159090000Y-100333514D01*
X159038696Y-100075595D01*
X158938061Y-99832641D01*
X158791962Y-99613987D01*
X158606013Y-99428038D01*
X158387359Y-99281939D01*
X158177470Y-99195000D01*
X158387359Y-99108061D01*
X158606013Y-98961962D01*
X158791962Y-98776013D01*
X158938061Y-98557359D01*
X159038696Y-98314405D01*
X159090000Y-98056486D01*
X159090000Y-97793514D01*
X159038696Y-97535595D01*
X158938061Y-97292641D01*
X158791962Y-97073987D01*
X158606013Y-96888038D01*
X158387359Y-96741939D01*
X158177470Y-96655000D01*
X158387359Y-96568061D01*
X158606013Y-96421962D01*
X158791962Y-96236013D01*
X158938061Y-96017359D01*
X159038696Y-95774405D01*
X159090000Y-95516486D01*
X159090000Y-95253514D01*
X159038696Y-94995595D01*
X158938061Y-94752641D01*
X158791962Y-94533987D01*
X158606013Y-94348038D01*
X158387359Y-94201939D01*
X158177470Y-94115000D01*
X158387359Y-94028061D01*
X158606013Y-93881962D01*
X158791962Y-93696013D01*
X158938061Y-93477359D01*
X159038696Y-93234405D01*
X159090000Y-92976486D01*
X159090000Y-92713514D01*
X159038696Y-92455595D01*
X158938061Y-92212641D01*
X158791962Y-91993987D01*
X158606013Y-91808038D01*
X158387359Y-91661939D01*
X158177470Y-91575000D01*
X158387359Y-91488061D01*
X158606013Y-91341962D01*
X158791962Y-91156013D01*
X158938061Y-90937359D01*
X159038696Y-90694405D01*
X159090000Y-90436486D01*
X159090000Y-90173514D01*
X159038696Y-89915595D01*
X158938061Y-89672641D01*
X158791962Y-89453987D01*
X158606013Y-89268038D01*
X158387359Y-89121939D01*
X158177470Y-89035000D01*
X158387359Y-88948061D01*
X158606013Y-88801962D01*
X158791962Y-88616013D01*
X158938061Y-88397359D01*
X159038696Y-88154405D01*
X159090000Y-87896486D01*
X159090000Y-87633514D01*
X159038696Y-87375595D01*
X158938061Y-87132641D01*
X158791962Y-86913987D01*
X158606013Y-86728038D01*
X158387359Y-86581939D01*
X158177470Y-86495000D01*
X158387359Y-86408061D01*
X158606013Y-86261962D01*
X158791962Y-86076013D01*
X158938061Y-85857359D01*
X159038696Y-85614405D01*
X159090000Y-85356486D01*
X159090000Y-85093514D01*
X159038696Y-84835595D01*
X158938061Y-84592641D01*
X158791962Y-84373987D01*
X158606013Y-84188038D01*
X158387359Y-84041939D01*
X158144405Y-83941304D01*
X157886486Y-83890000D01*
X157623514Y-83890000D01*
X157365595Y-83941304D01*
X157122641Y-84041939D01*
X156903987Y-84188038D01*
X156718038Y-84373987D01*
X156571939Y-84592641D01*
X156485000Y-84802530D01*
X156398061Y-84592641D01*
X156251962Y-84373987D01*
X156066013Y-84188038D01*
X155847359Y-84041939D01*
X155604405Y-83941304D01*
X155346486Y-83890000D01*
X155083514Y-83890000D01*
X154825595Y-83941304D01*
X154582641Y-84041939D01*
X154363987Y-84188038D01*
X154178038Y-84373987D01*
X154031939Y-84592641D01*
X153931304Y-84835595D01*
X153880000Y-85093514D01*
X133690000Y-85093514D01*
X133638696Y-84835595D01*
X133538061Y-84592641D01*
X133391962Y-84373987D01*
X133206013Y-84188038D01*
X132987359Y-84041939D01*
X132744405Y-83941304D01*
X132486486Y-83890000D01*
X132223514Y-83890000D01*
X131965595Y-83941304D01*
X131722641Y-84041939D01*
X131503987Y-84188038D01*
X131318038Y-84373987D01*
X131171939Y-84592641D01*
X131085000Y-84802530D01*
X130998061Y-84592641D01*
X130851962Y-84373987D01*
X130666013Y-84188038D01*
X130447359Y-84041939D01*
X130204405Y-83941304D01*
X129946486Y-83890000D01*
X129683514Y-83890000D01*
X129425595Y-83941304D01*
X129182641Y-84041939D01*
X128963987Y-84188038D01*
X128778038Y-84373987D01*
X128631939Y-84592641D01*
X128531304Y-84835595D01*
X128480000Y-85093514D01*
X124587000Y-85093514D01*
X124587000Y-76327000D01*
X161163000Y-76327000D01*
X161163000Y-128143000D01*
G37*
%TD.AperFunction*%
%TD*%
M02*
