%TF.GenerationSoftware,KiCad,Pcbnew,(5.1.9-0-10_14)*%
%TF.CreationDate,2021-02-20T18:52:58-05:00*%
%TF.ProjectId,beep_prototype,62656570-5f70-4726-9f74-6f747970652e,rev?*%
%TF.SameCoordinates,Original*%
%TF.FileFunction,Soldermask,Bot*%
%TF.FilePolarity,Negative*%
%FSLAX46Y46*%
G04 Gerber Fmt 4.6, Leading zero omitted, Abs format (unit mm)*
G04 Created by KiCad (PCBNEW (5.1.9-0-10_14)) date 2021-02-20 18:52:58*
%MOMM*%
%LPD*%
G01*
G04 APERTURE LIST*
%ADD10C,1.400000*%
%ADD11C,2.000000*%
%ADD12R,2.000000X2.000000*%
G04 APERTURE END LIST*
D10*
%TO.C,ESP32 DI Mini*%
X132355000Y-85225000D03*
X129815000Y-85225000D03*
X129815000Y-87765000D03*
X132355000Y-87765000D03*
X129815000Y-90305000D03*
X132355000Y-90305000D03*
X129815000Y-92845000D03*
X132355000Y-92845000D03*
X129815000Y-95385000D03*
X132355000Y-95385000D03*
X129815000Y-97925000D03*
X132355000Y-97925000D03*
X129815000Y-100465000D03*
X132355000Y-100465000D03*
X129815000Y-103005000D03*
X132355000Y-103005000D03*
X129815000Y-105545000D03*
X132355000Y-105545000D03*
X129815000Y-108085000D03*
X132355000Y-108085000D03*
X155215000Y-85225000D03*
X157755000Y-85225000D03*
X155215000Y-87765000D03*
X157755000Y-87765000D03*
X155215000Y-90305000D03*
X157755000Y-90305000D03*
X155215000Y-92845000D03*
X157755000Y-92845000D03*
X155215000Y-95385000D03*
X157755000Y-95385000D03*
X155215000Y-97925000D03*
X157755000Y-97925000D03*
X155215000Y-100465000D03*
X157755000Y-100465000D03*
X155215000Y-103005000D03*
X157755000Y-103005000D03*
X155215000Y-105545000D03*
X157755000Y-105545000D03*
X155215000Y-108085000D03*
X157755000Y-108085000D03*
%TD*%
D11*
%TO.C,BZ1*%
X134600000Y-121920000D03*
D12*
X127000000Y-121920000D03*
%TD*%
M02*
