%TF.GenerationSoftware,KiCad,Pcbnew,(5.1.9-0-10_14)*%
%TF.CreationDate,2021-02-20T18:52:58-05:00*%
%TF.ProjectId,beep_prototype,62656570-5f70-4726-9f74-6f747970652e,rev?*%
%TF.SameCoordinates,Original*%
%TF.FileFunction,Legend,Top*%
%TF.FilePolarity,Positive*%
%FSLAX46Y46*%
G04 Gerber Fmt 4.6, Leading zero omitted, Abs format (unit mm)*
G04 Created by KiCad (PCBNEW (5.1.9-0-10_14)) date 2021-02-20 18:52:58*
%MOMM*%
%LPD*%
G01*
G04 APERTURE LIST*
%ADD10C,0.120000*%
%ADD11C,0.100000*%
%ADD12C,0.150000*%
G04 APERTURE END LIST*
D10*
%TO.C,ESP32 DI Mini*%
X148865000Y-111895000D02*
X148865000Y-114435000D01*
X138705000Y-111895000D02*
X148865000Y-111895000D01*
X138705000Y-114435000D02*
X138705000Y-111895000D01*
X148865000Y-120785000D02*
X148865000Y-114435000D01*
X138705000Y-120785000D02*
X148865000Y-120785000D01*
X138705000Y-114435000D02*
X138705000Y-120785000D01*
X131085000Y-114435000D02*
X159025000Y-114435000D01*
D11*
G36*
X129815000Y-113165000D02*
G01*
X129815000Y-110625000D01*
X131085000Y-110625000D01*
X131085000Y-113165000D01*
X129815000Y-113165000D01*
G37*
X129815000Y-113165000D02*
X129815000Y-110625000D01*
X131085000Y-110625000D01*
X131085000Y-113165000D01*
X129815000Y-113165000D01*
D10*
X128545000Y-109355000D02*
X131085000Y-109355000D01*
X128545000Y-80145000D02*
X128545000Y-109355000D01*
X159025000Y-80145000D02*
X159025000Y-114435000D01*
X131085000Y-77605000D02*
X132355000Y-77605000D01*
X131085000Y-77605000D02*
X128545000Y-80145000D01*
X156485000Y-77605000D02*
X159025000Y-80145000D01*
X156485000Y-77605000D02*
X132355000Y-77605000D01*
X131085000Y-109355000D02*
X131085000Y-114435000D01*
%TO.C,SW1*%
X152040000Y-126440000D02*
X157840000Y-126440000D01*
X151940000Y-119940000D02*
X157940000Y-119940000D01*
X151840000Y-124490000D02*
X151840000Y-121890000D01*
X158040000Y-124490000D02*
X158040000Y-121890000D01*
X160040000Y-125490000D02*
X160040000Y-126490000D01*
X160040000Y-126490000D02*
X159040000Y-126490000D01*
%TO.C,BZ1*%
X136900000Y-121920000D02*
G75*
G03*
X136900000Y-121920000I-6100000J0D01*
G01*
%TO.C,ESP32 DI Mini*%
D12*
X138367142Y-96448571D02*
X138700476Y-96448571D01*
X138843333Y-96972380D02*
X138367142Y-96972380D01*
X138367142Y-95972380D01*
X138843333Y-95972380D01*
X139224285Y-96924761D02*
X139367142Y-96972380D01*
X139605238Y-96972380D01*
X139700476Y-96924761D01*
X139748095Y-96877142D01*
X139795714Y-96781904D01*
X139795714Y-96686666D01*
X139748095Y-96591428D01*
X139700476Y-96543809D01*
X139605238Y-96496190D01*
X139414761Y-96448571D01*
X139319523Y-96400952D01*
X139271904Y-96353333D01*
X139224285Y-96258095D01*
X139224285Y-96162857D01*
X139271904Y-96067619D01*
X139319523Y-96020000D01*
X139414761Y-95972380D01*
X139652857Y-95972380D01*
X139795714Y-96020000D01*
X140224285Y-96972380D02*
X140224285Y-95972380D01*
X140605238Y-95972380D01*
X140700476Y-96020000D01*
X140748095Y-96067619D01*
X140795714Y-96162857D01*
X140795714Y-96305714D01*
X140748095Y-96400952D01*
X140700476Y-96448571D01*
X140605238Y-96496190D01*
X140224285Y-96496190D01*
X141129047Y-95972380D02*
X141748095Y-95972380D01*
X141414761Y-96353333D01*
X141557619Y-96353333D01*
X141652857Y-96400952D01*
X141700476Y-96448571D01*
X141748095Y-96543809D01*
X141748095Y-96781904D01*
X141700476Y-96877142D01*
X141652857Y-96924761D01*
X141557619Y-96972380D01*
X141271904Y-96972380D01*
X141176666Y-96924761D01*
X141129047Y-96877142D01*
X142129047Y-96067619D02*
X142176666Y-96020000D01*
X142271904Y-95972380D01*
X142510000Y-95972380D01*
X142605238Y-96020000D01*
X142652857Y-96067619D01*
X142700476Y-96162857D01*
X142700476Y-96258095D01*
X142652857Y-96400952D01*
X142081428Y-96972380D01*
X142700476Y-96972380D01*
X143890952Y-96972380D02*
X143890952Y-95972380D01*
X144129047Y-95972380D01*
X144271904Y-96020000D01*
X144367142Y-96115238D01*
X144414761Y-96210476D01*
X144462380Y-96400952D01*
X144462380Y-96543809D01*
X144414761Y-96734285D01*
X144367142Y-96829523D01*
X144271904Y-96924761D01*
X144129047Y-96972380D01*
X143890952Y-96972380D01*
X144890952Y-96972380D02*
X144890952Y-95972380D01*
X146129047Y-96972380D02*
X146129047Y-95972380D01*
X146462380Y-96686666D01*
X146795714Y-95972380D01*
X146795714Y-96972380D01*
X147271904Y-96972380D02*
X147271904Y-96305714D01*
X147271904Y-95972380D02*
X147224285Y-96020000D01*
X147271904Y-96067619D01*
X147319523Y-96020000D01*
X147271904Y-95972380D01*
X147271904Y-96067619D01*
X147748095Y-96305714D02*
X147748095Y-96972380D01*
X147748095Y-96400952D02*
X147795714Y-96353333D01*
X147890952Y-96305714D01*
X148033809Y-96305714D01*
X148129047Y-96353333D01*
X148176666Y-96448571D01*
X148176666Y-96972380D01*
X148652857Y-96972380D02*
X148652857Y-96305714D01*
X148652857Y-95972380D02*
X148605238Y-96020000D01*
X148652857Y-96067619D01*
X148700476Y-96020000D01*
X148652857Y-95972380D01*
X148652857Y-96067619D01*
%TO.C,SW1*%
X153606666Y-124864761D02*
X153749523Y-124912380D01*
X153987619Y-124912380D01*
X154082857Y-124864761D01*
X154130476Y-124817142D01*
X154178095Y-124721904D01*
X154178095Y-124626666D01*
X154130476Y-124531428D01*
X154082857Y-124483809D01*
X153987619Y-124436190D01*
X153797142Y-124388571D01*
X153701904Y-124340952D01*
X153654285Y-124293333D01*
X153606666Y-124198095D01*
X153606666Y-124102857D01*
X153654285Y-124007619D01*
X153701904Y-123960000D01*
X153797142Y-123912380D01*
X154035238Y-123912380D01*
X154178095Y-123960000D01*
X154511428Y-123912380D02*
X154749523Y-124912380D01*
X154940000Y-124198095D01*
X155130476Y-124912380D01*
X155368571Y-123912380D01*
X156273333Y-124912380D02*
X155701904Y-124912380D01*
X155987619Y-124912380D02*
X155987619Y-123912380D01*
X155892380Y-124055238D01*
X155797142Y-124150476D01*
X155701904Y-124198095D01*
%TO.C,BZ1*%
X129929047Y-121848571D02*
X130071904Y-121896190D01*
X130119523Y-121943809D01*
X130167142Y-122039047D01*
X130167142Y-122181904D01*
X130119523Y-122277142D01*
X130071904Y-122324761D01*
X129976666Y-122372380D01*
X129595714Y-122372380D01*
X129595714Y-121372380D01*
X129929047Y-121372380D01*
X130024285Y-121420000D01*
X130071904Y-121467619D01*
X130119523Y-121562857D01*
X130119523Y-121658095D01*
X130071904Y-121753333D01*
X130024285Y-121800952D01*
X129929047Y-121848571D01*
X129595714Y-121848571D01*
X130500476Y-121372380D02*
X131167142Y-121372380D01*
X130500476Y-122372380D01*
X131167142Y-122372380D01*
X132071904Y-122372380D02*
X131500476Y-122372380D01*
X131786190Y-122372380D02*
X131786190Y-121372380D01*
X131690952Y-121515238D01*
X131595714Y-121610476D01*
X131500476Y-121658095D01*
X126609047Y-119451428D02*
X127370952Y-119451428D01*
X126990000Y-119832380D02*
X126990000Y-119070476D01*
%TD*%
M02*
