M48
; DRILL file {KiCad (5.1.9-0-10_14)} date Saturday, February 20, 2021 at 06:53:00 PM
; FORMAT={-:-/ absolute / inch / decimal}
; #@! TF.CreationDate,2021-02-20T18:53:00-05:00
; #@! TF.GenerationSoftware,Kicad,Pcbnew,(5.1.9-0-10_14)
; #@! TF.FileFunction,Plated,1,2,PTH
FMAT,2
INCH
T1C0.0315
T2C0.0394
%
G90
G05
T1
X5.1108Y-3.3553
X5.1108Y-3.4553
X5.1108Y-3.5553
X5.1108Y-3.6553
X5.1108Y-3.7553
X5.1108Y-3.8553
X5.1108Y-3.9553
X5.1108Y-4.0553
X5.1108Y-4.1553
X5.1108Y-4.2553
X5.2108Y-3.3553
X5.2108Y-3.4553
X5.2108Y-3.5553
X5.2108Y-3.6553
X5.2108Y-3.7553
X5.2108Y-3.8553
X5.2108Y-3.9553
X5.2108Y-4.0553
X5.2108Y-4.1553
X5.2108Y-4.2553
X6.1108Y-3.3553
X6.1108Y-3.4553
X6.1108Y-3.5553
X6.1108Y-3.6553
X6.1108Y-3.7553
X6.1108Y-3.8553
X6.1108Y-3.9553
X6.1108Y-4.0553
X6.1108Y-4.1553
X6.1108Y-4.2553
X6.2108Y-3.3553
X6.2108Y-3.4553
X6.2108Y-3.5553
X6.2108Y-3.6553
X6.2108Y-3.7553
X6.2108Y-3.8553
X6.2108Y-3.9553
X6.2108Y-4.0553
X6.2108Y-4.1553
X6.2108Y-4.2553
T2
X5.0Y-4.8
X5.2992Y-4.8
T0
M30
