%TF.GenerationSoftware,KiCad,Pcbnew,(5.1.9-0-10_14)*%
%TF.CreationDate,2021-02-20T18:52:58-05:00*%
%TF.ProjectId,beep_prototype,62656570-5f70-4726-9f74-6f747970652e,rev?*%
%TF.SameCoordinates,Original*%
%TF.FileFunction,Copper,L1,Top*%
%TF.FilePolarity,Positive*%
%FSLAX46Y46*%
G04 Gerber Fmt 4.6, Leading zero omitted, Abs format (unit mm)*
G04 Created by KiCad (PCBNEW (5.1.9-0-10_14)) date 2021-02-20 18:52:58*
%MOMM*%
%LPD*%
G01*
G04 APERTURE LIST*
%TA.AperFunction,ComponentPad*%
%ADD10C,1.400000*%
%TD*%
%TA.AperFunction,SMDPad,CuDef*%
%ADD11R,1.600000X1.400000*%
%TD*%
%TA.AperFunction,ComponentPad*%
%ADD12C,2.000000*%
%TD*%
%TA.AperFunction,ComponentPad*%
%ADD13R,2.000000X2.000000*%
%TD*%
%TA.AperFunction,Conductor*%
%ADD14C,0.250000*%
%TD*%
%TA.AperFunction,Conductor*%
%ADD15C,0.254000*%
%TD*%
%TA.AperFunction,Conductor*%
%ADD16C,0.100000*%
%TD*%
G04 APERTURE END LIST*
D10*
%TO.P,ESP32 DI Mini,2*%
%TO.N,Net-(U1-Pad2)*%
X132355000Y-85225000D03*
%TO.P,ESP32 DI Mini,1*%
%TO.N,GND*%
X129815000Y-85225000D03*
%TO.P,ESP32 DI Mini,3*%
%TO.N,Net-(U1-Pad3)*%
X129815000Y-87765000D03*
%TO.P,ESP32 DI Mini,4*%
%TO.N,Net-(U1-Pad4)*%
X132355000Y-87765000D03*
%TO.P,ESP32 DI Mini,5*%
%TO.N,Net-(U1-Pad5)*%
X129815000Y-90305000D03*
%TO.P,ESP32 DI Mini,6*%
%TO.N,Net-(U1-Pad6)*%
X132355000Y-90305000D03*
%TO.P,ESP32 DI Mini,7*%
%TO.N,Net-(U1-Pad7)*%
X129815000Y-92845000D03*
%TO.P,ESP32 DI Mini,8*%
%TO.N,Net-(U1-Pad8)*%
X132355000Y-92845000D03*
%TO.P,ESP32 DI Mini,9*%
%TO.N,Net-(U1-Pad9)*%
X129815000Y-95385000D03*
%TO.P,ESP32 DI Mini,10*%
%TO.N,Net-(U1-Pad10)*%
X132355000Y-95385000D03*
%TO.P,ESP32 DI Mini,11*%
%TO.N,Net-(U1-Pad11)*%
X129815000Y-97925000D03*
%TO.P,ESP32 DI Mini,12*%
%TO.N,Net-(U1-Pad12)*%
X132355000Y-97925000D03*
%TO.P,ESP32 DI Mini,13*%
%TO.N,Net-(U1-Pad13)*%
X129815000Y-100465000D03*
%TO.P,ESP32 DI Mini,14*%
%TO.N,Net-(U1-Pad14)*%
X132355000Y-100465000D03*
%TO.P,ESP32 DI Mini,15*%
%TO.N,Net-(U1-Pad15)*%
X129815000Y-103005000D03*
%TO.P,ESP32 DI Mini,16*%
%TO.N,Net-(U1-Pad16)*%
X132355000Y-103005000D03*
%TO.P,ESP32 DI Mini,17*%
%TO.N,Net-(U1-Pad17)*%
X129815000Y-105545000D03*
%TO.P,ESP32 DI Mini,18*%
%TO.N,Net-(U1-Pad18)*%
X132355000Y-105545000D03*
%TO.P,ESP32 DI Mini,19*%
%TO.N,Net-(U1-Pad19)*%
X129815000Y-108085000D03*
%TO.P,ESP32 DI Mini,20*%
%TO.N,Net-(U1-Pad20)*%
X132355000Y-108085000D03*
%TO.P,ESP32 DI Mini,21*%
%TO.N,Net-(U1-Pad21)*%
X155215000Y-85225000D03*
%TO.P,ESP32 DI Mini,22*%
%TO.N,GND*%
X157755000Y-85225000D03*
%TO.P,ESP32 DI Mini,23*%
%TO.N,Net-(U1-Pad23)*%
X155215000Y-87765000D03*
%TO.P,ESP32 DI Mini,24*%
%TO.N,Net-(U1-Pad24)*%
X157755000Y-87765000D03*
%TO.P,ESP32 DI Mini,25*%
%TO.N,Net-(U1-Pad25)*%
X155215000Y-90305000D03*
%TO.P,ESP32 DI Mini,26*%
%TO.N,Net-(U1-Pad26)*%
X157755000Y-90305000D03*
%TO.P,ESP32 DI Mini,27*%
%TO.N,Net-(SW1-Pad2)*%
X155215000Y-92845000D03*
%TO.P,ESP32 DI Mini,28*%
%TO.N,Net-(U1-Pad28)*%
X157755000Y-92845000D03*
%TO.P,ESP32 DI Mini,29*%
%TO.N,Net-(U1-Pad29)*%
X155215000Y-95385000D03*
%TO.P,ESP32 DI Mini,30*%
%TO.N,Net-(U1-Pad30)*%
X157755000Y-95385000D03*
%TO.P,ESP32 DI Mini,31*%
%TO.N,Net-(U1-Pad31)*%
X155215000Y-97925000D03*
%TO.P,ESP32 DI Mini,32*%
%TO.N,Net-(U1-Pad32)*%
X157755000Y-97925000D03*
%TO.P,ESP32 DI Mini,33*%
%TO.N,GND*%
X155215000Y-100465000D03*
%TO.P,ESP32 DI Mini,34*%
%TO.N,Net-(BZ1-Pad1)*%
X157755000Y-100465000D03*
%TO.P,ESP32 DI Mini,35*%
%TO.N,+5V*%
X155215000Y-103005000D03*
%TO.P,ESP32 DI Mini,36*%
%TO.N,Net-(U1-Pad36)*%
X157755000Y-103005000D03*
%TO.P,ESP32 DI Mini,37*%
%TO.N,Net-(U1-Pad37)*%
X155215000Y-105545000D03*
%TO.P,ESP32 DI Mini,38*%
%TO.N,Net-(U1-Pad38)*%
X157755000Y-105545000D03*
%TO.P,ESP32 DI Mini,39*%
%TO.N,Net-(U1-Pad39)*%
X155215000Y-108085000D03*
%TO.P,ESP32 DI Mini,40*%
%TO.N,Net-(U1-Pad40)*%
X157755000Y-108085000D03*
%TD*%
D11*
%TO.P,SW1,3*%
%TO.N,N/C*%
X158940000Y-120940000D03*
%TO.P,SW1,4*%
X150940000Y-120940000D03*
%TO.P,SW1,1*%
%TO.N,GND*%
X158940000Y-125440000D03*
%TO.P,SW1,2*%
%TO.N,Net-(SW1-Pad2)*%
X150940000Y-125440000D03*
%TD*%
D12*
%TO.P,BZ1,2*%
%TO.N,GND*%
X134600000Y-121920000D03*
D13*
%TO.P,BZ1,1*%
%TO.N,Net-(BZ1-Pad1)*%
X127000000Y-121920000D03*
%TD*%
D14*
%TO.N,Net-(BZ1-Pad1)*%
X127000000Y-121920000D02*
X127000000Y-100330000D01*
X157615000Y-100465000D02*
X157755000Y-100465000D01*
X156589999Y-99439999D02*
X157615000Y-100465000D01*
X127890001Y-99439999D02*
X156589999Y-99439999D01*
X127000000Y-100330000D02*
X127890001Y-99439999D01*
%TO.N,Net-(SW1-Pad2)*%
X150940000Y-125440000D02*
X150940000Y-125540000D01*
X156240001Y-91819999D02*
X155215000Y-92845000D01*
X158247001Y-91819999D02*
X156240001Y-91819999D01*
X158780001Y-92352999D02*
X158247001Y-91819999D01*
X158780001Y-117699999D02*
X158780001Y-92352999D01*
X150940000Y-125540000D02*
X158780001Y-117699999D01*
%TD*%
D15*
%TO.N,GND*%
X161163000Y-128143000D02*
X124587000Y-128143000D01*
X124587000Y-120920000D01*
X125361928Y-120920000D01*
X125361928Y-122920000D01*
X125374188Y-123044482D01*
X125410498Y-123164180D01*
X125469463Y-123274494D01*
X125548815Y-123371185D01*
X125645506Y-123450537D01*
X125755820Y-123509502D01*
X125875518Y-123545812D01*
X126000000Y-123558072D01*
X128000000Y-123558072D01*
X128124482Y-123545812D01*
X128244180Y-123509502D01*
X128354494Y-123450537D01*
X128451185Y-123371185D01*
X128530537Y-123274494D01*
X128589502Y-123164180D01*
X128622496Y-123055413D01*
X133644192Y-123055413D01*
X133739956Y-123319814D01*
X134029571Y-123460704D01*
X134341108Y-123542384D01*
X134662595Y-123561718D01*
X134981675Y-123517961D01*
X135286088Y-123412795D01*
X135460044Y-123319814D01*
X135555808Y-123055413D01*
X134600000Y-122099605D01*
X133644192Y-123055413D01*
X128622496Y-123055413D01*
X128625812Y-123044482D01*
X128638072Y-122920000D01*
X128638072Y-121982595D01*
X132958282Y-121982595D01*
X133002039Y-122301675D01*
X133107205Y-122606088D01*
X133200186Y-122780044D01*
X133464587Y-122875808D01*
X134420395Y-121920000D01*
X134779605Y-121920000D01*
X135735413Y-122875808D01*
X135999814Y-122780044D01*
X136140704Y-122490429D01*
X136222384Y-122178892D01*
X136241718Y-121857405D01*
X136197961Y-121538325D01*
X136092795Y-121233912D01*
X135999814Y-121059956D01*
X135735413Y-120964192D01*
X134779605Y-121920000D01*
X134420395Y-121920000D01*
X133464587Y-120964192D01*
X133200186Y-121059956D01*
X133059296Y-121349571D01*
X132977616Y-121661108D01*
X132958282Y-121982595D01*
X128638072Y-121982595D01*
X128638072Y-120920000D01*
X128625812Y-120795518D01*
X128622497Y-120784587D01*
X133644192Y-120784587D01*
X134600000Y-121740395D01*
X135555808Y-120784587D01*
X135460044Y-120520186D01*
X135170429Y-120379296D01*
X134858892Y-120297616D01*
X134537405Y-120278282D01*
X134218325Y-120322039D01*
X133913912Y-120427205D01*
X133739956Y-120520186D01*
X133644192Y-120784587D01*
X128622497Y-120784587D01*
X128589502Y-120675820D01*
X128530537Y-120565506D01*
X128451185Y-120468815D01*
X128354494Y-120389463D01*
X128244180Y-120330498D01*
X128124482Y-120294188D01*
X128000000Y-120281928D01*
X127760000Y-120281928D01*
X127760000Y-120240000D01*
X149501928Y-120240000D01*
X149501928Y-121640000D01*
X149514188Y-121764482D01*
X149550498Y-121884180D01*
X149609463Y-121994494D01*
X149688815Y-122091185D01*
X149785506Y-122170537D01*
X149895820Y-122229502D01*
X150015518Y-122265812D01*
X150140000Y-122278072D01*
X151740000Y-122278072D01*
X151864482Y-122265812D01*
X151984180Y-122229502D01*
X152094494Y-122170537D01*
X152191185Y-122091185D01*
X152270537Y-121994494D01*
X152329502Y-121884180D01*
X152365812Y-121764482D01*
X152378072Y-121640000D01*
X152378072Y-120240000D01*
X152365812Y-120115518D01*
X152329502Y-119995820D01*
X152270537Y-119885506D01*
X152191185Y-119788815D01*
X152094494Y-119709463D01*
X151984180Y-119650498D01*
X151864482Y-119614188D01*
X151740000Y-119601928D01*
X150140000Y-119601928D01*
X150015518Y-119614188D01*
X149895820Y-119650498D01*
X149785506Y-119709463D01*
X149688815Y-119788815D01*
X149609463Y-119885506D01*
X149550498Y-119995820D01*
X149514188Y-120115518D01*
X149501928Y-120240000D01*
X127760000Y-120240000D01*
X127760000Y-100644802D01*
X128204803Y-100199999D01*
X128506558Y-100199999D01*
X128480000Y-100333514D01*
X128480000Y-100596486D01*
X128531304Y-100854405D01*
X128631939Y-101097359D01*
X128778038Y-101316013D01*
X128963987Y-101501962D01*
X129182641Y-101648061D01*
X129392530Y-101735000D01*
X129182641Y-101821939D01*
X128963987Y-101968038D01*
X128778038Y-102153987D01*
X128631939Y-102372641D01*
X128531304Y-102615595D01*
X128480000Y-102873514D01*
X128480000Y-103136486D01*
X128531304Y-103394405D01*
X128631939Y-103637359D01*
X128778038Y-103856013D01*
X128963987Y-104041962D01*
X129182641Y-104188061D01*
X129392530Y-104275000D01*
X129182641Y-104361939D01*
X128963987Y-104508038D01*
X128778038Y-104693987D01*
X128631939Y-104912641D01*
X128531304Y-105155595D01*
X128480000Y-105413514D01*
X128480000Y-105676486D01*
X128531304Y-105934405D01*
X128631939Y-106177359D01*
X128778038Y-106396013D01*
X128963987Y-106581962D01*
X129182641Y-106728061D01*
X129392530Y-106815000D01*
X129182641Y-106901939D01*
X128963987Y-107048038D01*
X128778038Y-107233987D01*
X128631939Y-107452641D01*
X128531304Y-107695595D01*
X128480000Y-107953514D01*
X128480000Y-108216486D01*
X128531304Y-108474405D01*
X128631939Y-108717359D01*
X128778038Y-108936013D01*
X128963987Y-109121962D01*
X129182641Y-109268061D01*
X129425595Y-109368696D01*
X129683514Y-109420000D01*
X129946486Y-109420000D01*
X130204405Y-109368696D01*
X130447359Y-109268061D01*
X130666013Y-109121962D01*
X130851962Y-108936013D01*
X130998061Y-108717359D01*
X131085000Y-108507470D01*
X131171939Y-108717359D01*
X131318038Y-108936013D01*
X131503987Y-109121962D01*
X131722641Y-109268061D01*
X131965595Y-109368696D01*
X132223514Y-109420000D01*
X132486486Y-109420000D01*
X132744405Y-109368696D01*
X132987359Y-109268061D01*
X133206013Y-109121962D01*
X133391962Y-108936013D01*
X133538061Y-108717359D01*
X133638696Y-108474405D01*
X133690000Y-108216486D01*
X133690000Y-107953514D01*
X133638696Y-107695595D01*
X133538061Y-107452641D01*
X133391962Y-107233987D01*
X133206013Y-107048038D01*
X132987359Y-106901939D01*
X132777470Y-106815000D01*
X132987359Y-106728061D01*
X133206013Y-106581962D01*
X133391962Y-106396013D01*
X133538061Y-106177359D01*
X133638696Y-105934405D01*
X133690000Y-105676486D01*
X133690000Y-105413514D01*
X133638696Y-105155595D01*
X133538061Y-104912641D01*
X133391962Y-104693987D01*
X133206013Y-104508038D01*
X132987359Y-104361939D01*
X132777470Y-104275000D01*
X132987359Y-104188061D01*
X133206013Y-104041962D01*
X133391962Y-103856013D01*
X133538061Y-103637359D01*
X133638696Y-103394405D01*
X133690000Y-103136486D01*
X133690000Y-102873514D01*
X133638696Y-102615595D01*
X133538061Y-102372641D01*
X133391962Y-102153987D01*
X133206013Y-101968038D01*
X132987359Y-101821939D01*
X132777470Y-101735000D01*
X132987359Y-101648061D01*
X133206013Y-101501962D01*
X133391962Y-101316013D01*
X133538061Y-101097359D01*
X133638696Y-100854405D01*
X133690000Y-100596486D01*
X133690000Y-100333514D01*
X133663442Y-100199999D01*
X153905514Y-100199999D01*
X153886817Y-100276740D01*
X153875610Y-100539473D01*
X153915875Y-100799344D01*
X154006065Y-101046366D01*
X154059963Y-101147203D01*
X154293731Y-101206664D01*
X155035395Y-100465000D01*
X155021253Y-100450858D01*
X155200858Y-100271253D01*
X155215000Y-100285395D01*
X155229143Y-100271253D01*
X155408748Y-100450858D01*
X155394605Y-100465000D01*
X156136269Y-101206664D01*
X156370037Y-101147203D01*
X156480934Y-100908758D01*
X156485706Y-100889173D01*
X156571939Y-101097359D01*
X156718038Y-101316013D01*
X156903987Y-101501962D01*
X157122641Y-101648061D01*
X157332530Y-101735000D01*
X157122641Y-101821939D01*
X156903987Y-101968038D01*
X156718038Y-102153987D01*
X156571939Y-102372641D01*
X156485000Y-102582530D01*
X156398061Y-102372641D01*
X156251962Y-102153987D01*
X156066013Y-101968038D01*
X155847359Y-101821939D01*
X155633556Y-101733379D01*
X155796366Y-101673935D01*
X155897203Y-101620037D01*
X155956664Y-101386269D01*
X155215000Y-100644605D01*
X154473336Y-101386269D01*
X154532797Y-101620037D01*
X154771242Y-101730934D01*
X154790827Y-101735706D01*
X154582641Y-101821939D01*
X154363987Y-101968038D01*
X154178038Y-102153987D01*
X154031939Y-102372641D01*
X153931304Y-102615595D01*
X153880000Y-102873514D01*
X153880000Y-103136486D01*
X153931304Y-103394405D01*
X154031939Y-103637359D01*
X154178038Y-103856013D01*
X154363987Y-104041962D01*
X154582641Y-104188061D01*
X154792530Y-104275000D01*
X154582641Y-104361939D01*
X154363987Y-104508038D01*
X154178038Y-104693987D01*
X154031939Y-104912641D01*
X153931304Y-105155595D01*
X153880000Y-105413514D01*
X153880000Y-105676486D01*
X153931304Y-105934405D01*
X154031939Y-106177359D01*
X154178038Y-106396013D01*
X154363987Y-106581962D01*
X154582641Y-106728061D01*
X154792530Y-106815000D01*
X154582641Y-106901939D01*
X154363987Y-107048038D01*
X154178038Y-107233987D01*
X154031939Y-107452641D01*
X153931304Y-107695595D01*
X153880000Y-107953514D01*
X153880000Y-108216486D01*
X153931304Y-108474405D01*
X154031939Y-108717359D01*
X154178038Y-108936013D01*
X154363987Y-109121962D01*
X154582641Y-109268061D01*
X154825595Y-109368696D01*
X155083514Y-109420000D01*
X155346486Y-109420000D01*
X155604405Y-109368696D01*
X155847359Y-109268061D01*
X156066013Y-109121962D01*
X156251962Y-108936013D01*
X156398061Y-108717359D01*
X156485000Y-108507470D01*
X156571939Y-108717359D01*
X156718038Y-108936013D01*
X156903987Y-109121962D01*
X157122641Y-109268061D01*
X157365595Y-109368696D01*
X157623514Y-109420000D01*
X157886486Y-109420000D01*
X158020001Y-109393442D01*
X158020001Y-117385197D01*
X151303271Y-124101928D01*
X150140000Y-124101928D01*
X150015518Y-124114188D01*
X149895820Y-124150498D01*
X149785506Y-124209463D01*
X149688815Y-124288815D01*
X149609463Y-124385506D01*
X149550498Y-124495820D01*
X149514188Y-124615518D01*
X149501928Y-124740000D01*
X149501928Y-126140000D01*
X149514188Y-126264482D01*
X149550498Y-126384180D01*
X149609463Y-126494494D01*
X149688815Y-126591185D01*
X149785506Y-126670537D01*
X149895820Y-126729502D01*
X150015518Y-126765812D01*
X150140000Y-126778072D01*
X151740000Y-126778072D01*
X151864482Y-126765812D01*
X151984180Y-126729502D01*
X152094494Y-126670537D01*
X152191185Y-126591185D01*
X152270537Y-126494494D01*
X152329502Y-126384180D01*
X152365812Y-126264482D01*
X152378072Y-126140000D01*
X157501928Y-126140000D01*
X157514188Y-126264482D01*
X157550498Y-126384180D01*
X157609463Y-126494494D01*
X157688815Y-126591185D01*
X157785506Y-126670537D01*
X157895820Y-126729502D01*
X158015518Y-126765812D01*
X158140000Y-126778072D01*
X158654250Y-126775000D01*
X158813000Y-126616250D01*
X158813000Y-125567000D01*
X159067000Y-125567000D01*
X159067000Y-126616250D01*
X159225750Y-126775000D01*
X159740000Y-126778072D01*
X159864482Y-126765812D01*
X159984180Y-126729502D01*
X160094494Y-126670537D01*
X160191185Y-126591185D01*
X160270537Y-126494494D01*
X160329502Y-126384180D01*
X160365812Y-126264482D01*
X160378072Y-126140000D01*
X160375000Y-125725750D01*
X160216250Y-125567000D01*
X159067000Y-125567000D01*
X158813000Y-125567000D01*
X157663750Y-125567000D01*
X157505000Y-125725750D01*
X157501928Y-126140000D01*
X152378072Y-126140000D01*
X152378072Y-125176729D01*
X152814801Y-124740000D01*
X157501928Y-124740000D01*
X157505000Y-125154250D01*
X157663750Y-125313000D01*
X158813000Y-125313000D01*
X158813000Y-124263750D01*
X159067000Y-124263750D01*
X159067000Y-125313000D01*
X160216250Y-125313000D01*
X160375000Y-125154250D01*
X160378072Y-124740000D01*
X160365812Y-124615518D01*
X160329502Y-124495820D01*
X160270537Y-124385506D01*
X160191185Y-124288815D01*
X160094494Y-124209463D01*
X159984180Y-124150498D01*
X159864482Y-124114188D01*
X159740000Y-124101928D01*
X159225750Y-124105000D01*
X159067000Y-124263750D01*
X158813000Y-124263750D01*
X158654250Y-124105000D01*
X158140000Y-124101928D01*
X158015518Y-124114188D01*
X157895820Y-124150498D01*
X157785506Y-124209463D01*
X157688815Y-124288815D01*
X157609463Y-124385506D01*
X157550498Y-124495820D01*
X157514188Y-124615518D01*
X157501928Y-124740000D01*
X152814801Y-124740000D01*
X157546804Y-120007998D01*
X157514188Y-120115518D01*
X157501928Y-120240000D01*
X157501928Y-121640000D01*
X157514188Y-121764482D01*
X157550498Y-121884180D01*
X157609463Y-121994494D01*
X157688815Y-122091185D01*
X157785506Y-122170537D01*
X157895820Y-122229502D01*
X158015518Y-122265812D01*
X158140000Y-122278072D01*
X159740000Y-122278072D01*
X159864482Y-122265812D01*
X159984180Y-122229502D01*
X160094494Y-122170537D01*
X160191185Y-122091185D01*
X160270537Y-121994494D01*
X160329502Y-121884180D01*
X160365812Y-121764482D01*
X160378072Y-121640000D01*
X160378072Y-120240000D01*
X160365812Y-120115518D01*
X160329502Y-119995820D01*
X160270537Y-119885506D01*
X160191185Y-119788815D01*
X160094494Y-119709463D01*
X159984180Y-119650498D01*
X159864482Y-119614188D01*
X159740000Y-119601928D01*
X158140000Y-119601928D01*
X158015518Y-119614188D01*
X157907998Y-119646804D01*
X159291005Y-118263797D01*
X159320002Y-118240000D01*
X159414975Y-118124275D01*
X159485547Y-117992246D01*
X159529004Y-117848985D01*
X159540001Y-117737332D01*
X159540001Y-117737324D01*
X159543677Y-117699999D01*
X159540001Y-117662674D01*
X159540001Y-92390322D01*
X159543677Y-92352999D01*
X159540001Y-92315676D01*
X159540001Y-92315666D01*
X159529004Y-92204013D01*
X159485547Y-92060752D01*
X159414975Y-91928723D01*
X159320002Y-91812998D01*
X159291003Y-91789199D01*
X158810804Y-91309001D01*
X158787002Y-91279998D01*
X158721628Y-91226347D01*
X158791962Y-91156013D01*
X158938061Y-90937359D01*
X159038696Y-90694405D01*
X159090000Y-90436486D01*
X159090000Y-90173514D01*
X159038696Y-89915595D01*
X158938061Y-89672641D01*
X158791962Y-89453987D01*
X158606013Y-89268038D01*
X158387359Y-89121939D01*
X158177470Y-89035000D01*
X158387359Y-88948061D01*
X158606013Y-88801962D01*
X158791962Y-88616013D01*
X158938061Y-88397359D01*
X159038696Y-88154405D01*
X159090000Y-87896486D01*
X159090000Y-87633514D01*
X159038696Y-87375595D01*
X158938061Y-87132641D01*
X158791962Y-86913987D01*
X158606013Y-86728038D01*
X158387359Y-86581939D01*
X158173556Y-86493379D01*
X158336366Y-86433935D01*
X158437203Y-86380037D01*
X158496664Y-86146269D01*
X157755000Y-85404605D01*
X157013336Y-86146269D01*
X157072797Y-86380037D01*
X157311242Y-86490934D01*
X157330827Y-86495706D01*
X157122641Y-86581939D01*
X156903987Y-86728038D01*
X156718038Y-86913987D01*
X156571939Y-87132641D01*
X156485000Y-87342530D01*
X156398061Y-87132641D01*
X156251962Y-86913987D01*
X156066013Y-86728038D01*
X155847359Y-86581939D01*
X155637470Y-86495000D01*
X155847359Y-86408061D01*
X156066013Y-86261962D01*
X156251962Y-86076013D01*
X156398061Y-85857359D01*
X156486621Y-85643556D01*
X156546065Y-85806366D01*
X156599963Y-85907203D01*
X156833731Y-85966664D01*
X157575395Y-85225000D01*
X157934605Y-85225000D01*
X158676269Y-85966664D01*
X158910037Y-85907203D01*
X159020934Y-85668758D01*
X159083183Y-85413260D01*
X159094390Y-85150527D01*
X159054125Y-84890656D01*
X158963935Y-84643634D01*
X158910037Y-84542797D01*
X158676269Y-84483336D01*
X157934605Y-85225000D01*
X157575395Y-85225000D01*
X156833731Y-84483336D01*
X156599963Y-84542797D01*
X156489066Y-84781242D01*
X156484294Y-84800827D01*
X156398061Y-84592641D01*
X156251962Y-84373987D01*
X156181706Y-84303731D01*
X157013336Y-84303731D01*
X157755000Y-85045395D01*
X158496664Y-84303731D01*
X158437203Y-84069963D01*
X158198758Y-83959066D01*
X157943260Y-83896817D01*
X157680527Y-83885610D01*
X157420656Y-83925875D01*
X157173634Y-84016065D01*
X157072797Y-84069963D01*
X157013336Y-84303731D01*
X156181706Y-84303731D01*
X156066013Y-84188038D01*
X155847359Y-84041939D01*
X155604405Y-83941304D01*
X155346486Y-83890000D01*
X155083514Y-83890000D01*
X154825595Y-83941304D01*
X154582641Y-84041939D01*
X154363987Y-84188038D01*
X154178038Y-84373987D01*
X154031939Y-84592641D01*
X153931304Y-84835595D01*
X153880000Y-85093514D01*
X153880000Y-85356486D01*
X153931304Y-85614405D01*
X154031939Y-85857359D01*
X154178038Y-86076013D01*
X154363987Y-86261962D01*
X154582641Y-86408061D01*
X154792530Y-86495000D01*
X154582641Y-86581939D01*
X154363987Y-86728038D01*
X154178038Y-86913987D01*
X154031939Y-87132641D01*
X153931304Y-87375595D01*
X153880000Y-87633514D01*
X153880000Y-87896486D01*
X153931304Y-88154405D01*
X154031939Y-88397359D01*
X154178038Y-88616013D01*
X154363987Y-88801962D01*
X154582641Y-88948061D01*
X154792530Y-89035000D01*
X154582641Y-89121939D01*
X154363987Y-89268038D01*
X154178038Y-89453987D01*
X154031939Y-89672641D01*
X153931304Y-89915595D01*
X153880000Y-90173514D01*
X153880000Y-90436486D01*
X153931304Y-90694405D01*
X154031939Y-90937359D01*
X154178038Y-91156013D01*
X154363987Y-91341962D01*
X154582641Y-91488061D01*
X154792530Y-91575000D01*
X154582641Y-91661939D01*
X154363987Y-91808038D01*
X154178038Y-91993987D01*
X154031939Y-92212641D01*
X153931304Y-92455595D01*
X153880000Y-92713514D01*
X153880000Y-92976486D01*
X153931304Y-93234405D01*
X154031939Y-93477359D01*
X154178038Y-93696013D01*
X154363987Y-93881962D01*
X154582641Y-94028061D01*
X154792530Y-94115000D01*
X154582641Y-94201939D01*
X154363987Y-94348038D01*
X154178038Y-94533987D01*
X154031939Y-94752641D01*
X153931304Y-94995595D01*
X153880000Y-95253514D01*
X153880000Y-95516486D01*
X153931304Y-95774405D01*
X154031939Y-96017359D01*
X154178038Y-96236013D01*
X154363987Y-96421962D01*
X154582641Y-96568061D01*
X154792530Y-96655000D01*
X154582641Y-96741939D01*
X154363987Y-96888038D01*
X154178038Y-97073987D01*
X154031939Y-97292641D01*
X153931304Y-97535595D01*
X153880000Y-97793514D01*
X153880000Y-98056486D01*
X153931304Y-98314405D01*
X154031939Y-98557359D01*
X154113884Y-98679999D01*
X133456116Y-98679999D01*
X133538061Y-98557359D01*
X133638696Y-98314405D01*
X133690000Y-98056486D01*
X133690000Y-97793514D01*
X133638696Y-97535595D01*
X133538061Y-97292641D01*
X133391962Y-97073987D01*
X133206013Y-96888038D01*
X132987359Y-96741939D01*
X132777470Y-96655000D01*
X132987359Y-96568061D01*
X133206013Y-96421962D01*
X133391962Y-96236013D01*
X133538061Y-96017359D01*
X133638696Y-95774405D01*
X133690000Y-95516486D01*
X133690000Y-95253514D01*
X133638696Y-94995595D01*
X133538061Y-94752641D01*
X133391962Y-94533987D01*
X133206013Y-94348038D01*
X132987359Y-94201939D01*
X132777470Y-94115000D01*
X132987359Y-94028061D01*
X133206013Y-93881962D01*
X133391962Y-93696013D01*
X133538061Y-93477359D01*
X133638696Y-93234405D01*
X133690000Y-92976486D01*
X133690000Y-92713514D01*
X133638696Y-92455595D01*
X133538061Y-92212641D01*
X133391962Y-91993987D01*
X133206013Y-91808038D01*
X132987359Y-91661939D01*
X132777470Y-91575000D01*
X132987359Y-91488061D01*
X133206013Y-91341962D01*
X133391962Y-91156013D01*
X133538061Y-90937359D01*
X133638696Y-90694405D01*
X133690000Y-90436486D01*
X133690000Y-90173514D01*
X133638696Y-89915595D01*
X133538061Y-89672641D01*
X133391962Y-89453987D01*
X133206013Y-89268038D01*
X132987359Y-89121939D01*
X132777470Y-89035000D01*
X132987359Y-88948061D01*
X133206013Y-88801962D01*
X133391962Y-88616013D01*
X133538061Y-88397359D01*
X133638696Y-88154405D01*
X133690000Y-87896486D01*
X133690000Y-87633514D01*
X133638696Y-87375595D01*
X133538061Y-87132641D01*
X133391962Y-86913987D01*
X133206013Y-86728038D01*
X132987359Y-86581939D01*
X132777470Y-86495000D01*
X132987359Y-86408061D01*
X133206013Y-86261962D01*
X133391962Y-86076013D01*
X133538061Y-85857359D01*
X133638696Y-85614405D01*
X133690000Y-85356486D01*
X133690000Y-85093514D01*
X133638696Y-84835595D01*
X133538061Y-84592641D01*
X133391962Y-84373987D01*
X133206013Y-84188038D01*
X132987359Y-84041939D01*
X132744405Y-83941304D01*
X132486486Y-83890000D01*
X132223514Y-83890000D01*
X131965595Y-83941304D01*
X131722641Y-84041939D01*
X131503987Y-84188038D01*
X131318038Y-84373987D01*
X131171939Y-84592641D01*
X131083379Y-84806444D01*
X131023935Y-84643634D01*
X130970037Y-84542797D01*
X130736269Y-84483336D01*
X129994605Y-85225000D01*
X130736269Y-85966664D01*
X130970037Y-85907203D01*
X131080934Y-85668758D01*
X131085706Y-85649173D01*
X131171939Y-85857359D01*
X131318038Y-86076013D01*
X131503987Y-86261962D01*
X131722641Y-86408061D01*
X131932530Y-86495000D01*
X131722641Y-86581939D01*
X131503987Y-86728038D01*
X131318038Y-86913987D01*
X131171939Y-87132641D01*
X131085000Y-87342530D01*
X130998061Y-87132641D01*
X130851962Y-86913987D01*
X130666013Y-86728038D01*
X130447359Y-86581939D01*
X130233556Y-86493379D01*
X130396366Y-86433935D01*
X130497203Y-86380037D01*
X130556664Y-86146269D01*
X129815000Y-85404605D01*
X129073336Y-86146269D01*
X129132797Y-86380037D01*
X129371242Y-86490934D01*
X129390827Y-86495706D01*
X129182641Y-86581939D01*
X128963987Y-86728038D01*
X128778038Y-86913987D01*
X128631939Y-87132641D01*
X128531304Y-87375595D01*
X128480000Y-87633514D01*
X128480000Y-87896486D01*
X128531304Y-88154405D01*
X128631939Y-88397359D01*
X128778038Y-88616013D01*
X128963987Y-88801962D01*
X129182641Y-88948061D01*
X129392530Y-89035000D01*
X129182641Y-89121939D01*
X128963987Y-89268038D01*
X128778038Y-89453987D01*
X128631939Y-89672641D01*
X128531304Y-89915595D01*
X128480000Y-90173514D01*
X128480000Y-90436486D01*
X128531304Y-90694405D01*
X128631939Y-90937359D01*
X128778038Y-91156013D01*
X128963987Y-91341962D01*
X129182641Y-91488061D01*
X129392530Y-91575000D01*
X129182641Y-91661939D01*
X128963987Y-91808038D01*
X128778038Y-91993987D01*
X128631939Y-92212641D01*
X128531304Y-92455595D01*
X128480000Y-92713514D01*
X128480000Y-92976486D01*
X128531304Y-93234405D01*
X128631939Y-93477359D01*
X128778038Y-93696013D01*
X128963987Y-93881962D01*
X129182641Y-94028061D01*
X129392530Y-94115000D01*
X129182641Y-94201939D01*
X128963987Y-94348038D01*
X128778038Y-94533987D01*
X128631939Y-94752641D01*
X128531304Y-94995595D01*
X128480000Y-95253514D01*
X128480000Y-95516486D01*
X128531304Y-95774405D01*
X128631939Y-96017359D01*
X128778038Y-96236013D01*
X128963987Y-96421962D01*
X129182641Y-96568061D01*
X129392530Y-96655000D01*
X129182641Y-96741939D01*
X128963987Y-96888038D01*
X128778038Y-97073987D01*
X128631939Y-97292641D01*
X128531304Y-97535595D01*
X128480000Y-97793514D01*
X128480000Y-98056486D01*
X128531304Y-98314405D01*
X128631939Y-98557359D01*
X128713884Y-98679999D01*
X127927323Y-98679999D01*
X127890000Y-98676323D01*
X127852677Y-98679999D01*
X127852668Y-98679999D01*
X127741015Y-98690996D01*
X127597754Y-98734453D01*
X127465725Y-98805025D01*
X127465723Y-98805026D01*
X127465724Y-98805026D01*
X127378997Y-98876200D01*
X127378993Y-98876204D01*
X127350000Y-98899998D01*
X127326206Y-98928991D01*
X126488998Y-99766201D01*
X126460000Y-99789999D01*
X126436202Y-99818997D01*
X126436201Y-99818998D01*
X126365026Y-99905724D01*
X126294454Y-100037754D01*
X126250998Y-100181015D01*
X126236324Y-100330000D01*
X126240001Y-100367333D01*
X126240000Y-120281928D01*
X126000000Y-120281928D01*
X125875518Y-120294188D01*
X125755820Y-120330498D01*
X125645506Y-120389463D01*
X125548815Y-120468815D01*
X125469463Y-120565506D01*
X125410498Y-120675820D01*
X125374188Y-120795518D01*
X125361928Y-120920000D01*
X124587000Y-120920000D01*
X124587000Y-85299473D01*
X128475610Y-85299473D01*
X128515875Y-85559344D01*
X128606065Y-85806366D01*
X128659963Y-85907203D01*
X128893731Y-85966664D01*
X129635395Y-85225000D01*
X128893731Y-84483336D01*
X128659963Y-84542797D01*
X128549066Y-84781242D01*
X128486817Y-85036740D01*
X128475610Y-85299473D01*
X124587000Y-85299473D01*
X124587000Y-84303731D01*
X129073336Y-84303731D01*
X129815000Y-85045395D01*
X130556664Y-84303731D01*
X130497203Y-84069963D01*
X130258758Y-83959066D01*
X130003260Y-83896817D01*
X129740527Y-83885610D01*
X129480656Y-83925875D01*
X129233634Y-84016065D01*
X129132797Y-84069963D01*
X129073336Y-84303731D01*
X124587000Y-84303731D01*
X124587000Y-76327000D01*
X161163000Y-76327000D01*
X161163000Y-128143000D01*
%TA.AperFunction,Conductor*%
D16*
G36*
X161163000Y-128143000D02*
G01*
X124587000Y-128143000D01*
X124587000Y-120920000D01*
X125361928Y-120920000D01*
X125361928Y-122920000D01*
X125374188Y-123044482D01*
X125410498Y-123164180D01*
X125469463Y-123274494D01*
X125548815Y-123371185D01*
X125645506Y-123450537D01*
X125755820Y-123509502D01*
X125875518Y-123545812D01*
X126000000Y-123558072D01*
X128000000Y-123558072D01*
X128124482Y-123545812D01*
X128244180Y-123509502D01*
X128354494Y-123450537D01*
X128451185Y-123371185D01*
X128530537Y-123274494D01*
X128589502Y-123164180D01*
X128622496Y-123055413D01*
X133644192Y-123055413D01*
X133739956Y-123319814D01*
X134029571Y-123460704D01*
X134341108Y-123542384D01*
X134662595Y-123561718D01*
X134981675Y-123517961D01*
X135286088Y-123412795D01*
X135460044Y-123319814D01*
X135555808Y-123055413D01*
X134600000Y-122099605D01*
X133644192Y-123055413D01*
X128622496Y-123055413D01*
X128625812Y-123044482D01*
X128638072Y-122920000D01*
X128638072Y-121982595D01*
X132958282Y-121982595D01*
X133002039Y-122301675D01*
X133107205Y-122606088D01*
X133200186Y-122780044D01*
X133464587Y-122875808D01*
X134420395Y-121920000D01*
X134779605Y-121920000D01*
X135735413Y-122875808D01*
X135999814Y-122780044D01*
X136140704Y-122490429D01*
X136222384Y-122178892D01*
X136241718Y-121857405D01*
X136197961Y-121538325D01*
X136092795Y-121233912D01*
X135999814Y-121059956D01*
X135735413Y-120964192D01*
X134779605Y-121920000D01*
X134420395Y-121920000D01*
X133464587Y-120964192D01*
X133200186Y-121059956D01*
X133059296Y-121349571D01*
X132977616Y-121661108D01*
X132958282Y-121982595D01*
X128638072Y-121982595D01*
X128638072Y-120920000D01*
X128625812Y-120795518D01*
X128622497Y-120784587D01*
X133644192Y-120784587D01*
X134600000Y-121740395D01*
X135555808Y-120784587D01*
X135460044Y-120520186D01*
X135170429Y-120379296D01*
X134858892Y-120297616D01*
X134537405Y-120278282D01*
X134218325Y-120322039D01*
X133913912Y-120427205D01*
X133739956Y-120520186D01*
X133644192Y-120784587D01*
X128622497Y-120784587D01*
X128589502Y-120675820D01*
X128530537Y-120565506D01*
X128451185Y-120468815D01*
X128354494Y-120389463D01*
X128244180Y-120330498D01*
X128124482Y-120294188D01*
X128000000Y-120281928D01*
X127760000Y-120281928D01*
X127760000Y-120240000D01*
X149501928Y-120240000D01*
X149501928Y-121640000D01*
X149514188Y-121764482D01*
X149550498Y-121884180D01*
X149609463Y-121994494D01*
X149688815Y-122091185D01*
X149785506Y-122170537D01*
X149895820Y-122229502D01*
X150015518Y-122265812D01*
X150140000Y-122278072D01*
X151740000Y-122278072D01*
X151864482Y-122265812D01*
X151984180Y-122229502D01*
X152094494Y-122170537D01*
X152191185Y-122091185D01*
X152270537Y-121994494D01*
X152329502Y-121884180D01*
X152365812Y-121764482D01*
X152378072Y-121640000D01*
X152378072Y-120240000D01*
X152365812Y-120115518D01*
X152329502Y-119995820D01*
X152270537Y-119885506D01*
X152191185Y-119788815D01*
X152094494Y-119709463D01*
X151984180Y-119650498D01*
X151864482Y-119614188D01*
X151740000Y-119601928D01*
X150140000Y-119601928D01*
X150015518Y-119614188D01*
X149895820Y-119650498D01*
X149785506Y-119709463D01*
X149688815Y-119788815D01*
X149609463Y-119885506D01*
X149550498Y-119995820D01*
X149514188Y-120115518D01*
X149501928Y-120240000D01*
X127760000Y-120240000D01*
X127760000Y-100644802D01*
X128204803Y-100199999D01*
X128506558Y-100199999D01*
X128480000Y-100333514D01*
X128480000Y-100596486D01*
X128531304Y-100854405D01*
X128631939Y-101097359D01*
X128778038Y-101316013D01*
X128963987Y-101501962D01*
X129182641Y-101648061D01*
X129392530Y-101735000D01*
X129182641Y-101821939D01*
X128963987Y-101968038D01*
X128778038Y-102153987D01*
X128631939Y-102372641D01*
X128531304Y-102615595D01*
X128480000Y-102873514D01*
X128480000Y-103136486D01*
X128531304Y-103394405D01*
X128631939Y-103637359D01*
X128778038Y-103856013D01*
X128963987Y-104041962D01*
X129182641Y-104188061D01*
X129392530Y-104275000D01*
X129182641Y-104361939D01*
X128963987Y-104508038D01*
X128778038Y-104693987D01*
X128631939Y-104912641D01*
X128531304Y-105155595D01*
X128480000Y-105413514D01*
X128480000Y-105676486D01*
X128531304Y-105934405D01*
X128631939Y-106177359D01*
X128778038Y-106396013D01*
X128963987Y-106581962D01*
X129182641Y-106728061D01*
X129392530Y-106815000D01*
X129182641Y-106901939D01*
X128963987Y-107048038D01*
X128778038Y-107233987D01*
X128631939Y-107452641D01*
X128531304Y-107695595D01*
X128480000Y-107953514D01*
X128480000Y-108216486D01*
X128531304Y-108474405D01*
X128631939Y-108717359D01*
X128778038Y-108936013D01*
X128963987Y-109121962D01*
X129182641Y-109268061D01*
X129425595Y-109368696D01*
X129683514Y-109420000D01*
X129946486Y-109420000D01*
X130204405Y-109368696D01*
X130447359Y-109268061D01*
X130666013Y-109121962D01*
X130851962Y-108936013D01*
X130998061Y-108717359D01*
X131085000Y-108507470D01*
X131171939Y-108717359D01*
X131318038Y-108936013D01*
X131503987Y-109121962D01*
X131722641Y-109268061D01*
X131965595Y-109368696D01*
X132223514Y-109420000D01*
X132486486Y-109420000D01*
X132744405Y-109368696D01*
X132987359Y-109268061D01*
X133206013Y-109121962D01*
X133391962Y-108936013D01*
X133538061Y-108717359D01*
X133638696Y-108474405D01*
X133690000Y-108216486D01*
X133690000Y-107953514D01*
X133638696Y-107695595D01*
X133538061Y-107452641D01*
X133391962Y-107233987D01*
X133206013Y-107048038D01*
X132987359Y-106901939D01*
X132777470Y-106815000D01*
X132987359Y-106728061D01*
X133206013Y-106581962D01*
X133391962Y-106396013D01*
X133538061Y-106177359D01*
X133638696Y-105934405D01*
X133690000Y-105676486D01*
X133690000Y-105413514D01*
X133638696Y-105155595D01*
X133538061Y-104912641D01*
X133391962Y-104693987D01*
X133206013Y-104508038D01*
X132987359Y-104361939D01*
X132777470Y-104275000D01*
X132987359Y-104188061D01*
X133206013Y-104041962D01*
X133391962Y-103856013D01*
X133538061Y-103637359D01*
X133638696Y-103394405D01*
X133690000Y-103136486D01*
X133690000Y-102873514D01*
X133638696Y-102615595D01*
X133538061Y-102372641D01*
X133391962Y-102153987D01*
X133206013Y-101968038D01*
X132987359Y-101821939D01*
X132777470Y-101735000D01*
X132987359Y-101648061D01*
X133206013Y-101501962D01*
X133391962Y-101316013D01*
X133538061Y-101097359D01*
X133638696Y-100854405D01*
X133690000Y-100596486D01*
X133690000Y-100333514D01*
X133663442Y-100199999D01*
X153905514Y-100199999D01*
X153886817Y-100276740D01*
X153875610Y-100539473D01*
X153915875Y-100799344D01*
X154006065Y-101046366D01*
X154059963Y-101147203D01*
X154293731Y-101206664D01*
X155035395Y-100465000D01*
X155021253Y-100450858D01*
X155200858Y-100271253D01*
X155215000Y-100285395D01*
X155229143Y-100271253D01*
X155408748Y-100450858D01*
X155394605Y-100465000D01*
X156136269Y-101206664D01*
X156370037Y-101147203D01*
X156480934Y-100908758D01*
X156485706Y-100889173D01*
X156571939Y-101097359D01*
X156718038Y-101316013D01*
X156903987Y-101501962D01*
X157122641Y-101648061D01*
X157332530Y-101735000D01*
X157122641Y-101821939D01*
X156903987Y-101968038D01*
X156718038Y-102153987D01*
X156571939Y-102372641D01*
X156485000Y-102582530D01*
X156398061Y-102372641D01*
X156251962Y-102153987D01*
X156066013Y-101968038D01*
X155847359Y-101821939D01*
X155633556Y-101733379D01*
X155796366Y-101673935D01*
X155897203Y-101620037D01*
X155956664Y-101386269D01*
X155215000Y-100644605D01*
X154473336Y-101386269D01*
X154532797Y-101620037D01*
X154771242Y-101730934D01*
X154790827Y-101735706D01*
X154582641Y-101821939D01*
X154363987Y-101968038D01*
X154178038Y-102153987D01*
X154031939Y-102372641D01*
X153931304Y-102615595D01*
X153880000Y-102873514D01*
X153880000Y-103136486D01*
X153931304Y-103394405D01*
X154031939Y-103637359D01*
X154178038Y-103856013D01*
X154363987Y-104041962D01*
X154582641Y-104188061D01*
X154792530Y-104275000D01*
X154582641Y-104361939D01*
X154363987Y-104508038D01*
X154178038Y-104693987D01*
X154031939Y-104912641D01*
X153931304Y-105155595D01*
X153880000Y-105413514D01*
X153880000Y-105676486D01*
X153931304Y-105934405D01*
X154031939Y-106177359D01*
X154178038Y-106396013D01*
X154363987Y-106581962D01*
X154582641Y-106728061D01*
X154792530Y-106815000D01*
X154582641Y-106901939D01*
X154363987Y-107048038D01*
X154178038Y-107233987D01*
X154031939Y-107452641D01*
X153931304Y-107695595D01*
X153880000Y-107953514D01*
X153880000Y-108216486D01*
X153931304Y-108474405D01*
X154031939Y-108717359D01*
X154178038Y-108936013D01*
X154363987Y-109121962D01*
X154582641Y-109268061D01*
X154825595Y-109368696D01*
X155083514Y-109420000D01*
X155346486Y-109420000D01*
X155604405Y-109368696D01*
X155847359Y-109268061D01*
X156066013Y-109121962D01*
X156251962Y-108936013D01*
X156398061Y-108717359D01*
X156485000Y-108507470D01*
X156571939Y-108717359D01*
X156718038Y-108936013D01*
X156903987Y-109121962D01*
X157122641Y-109268061D01*
X157365595Y-109368696D01*
X157623514Y-109420000D01*
X157886486Y-109420000D01*
X158020001Y-109393442D01*
X158020001Y-117385197D01*
X151303271Y-124101928D01*
X150140000Y-124101928D01*
X150015518Y-124114188D01*
X149895820Y-124150498D01*
X149785506Y-124209463D01*
X149688815Y-124288815D01*
X149609463Y-124385506D01*
X149550498Y-124495820D01*
X149514188Y-124615518D01*
X149501928Y-124740000D01*
X149501928Y-126140000D01*
X149514188Y-126264482D01*
X149550498Y-126384180D01*
X149609463Y-126494494D01*
X149688815Y-126591185D01*
X149785506Y-126670537D01*
X149895820Y-126729502D01*
X150015518Y-126765812D01*
X150140000Y-126778072D01*
X151740000Y-126778072D01*
X151864482Y-126765812D01*
X151984180Y-126729502D01*
X152094494Y-126670537D01*
X152191185Y-126591185D01*
X152270537Y-126494494D01*
X152329502Y-126384180D01*
X152365812Y-126264482D01*
X152378072Y-126140000D01*
X157501928Y-126140000D01*
X157514188Y-126264482D01*
X157550498Y-126384180D01*
X157609463Y-126494494D01*
X157688815Y-126591185D01*
X157785506Y-126670537D01*
X157895820Y-126729502D01*
X158015518Y-126765812D01*
X158140000Y-126778072D01*
X158654250Y-126775000D01*
X158813000Y-126616250D01*
X158813000Y-125567000D01*
X159067000Y-125567000D01*
X159067000Y-126616250D01*
X159225750Y-126775000D01*
X159740000Y-126778072D01*
X159864482Y-126765812D01*
X159984180Y-126729502D01*
X160094494Y-126670537D01*
X160191185Y-126591185D01*
X160270537Y-126494494D01*
X160329502Y-126384180D01*
X160365812Y-126264482D01*
X160378072Y-126140000D01*
X160375000Y-125725750D01*
X160216250Y-125567000D01*
X159067000Y-125567000D01*
X158813000Y-125567000D01*
X157663750Y-125567000D01*
X157505000Y-125725750D01*
X157501928Y-126140000D01*
X152378072Y-126140000D01*
X152378072Y-125176729D01*
X152814801Y-124740000D01*
X157501928Y-124740000D01*
X157505000Y-125154250D01*
X157663750Y-125313000D01*
X158813000Y-125313000D01*
X158813000Y-124263750D01*
X159067000Y-124263750D01*
X159067000Y-125313000D01*
X160216250Y-125313000D01*
X160375000Y-125154250D01*
X160378072Y-124740000D01*
X160365812Y-124615518D01*
X160329502Y-124495820D01*
X160270537Y-124385506D01*
X160191185Y-124288815D01*
X160094494Y-124209463D01*
X159984180Y-124150498D01*
X159864482Y-124114188D01*
X159740000Y-124101928D01*
X159225750Y-124105000D01*
X159067000Y-124263750D01*
X158813000Y-124263750D01*
X158654250Y-124105000D01*
X158140000Y-124101928D01*
X158015518Y-124114188D01*
X157895820Y-124150498D01*
X157785506Y-124209463D01*
X157688815Y-124288815D01*
X157609463Y-124385506D01*
X157550498Y-124495820D01*
X157514188Y-124615518D01*
X157501928Y-124740000D01*
X152814801Y-124740000D01*
X157546804Y-120007998D01*
X157514188Y-120115518D01*
X157501928Y-120240000D01*
X157501928Y-121640000D01*
X157514188Y-121764482D01*
X157550498Y-121884180D01*
X157609463Y-121994494D01*
X157688815Y-122091185D01*
X157785506Y-122170537D01*
X157895820Y-122229502D01*
X158015518Y-122265812D01*
X158140000Y-122278072D01*
X159740000Y-122278072D01*
X159864482Y-122265812D01*
X159984180Y-122229502D01*
X160094494Y-122170537D01*
X160191185Y-122091185D01*
X160270537Y-121994494D01*
X160329502Y-121884180D01*
X160365812Y-121764482D01*
X160378072Y-121640000D01*
X160378072Y-120240000D01*
X160365812Y-120115518D01*
X160329502Y-119995820D01*
X160270537Y-119885506D01*
X160191185Y-119788815D01*
X160094494Y-119709463D01*
X159984180Y-119650498D01*
X159864482Y-119614188D01*
X159740000Y-119601928D01*
X158140000Y-119601928D01*
X158015518Y-119614188D01*
X157907998Y-119646804D01*
X159291005Y-118263797D01*
X159320002Y-118240000D01*
X159414975Y-118124275D01*
X159485547Y-117992246D01*
X159529004Y-117848985D01*
X159540001Y-117737332D01*
X159540001Y-117737324D01*
X159543677Y-117699999D01*
X159540001Y-117662674D01*
X159540001Y-92390322D01*
X159543677Y-92352999D01*
X159540001Y-92315676D01*
X159540001Y-92315666D01*
X159529004Y-92204013D01*
X159485547Y-92060752D01*
X159414975Y-91928723D01*
X159320002Y-91812998D01*
X159291003Y-91789199D01*
X158810804Y-91309001D01*
X158787002Y-91279998D01*
X158721628Y-91226347D01*
X158791962Y-91156013D01*
X158938061Y-90937359D01*
X159038696Y-90694405D01*
X159090000Y-90436486D01*
X159090000Y-90173514D01*
X159038696Y-89915595D01*
X158938061Y-89672641D01*
X158791962Y-89453987D01*
X158606013Y-89268038D01*
X158387359Y-89121939D01*
X158177470Y-89035000D01*
X158387359Y-88948061D01*
X158606013Y-88801962D01*
X158791962Y-88616013D01*
X158938061Y-88397359D01*
X159038696Y-88154405D01*
X159090000Y-87896486D01*
X159090000Y-87633514D01*
X159038696Y-87375595D01*
X158938061Y-87132641D01*
X158791962Y-86913987D01*
X158606013Y-86728038D01*
X158387359Y-86581939D01*
X158173556Y-86493379D01*
X158336366Y-86433935D01*
X158437203Y-86380037D01*
X158496664Y-86146269D01*
X157755000Y-85404605D01*
X157013336Y-86146269D01*
X157072797Y-86380037D01*
X157311242Y-86490934D01*
X157330827Y-86495706D01*
X157122641Y-86581939D01*
X156903987Y-86728038D01*
X156718038Y-86913987D01*
X156571939Y-87132641D01*
X156485000Y-87342530D01*
X156398061Y-87132641D01*
X156251962Y-86913987D01*
X156066013Y-86728038D01*
X155847359Y-86581939D01*
X155637470Y-86495000D01*
X155847359Y-86408061D01*
X156066013Y-86261962D01*
X156251962Y-86076013D01*
X156398061Y-85857359D01*
X156486621Y-85643556D01*
X156546065Y-85806366D01*
X156599963Y-85907203D01*
X156833731Y-85966664D01*
X157575395Y-85225000D01*
X157934605Y-85225000D01*
X158676269Y-85966664D01*
X158910037Y-85907203D01*
X159020934Y-85668758D01*
X159083183Y-85413260D01*
X159094390Y-85150527D01*
X159054125Y-84890656D01*
X158963935Y-84643634D01*
X158910037Y-84542797D01*
X158676269Y-84483336D01*
X157934605Y-85225000D01*
X157575395Y-85225000D01*
X156833731Y-84483336D01*
X156599963Y-84542797D01*
X156489066Y-84781242D01*
X156484294Y-84800827D01*
X156398061Y-84592641D01*
X156251962Y-84373987D01*
X156181706Y-84303731D01*
X157013336Y-84303731D01*
X157755000Y-85045395D01*
X158496664Y-84303731D01*
X158437203Y-84069963D01*
X158198758Y-83959066D01*
X157943260Y-83896817D01*
X157680527Y-83885610D01*
X157420656Y-83925875D01*
X157173634Y-84016065D01*
X157072797Y-84069963D01*
X157013336Y-84303731D01*
X156181706Y-84303731D01*
X156066013Y-84188038D01*
X155847359Y-84041939D01*
X155604405Y-83941304D01*
X155346486Y-83890000D01*
X155083514Y-83890000D01*
X154825595Y-83941304D01*
X154582641Y-84041939D01*
X154363987Y-84188038D01*
X154178038Y-84373987D01*
X154031939Y-84592641D01*
X153931304Y-84835595D01*
X153880000Y-85093514D01*
X153880000Y-85356486D01*
X153931304Y-85614405D01*
X154031939Y-85857359D01*
X154178038Y-86076013D01*
X154363987Y-86261962D01*
X154582641Y-86408061D01*
X154792530Y-86495000D01*
X154582641Y-86581939D01*
X154363987Y-86728038D01*
X154178038Y-86913987D01*
X154031939Y-87132641D01*
X153931304Y-87375595D01*
X153880000Y-87633514D01*
X153880000Y-87896486D01*
X153931304Y-88154405D01*
X154031939Y-88397359D01*
X154178038Y-88616013D01*
X154363987Y-88801962D01*
X154582641Y-88948061D01*
X154792530Y-89035000D01*
X154582641Y-89121939D01*
X154363987Y-89268038D01*
X154178038Y-89453987D01*
X154031939Y-89672641D01*
X153931304Y-89915595D01*
X153880000Y-90173514D01*
X153880000Y-90436486D01*
X153931304Y-90694405D01*
X154031939Y-90937359D01*
X154178038Y-91156013D01*
X154363987Y-91341962D01*
X154582641Y-91488061D01*
X154792530Y-91575000D01*
X154582641Y-91661939D01*
X154363987Y-91808038D01*
X154178038Y-91993987D01*
X154031939Y-92212641D01*
X153931304Y-92455595D01*
X153880000Y-92713514D01*
X153880000Y-92976486D01*
X153931304Y-93234405D01*
X154031939Y-93477359D01*
X154178038Y-93696013D01*
X154363987Y-93881962D01*
X154582641Y-94028061D01*
X154792530Y-94115000D01*
X154582641Y-94201939D01*
X154363987Y-94348038D01*
X154178038Y-94533987D01*
X154031939Y-94752641D01*
X153931304Y-94995595D01*
X153880000Y-95253514D01*
X153880000Y-95516486D01*
X153931304Y-95774405D01*
X154031939Y-96017359D01*
X154178038Y-96236013D01*
X154363987Y-96421962D01*
X154582641Y-96568061D01*
X154792530Y-96655000D01*
X154582641Y-96741939D01*
X154363987Y-96888038D01*
X154178038Y-97073987D01*
X154031939Y-97292641D01*
X153931304Y-97535595D01*
X153880000Y-97793514D01*
X153880000Y-98056486D01*
X153931304Y-98314405D01*
X154031939Y-98557359D01*
X154113884Y-98679999D01*
X133456116Y-98679999D01*
X133538061Y-98557359D01*
X133638696Y-98314405D01*
X133690000Y-98056486D01*
X133690000Y-97793514D01*
X133638696Y-97535595D01*
X133538061Y-97292641D01*
X133391962Y-97073987D01*
X133206013Y-96888038D01*
X132987359Y-96741939D01*
X132777470Y-96655000D01*
X132987359Y-96568061D01*
X133206013Y-96421962D01*
X133391962Y-96236013D01*
X133538061Y-96017359D01*
X133638696Y-95774405D01*
X133690000Y-95516486D01*
X133690000Y-95253514D01*
X133638696Y-94995595D01*
X133538061Y-94752641D01*
X133391962Y-94533987D01*
X133206013Y-94348038D01*
X132987359Y-94201939D01*
X132777470Y-94115000D01*
X132987359Y-94028061D01*
X133206013Y-93881962D01*
X133391962Y-93696013D01*
X133538061Y-93477359D01*
X133638696Y-93234405D01*
X133690000Y-92976486D01*
X133690000Y-92713514D01*
X133638696Y-92455595D01*
X133538061Y-92212641D01*
X133391962Y-91993987D01*
X133206013Y-91808038D01*
X132987359Y-91661939D01*
X132777470Y-91575000D01*
X132987359Y-91488061D01*
X133206013Y-91341962D01*
X133391962Y-91156013D01*
X133538061Y-90937359D01*
X133638696Y-90694405D01*
X133690000Y-90436486D01*
X133690000Y-90173514D01*
X133638696Y-89915595D01*
X133538061Y-89672641D01*
X133391962Y-89453987D01*
X133206013Y-89268038D01*
X132987359Y-89121939D01*
X132777470Y-89035000D01*
X132987359Y-88948061D01*
X133206013Y-88801962D01*
X133391962Y-88616013D01*
X133538061Y-88397359D01*
X133638696Y-88154405D01*
X133690000Y-87896486D01*
X133690000Y-87633514D01*
X133638696Y-87375595D01*
X133538061Y-87132641D01*
X133391962Y-86913987D01*
X133206013Y-86728038D01*
X132987359Y-86581939D01*
X132777470Y-86495000D01*
X132987359Y-86408061D01*
X133206013Y-86261962D01*
X133391962Y-86076013D01*
X133538061Y-85857359D01*
X133638696Y-85614405D01*
X133690000Y-85356486D01*
X133690000Y-85093514D01*
X133638696Y-84835595D01*
X133538061Y-84592641D01*
X133391962Y-84373987D01*
X133206013Y-84188038D01*
X132987359Y-84041939D01*
X132744405Y-83941304D01*
X132486486Y-83890000D01*
X132223514Y-83890000D01*
X131965595Y-83941304D01*
X131722641Y-84041939D01*
X131503987Y-84188038D01*
X131318038Y-84373987D01*
X131171939Y-84592641D01*
X131083379Y-84806444D01*
X131023935Y-84643634D01*
X130970037Y-84542797D01*
X130736269Y-84483336D01*
X129994605Y-85225000D01*
X130736269Y-85966664D01*
X130970037Y-85907203D01*
X131080934Y-85668758D01*
X131085706Y-85649173D01*
X131171939Y-85857359D01*
X131318038Y-86076013D01*
X131503987Y-86261962D01*
X131722641Y-86408061D01*
X131932530Y-86495000D01*
X131722641Y-86581939D01*
X131503987Y-86728038D01*
X131318038Y-86913987D01*
X131171939Y-87132641D01*
X131085000Y-87342530D01*
X130998061Y-87132641D01*
X130851962Y-86913987D01*
X130666013Y-86728038D01*
X130447359Y-86581939D01*
X130233556Y-86493379D01*
X130396366Y-86433935D01*
X130497203Y-86380037D01*
X130556664Y-86146269D01*
X129815000Y-85404605D01*
X129073336Y-86146269D01*
X129132797Y-86380037D01*
X129371242Y-86490934D01*
X129390827Y-86495706D01*
X129182641Y-86581939D01*
X128963987Y-86728038D01*
X128778038Y-86913987D01*
X128631939Y-87132641D01*
X128531304Y-87375595D01*
X128480000Y-87633514D01*
X128480000Y-87896486D01*
X128531304Y-88154405D01*
X128631939Y-88397359D01*
X128778038Y-88616013D01*
X128963987Y-88801962D01*
X129182641Y-88948061D01*
X129392530Y-89035000D01*
X129182641Y-89121939D01*
X128963987Y-89268038D01*
X128778038Y-89453987D01*
X128631939Y-89672641D01*
X128531304Y-89915595D01*
X128480000Y-90173514D01*
X128480000Y-90436486D01*
X128531304Y-90694405D01*
X128631939Y-90937359D01*
X128778038Y-91156013D01*
X128963987Y-91341962D01*
X129182641Y-91488061D01*
X129392530Y-91575000D01*
X129182641Y-91661939D01*
X128963987Y-91808038D01*
X128778038Y-91993987D01*
X128631939Y-92212641D01*
X128531304Y-92455595D01*
X128480000Y-92713514D01*
X128480000Y-92976486D01*
X128531304Y-93234405D01*
X128631939Y-93477359D01*
X128778038Y-93696013D01*
X128963987Y-93881962D01*
X129182641Y-94028061D01*
X129392530Y-94115000D01*
X129182641Y-94201939D01*
X128963987Y-94348038D01*
X128778038Y-94533987D01*
X128631939Y-94752641D01*
X128531304Y-94995595D01*
X128480000Y-95253514D01*
X128480000Y-95516486D01*
X128531304Y-95774405D01*
X128631939Y-96017359D01*
X128778038Y-96236013D01*
X128963987Y-96421962D01*
X129182641Y-96568061D01*
X129392530Y-96655000D01*
X129182641Y-96741939D01*
X128963987Y-96888038D01*
X128778038Y-97073987D01*
X128631939Y-97292641D01*
X128531304Y-97535595D01*
X128480000Y-97793514D01*
X128480000Y-98056486D01*
X128531304Y-98314405D01*
X128631939Y-98557359D01*
X128713884Y-98679999D01*
X127927323Y-98679999D01*
X127890000Y-98676323D01*
X127852677Y-98679999D01*
X127852668Y-98679999D01*
X127741015Y-98690996D01*
X127597754Y-98734453D01*
X127465725Y-98805025D01*
X127465723Y-98805026D01*
X127465724Y-98805026D01*
X127378997Y-98876200D01*
X127378993Y-98876204D01*
X127350000Y-98899998D01*
X127326206Y-98928991D01*
X126488998Y-99766201D01*
X126460000Y-99789999D01*
X126436202Y-99818997D01*
X126436201Y-99818998D01*
X126365026Y-99905724D01*
X126294454Y-100037754D01*
X126250998Y-100181015D01*
X126236324Y-100330000D01*
X126240001Y-100367333D01*
X126240000Y-120281928D01*
X126000000Y-120281928D01*
X125875518Y-120294188D01*
X125755820Y-120330498D01*
X125645506Y-120389463D01*
X125548815Y-120468815D01*
X125469463Y-120565506D01*
X125410498Y-120675820D01*
X125374188Y-120795518D01*
X125361928Y-120920000D01*
X124587000Y-120920000D01*
X124587000Y-85299473D01*
X128475610Y-85299473D01*
X128515875Y-85559344D01*
X128606065Y-85806366D01*
X128659963Y-85907203D01*
X128893731Y-85966664D01*
X129635395Y-85225000D01*
X128893731Y-84483336D01*
X128659963Y-84542797D01*
X128549066Y-84781242D01*
X128486817Y-85036740D01*
X128475610Y-85299473D01*
X124587000Y-85299473D01*
X124587000Y-84303731D01*
X129073336Y-84303731D01*
X129815000Y-85045395D01*
X130556664Y-84303731D01*
X130497203Y-84069963D01*
X130258758Y-83959066D01*
X130003260Y-83896817D01*
X129740527Y-83885610D01*
X129480656Y-83925875D01*
X129233634Y-84016065D01*
X129132797Y-84069963D01*
X129073336Y-84303731D01*
X124587000Y-84303731D01*
X124587000Y-76327000D01*
X161163000Y-76327000D01*
X161163000Y-128143000D01*
G37*
%TD.AperFunction*%
%TD*%
M02*
