%TF.GenerationSoftware,KiCad,Pcbnew,(5.1.9-0-10_14)*%
%TF.CreationDate,2021-04-10T21:21:16-04:00*%
%TF.ProjectId,Hexo,4865786f-2e6b-4696-9361-645f70636258,1*%
%TF.SameCoordinates,Original*%
%TF.FileFunction,Copper,L2,Bot*%
%TF.FilePolarity,Positive*%
%FSLAX46Y46*%
G04 Gerber Fmt 4.6, Leading zero omitted, Abs format (unit mm)*
G04 Created by KiCad (PCBNEW (5.1.9-0-10_14)) date 2021-04-10 21:21:16*
%MOMM*%
%LPD*%
G01*
G04 APERTURE LIST*
%TA.AperFunction,SMDPad,CuDef*%
%ADD10C,0.100000*%
%TD*%
%TA.AperFunction,ViaPad*%
%ADD11C,0.800000*%
%TD*%
%TA.AperFunction,Conductor*%
%ADD12C,0.250000*%
%TD*%
%TA.AperFunction,Conductor*%
%ADD13C,0.100000*%
%TD*%
G04 APERTURE END LIST*
%TA.AperFunction,SMDPad,CuDef*%
D10*
%TO.P,BT1,1*%
%TO.N,VCC*%
G36*
X159380880Y-90398087D02*
G01*
X155491793Y-86509000D01*
X159380880Y-82619913D01*
X163269967Y-86509000D01*
X159380880Y-90398087D01*
G37*
%TD.AperFunction*%
%TA.AperFunction,SMDPad,CuDef*%
%TO.P,BT1,2*%
%TO.N,Net-(BT1-Pad2)*%
G36*
X150329913Y-98388394D02*
G01*
X147501486Y-95559967D01*
X150329913Y-92731540D01*
X153158340Y-95559967D01*
X150329913Y-98388394D01*
G37*
%TD.AperFunction*%
%TA.AperFunction,SMDPad,CuDef*%
%TO.P,BT1,1*%
%TO.N,VCC*%
G36*
X141278946Y-108500021D02*
G01*
X137389859Y-104610934D01*
X141278946Y-100721847D01*
X145168033Y-104610934D01*
X141278946Y-108500021D01*
G37*
%TD.AperFunction*%
%TD*%
D11*
%TO.N,VCC*%
X144680880Y-101759000D03*
X155930880Y-88909000D03*
X160530880Y-91509000D03*
X137780880Y-100709000D03*
X160530880Y-91509000D03*
X155980880Y-98109000D03*
X163980880Y-100209000D03*
%TO.N,Net-(BT1-Pad2)*%
X148280880Y-108709000D03*
%TO.N,GND*%
X148380880Y-103709000D03*
X144680880Y-98109000D03*
X137680880Y-92959000D03*
X137765880Y-102209000D03*
X163580880Y-87759000D03*
X163480880Y-92009000D03*
%TD*%
D12*
%TO.N,VCC*%
X137780880Y-100709000D02*
X141278946Y-104207066D01*
X141278946Y-104207066D02*
X141278946Y-104610934D01*
X155930880Y-92159000D02*
X155930880Y-97959000D01*
X155930880Y-97959000D02*
X156080880Y-98109000D01*
X144130880Y-101759000D02*
X144680880Y-101759000D01*
X141278946Y-104610934D02*
X144130880Y-101759000D01*
X155930880Y-92159000D02*
X155930880Y-88909000D01*
X157080880Y-88159000D02*
X155930880Y-88909000D01*
X159380880Y-86509000D02*
X157080880Y-88159000D01*
X160530880Y-87659000D02*
X159380880Y-86509000D01*
X160530880Y-91509000D02*
X160530880Y-87659000D01*
X141278946Y-104610934D02*
X141278946Y-100721847D01*
X141278946Y-100721847D02*
X141216099Y-100659000D01*
X161880880Y-98109000D02*
X163980880Y-100209000D01*
X155980880Y-98109000D02*
X161880880Y-98109000D01*
%TO.N,Net-(BT1-Pad2)*%
X150329913Y-106659967D02*
X148280880Y-108709000D01*
X150329913Y-95559967D02*
X150329913Y-106659967D01*
%TO.N,GND*%
X163480880Y-92009000D02*
X164230880Y-92759000D01*
X164230880Y-92759000D02*
X164280880Y-92759000D01*
X164280880Y-92759000D02*
X164380880Y-92859000D01*
%TD*%
%TO.N,GND*%
X165480880Y-86174686D02*
X165480881Y-100843314D01*
X155715195Y-110609000D01*
X141046566Y-110609000D01*
X136280880Y-105843315D01*
X136280880Y-100632669D01*
X137005880Y-100632669D01*
X137005880Y-100785331D01*
X137035663Y-100935059D01*
X137094084Y-101076100D01*
X137178898Y-101203034D01*
X137286846Y-101310982D01*
X137413780Y-101395796D01*
X137554821Y-101454217D01*
X137704549Y-101484000D01*
X137848775Y-101484000D01*
X138916336Y-102551561D01*
X137123411Y-104344486D01*
X137076550Y-104401587D01*
X137041728Y-104466734D01*
X137020285Y-104537421D01*
X137013045Y-104610934D01*
X137020285Y-104684447D01*
X137041728Y-104755134D01*
X137076550Y-104820281D01*
X137123411Y-104877382D01*
X141012498Y-108766469D01*
X141069599Y-108813330D01*
X141134746Y-108848152D01*
X141205433Y-108869595D01*
X141278946Y-108876835D01*
X141352459Y-108869595D01*
X141423146Y-108848152D01*
X141488293Y-108813330D01*
X141545394Y-108766469D01*
X141684118Y-108627745D01*
X144155880Y-108627745D01*
X144155880Y-108790255D01*
X144187584Y-108949644D01*
X144249774Y-109099784D01*
X144340061Y-109234907D01*
X144454973Y-109349819D01*
X144590096Y-109440106D01*
X144740236Y-109502296D01*
X144899625Y-109534000D01*
X145062135Y-109534000D01*
X145221524Y-109502296D01*
X145371664Y-109440106D01*
X145506787Y-109349819D01*
X145621699Y-109234907D01*
X145711986Y-109099784D01*
X145774176Y-108949644D01*
X145805880Y-108790255D01*
X145805880Y-108627745D01*
X145774176Y-108468356D01*
X145711986Y-108318216D01*
X145621699Y-108183093D01*
X145506787Y-108068181D01*
X145371664Y-107977894D01*
X145221524Y-107915704D01*
X145062135Y-107884000D01*
X144899625Y-107884000D01*
X144740236Y-107915704D01*
X144590096Y-107977894D01*
X144454973Y-108068181D01*
X144340061Y-108183093D01*
X144249774Y-108318216D01*
X144187584Y-108468356D01*
X144155880Y-108627745D01*
X141684118Y-108627745D01*
X145434481Y-104877382D01*
X145481342Y-104820281D01*
X145516164Y-104755134D01*
X145537607Y-104684447D01*
X145544847Y-104610934D01*
X145537607Y-104537421D01*
X145516164Y-104466734D01*
X145481342Y-104401587D01*
X145434481Y-104344486D01*
X143843491Y-102753496D01*
X144216315Y-102380672D01*
X144313780Y-102445796D01*
X144454821Y-102504217D01*
X144604549Y-102534000D01*
X144757211Y-102534000D01*
X144906939Y-102504217D01*
X145047980Y-102445796D01*
X145174914Y-102360982D01*
X145282862Y-102253034D01*
X145367676Y-102126100D01*
X145426097Y-101985059D01*
X145455880Y-101835331D01*
X145455880Y-101682669D01*
X145426097Y-101532941D01*
X145367676Y-101391900D01*
X145282862Y-101264966D01*
X145174914Y-101157018D01*
X145047980Y-101072204D01*
X144906939Y-101013783D01*
X144757211Y-100984000D01*
X144604549Y-100984000D01*
X144454821Y-101013783D01*
X144313780Y-101072204D01*
X144186846Y-101157018D01*
X144082520Y-101261344D01*
X144032863Y-101266235D01*
X143938613Y-101294825D01*
X143851751Y-101341254D01*
X143775616Y-101403736D01*
X143759960Y-101422813D01*
X143136384Y-102046389D01*
X141778035Y-100688040D01*
X141776571Y-100673174D01*
X141771711Y-100623830D01*
X141743121Y-100529580D01*
X141696692Y-100442718D01*
X141634210Y-100366583D01*
X141615122Y-100350918D01*
X141552285Y-100288081D01*
X141495227Y-100241255D01*
X141408366Y-100194826D01*
X141314116Y-100166235D01*
X141216099Y-100156581D01*
X141118082Y-100166235D01*
X141023832Y-100194826D01*
X140936971Y-100241255D01*
X140860836Y-100303737D01*
X140798354Y-100379872D01*
X140751925Y-100466733D01*
X140723334Y-100560983D01*
X140713680Y-100659000D01*
X140722217Y-100745680D01*
X139623441Y-101844456D01*
X138555880Y-100776895D01*
X138555880Y-100632669D01*
X138526097Y-100482941D01*
X138467676Y-100341900D01*
X138382862Y-100214966D01*
X138274914Y-100107018D01*
X138147980Y-100022204D01*
X138006939Y-99963783D01*
X137857211Y-99934000D01*
X137704549Y-99934000D01*
X137554821Y-99963783D01*
X137413780Y-100022204D01*
X137286846Y-100107018D01*
X137178898Y-100214966D01*
X137094084Y-100341900D01*
X137035663Y-100482941D01*
X137005880Y-100632669D01*
X136280880Y-100632669D01*
X136280880Y-95559967D01*
X147124672Y-95559967D01*
X147131912Y-95633480D01*
X147153355Y-95704167D01*
X147188177Y-95769314D01*
X147235038Y-95826415D01*
X149829913Y-98421290D01*
X149829914Y-106452859D01*
X148348775Y-107934000D01*
X148204549Y-107934000D01*
X148054821Y-107963783D01*
X147913780Y-108022204D01*
X147786846Y-108107018D01*
X147678898Y-108214966D01*
X147594084Y-108341900D01*
X147535663Y-108482941D01*
X147505880Y-108632669D01*
X147505880Y-108785331D01*
X147535663Y-108935059D01*
X147594084Y-109076100D01*
X147678898Y-109203034D01*
X147786846Y-109310982D01*
X147913780Y-109395796D01*
X148054821Y-109454217D01*
X148204549Y-109484000D01*
X148357211Y-109484000D01*
X148506939Y-109454217D01*
X148647980Y-109395796D01*
X148774914Y-109310982D01*
X148882862Y-109203034D01*
X148967676Y-109076100D01*
X149026097Y-108935059D01*
X149055880Y-108785331D01*
X149055880Y-108641105D01*
X149069240Y-108627745D01*
X150955880Y-108627745D01*
X150955880Y-108790255D01*
X150987584Y-108949644D01*
X151049774Y-109099784D01*
X151140061Y-109234907D01*
X151254973Y-109349819D01*
X151390096Y-109440106D01*
X151540236Y-109502296D01*
X151699625Y-109534000D01*
X151862135Y-109534000D01*
X152021524Y-109502296D01*
X152171664Y-109440106D01*
X152306787Y-109349819D01*
X152421699Y-109234907D01*
X152511986Y-109099784D01*
X152574176Y-108949644D01*
X152605880Y-108790255D01*
X152605880Y-108627745D01*
X152574176Y-108468356D01*
X152511986Y-108318216D01*
X152421699Y-108183093D01*
X152306787Y-108068181D01*
X152171664Y-107977894D01*
X152021524Y-107915704D01*
X151862135Y-107884000D01*
X151699625Y-107884000D01*
X151540236Y-107915704D01*
X151390096Y-107977894D01*
X151254973Y-108068181D01*
X151140061Y-108183093D01*
X151049774Y-108318216D01*
X150987584Y-108468356D01*
X150955880Y-108627745D01*
X149069240Y-108627745D01*
X150666100Y-107030887D01*
X150685177Y-107015231D01*
X150747659Y-106939096D01*
X150794088Y-106852234D01*
X150822678Y-106757984D01*
X150829913Y-106684527D01*
X150829913Y-106684518D01*
X150832331Y-106659968D01*
X150829913Y-106635418D01*
X150829913Y-98421290D01*
X153424788Y-95826415D01*
X153471649Y-95769314D01*
X153506471Y-95704167D01*
X153527914Y-95633480D01*
X153535154Y-95559967D01*
X153527914Y-95486454D01*
X153506471Y-95415767D01*
X153471649Y-95350620D01*
X153424788Y-95293519D01*
X150596361Y-92465092D01*
X150539260Y-92418231D01*
X150474113Y-92383409D01*
X150403426Y-92361966D01*
X150329913Y-92354726D01*
X150256400Y-92361966D01*
X150185713Y-92383409D01*
X150120566Y-92418231D01*
X150063465Y-92465092D01*
X147235038Y-95293519D01*
X147188177Y-95350620D01*
X147153355Y-95415767D01*
X147131912Y-95486454D01*
X147124672Y-95559967D01*
X136280880Y-95559967D01*
X136280880Y-85722790D01*
X137974941Y-85722790D01*
X137974941Y-86295210D01*
X138086614Y-86856631D01*
X138305670Y-87385478D01*
X138623689Y-87861428D01*
X139028452Y-88266191D01*
X139504402Y-88584210D01*
X140033249Y-88803266D01*
X140594670Y-88914939D01*
X141167090Y-88914939D01*
X141728511Y-88803266D01*
X142257358Y-88584210D01*
X142733308Y-88266191D01*
X143138071Y-87861428D01*
X143456090Y-87385478D01*
X143675146Y-86856631D01*
X143744293Y-86509000D01*
X155114979Y-86509000D01*
X155122219Y-86582513D01*
X155143662Y-86653200D01*
X155178484Y-86718347D01*
X155225345Y-86775448D01*
X156433903Y-87984006D01*
X156157738Y-88164114D01*
X156156939Y-88163783D01*
X156007211Y-88134000D01*
X155854549Y-88134000D01*
X155704821Y-88163783D01*
X155563780Y-88222204D01*
X155436846Y-88307018D01*
X155328898Y-88414966D01*
X155244084Y-88541900D01*
X155185663Y-88682941D01*
X155155880Y-88832669D01*
X155155880Y-88985331D01*
X155185663Y-89135059D01*
X155244084Y-89276100D01*
X155328898Y-89403034D01*
X155430881Y-89505017D01*
X155430880Y-92134440D01*
X155430880Y-92134441D01*
X155430881Y-97562983D01*
X155378898Y-97614966D01*
X155294084Y-97741900D01*
X155235663Y-97882941D01*
X155205880Y-98032669D01*
X155205880Y-98185331D01*
X155235663Y-98335059D01*
X155294084Y-98476100D01*
X155378898Y-98603034D01*
X155486846Y-98710982D01*
X155613780Y-98795796D01*
X155754821Y-98854217D01*
X155904549Y-98884000D01*
X156057211Y-98884000D01*
X156206939Y-98854217D01*
X156347980Y-98795796D01*
X156474914Y-98710982D01*
X156576896Y-98609000D01*
X161673775Y-98609000D01*
X163205880Y-100141107D01*
X163205880Y-100285331D01*
X163235663Y-100435059D01*
X163294084Y-100576100D01*
X163378898Y-100703034D01*
X163486846Y-100810982D01*
X163613780Y-100895796D01*
X163754821Y-100954217D01*
X163904549Y-100984000D01*
X164057211Y-100984000D01*
X164206939Y-100954217D01*
X164347980Y-100895796D01*
X164474914Y-100810982D01*
X164582862Y-100703034D01*
X164667676Y-100576100D01*
X164726097Y-100435059D01*
X164755880Y-100285331D01*
X164755880Y-100132669D01*
X164726097Y-99982941D01*
X164667676Y-99841900D01*
X164582862Y-99714966D01*
X164474914Y-99607018D01*
X164347980Y-99522204D01*
X164206939Y-99463783D01*
X164057211Y-99434000D01*
X163912987Y-99434000D01*
X162251809Y-97772824D01*
X162236144Y-97753736D01*
X162160009Y-97691254D01*
X162073147Y-97644825D01*
X161978897Y-97616235D01*
X161905440Y-97609000D01*
X161880880Y-97606581D01*
X161856320Y-97609000D01*
X156576896Y-97609000D01*
X156474914Y-97507018D01*
X156430880Y-97477596D01*
X156430880Y-89505016D01*
X156532862Y-89403034D01*
X156617676Y-89276100D01*
X156676097Y-89135059D01*
X156702413Y-89002762D01*
X157156509Y-88706612D01*
X159114432Y-90664535D01*
X159171533Y-90711396D01*
X159236680Y-90746218D01*
X159307367Y-90767661D01*
X159380880Y-90774901D01*
X159454393Y-90767661D01*
X159525080Y-90746218D01*
X159590227Y-90711396D01*
X159647328Y-90664535D01*
X160030880Y-90280983D01*
X160030880Y-90912984D01*
X159928898Y-91014966D01*
X159844084Y-91141900D01*
X159785663Y-91282941D01*
X159755880Y-91432669D01*
X159755880Y-91585331D01*
X159785663Y-91735059D01*
X159844084Y-91876100D01*
X159928898Y-92003034D01*
X160036846Y-92110982D01*
X160163780Y-92195796D01*
X160304821Y-92254217D01*
X160454549Y-92284000D01*
X160607211Y-92284000D01*
X160756939Y-92254217D01*
X160897980Y-92195796D01*
X161024914Y-92110982D01*
X161132862Y-92003034D01*
X161217676Y-91876100D01*
X161276097Y-91735059D01*
X161305880Y-91585331D01*
X161305880Y-91432669D01*
X161276097Y-91282941D01*
X161217676Y-91141900D01*
X161132862Y-91014966D01*
X161030880Y-90912984D01*
X161030880Y-89280983D01*
X163536415Y-86775448D01*
X163583276Y-86718347D01*
X163618098Y-86653200D01*
X163639541Y-86582513D01*
X163646781Y-86509000D01*
X163639541Y-86435487D01*
X163618098Y-86364800D01*
X163583276Y-86299653D01*
X163536415Y-86242552D01*
X159647328Y-82353465D01*
X159590227Y-82306604D01*
X159525080Y-82271782D01*
X159454393Y-82250339D01*
X159380880Y-82243099D01*
X159307367Y-82250339D01*
X159236680Y-82271782D01*
X159171533Y-82306604D01*
X159114432Y-82353465D01*
X155225345Y-86242552D01*
X155178484Y-86299653D01*
X155143662Y-86364800D01*
X155122219Y-86435487D01*
X155114979Y-86509000D01*
X143744293Y-86509000D01*
X143786819Y-86295210D01*
X143786819Y-85722790D01*
X143675146Y-85161369D01*
X143456090Y-84632522D01*
X143138071Y-84156572D01*
X142733308Y-83751809D01*
X142257358Y-83433790D01*
X141728511Y-83214734D01*
X141167090Y-83103061D01*
X140594670Y-83103061D01*
X140033249Y-83214734D01*
X139504402Y-83433790D01*
X139028452Y-83751809D01*
X138623689Y-84156572D01*
X138305670Y-84632522D01*
X138086614Y-85161369D01*
X137974941Y-85722790D01*
X136280880Y-85722790D01*
X136280880Y-81409000D01*
X160715195Y-81409000D01*
X165480880Y-86174686D01*
%TA.AperFunction,Conductor*%
D13*
G36*
X165480880Y-86174686D02*
G01*
X165480881Y-100843314D01*
X155715195Y-110609000D01*
X141046566Y-110609000D01*
X136280880Y-105843315D01*
X136280880Y-100632669D01*
X137005880Y-100632669D01*
X137005880Y-100785331D01*
X137035663Y-100935059D01*
X137094084Y-101076100D01*
X137178898Y-101203034D01*
X137286846Y-101310982D01*
X137413780Y-101395796D01*
X137554821Y-101454217D01*
X137704549Y-101484000D01*
X137848775Y-101484000D01*
X138916336Y-102551561D01*
X137123411Y-104344486D01*
X137076550Y-104401587D01*
X137041728Y-104466734D01*
X137020285Y-104537421D01*
X137013045Y-104610934D01*
X137020285Y-104684447D01*
X137041728Y-104755134D01*
X137076550Y-104820281D01*
X137123411Y-104877382D01*
X141012498Y-108766469D01*
X141069599Y-108813330D01*
X141134746Y-108848152D01*
X141205433Y-108869595D01*
X141278946Y-108876835D01*
X141352459Y-108869595D01*
X141423146Y-108848152D01*
X141488293Y-108813330D01*
X141545394Y-108766469D01*
X141684118Y-108627745D01*
X144155880Y-108627745D01*
X144155880Y-108790255D01*
X144187584Y-108949644D01*
X144249774Y-109099784D01*
X144340061Y-109234907D01*
X144454973Y-109349819D01*
X144590096Y-109440106D01*
X144740236Y-109502296D01*
X144899625Y-109534000D01*
X145062135Y-109534000D01*
X145221524Y-109502296D01*
X145371664Y-109440106D01*
X145506787Y-109349819D01*
X145621699Y-109234907D01*
X145711986Y-109099784D01*
X145774176Y-108949644D01*
X145805880Y-108790255D01*
X145805880Y-108627745D01*
X145774176Y-108468356D01*
X145711986Y-108318216D01*
X145621699Y-108183093D01*
X145506787Y-108068181D01*
X145371664Y-107977894D01*
X145221524Y-107915704D01*
X145062135Y-107884000D01*
X144899625Y-107884000D01*
X144740236Y-107915704D01*
X144590096Y-107977894D01*
X144454973Y-108068181D01*
X144340061Y-108183093D01*
X144249774Y-108318216D01*
X144187584Y-108468356D01*
X144155880Y-108627745D01*
X141684118Y-108627745D01*
X145434481Y-104877382D01*
X145481342Y-104820281D01*
X145516164Y-104755134D01*
X145537607Y-104684447D01*
X145544847Y-104610934D01*
X145537607Y-104537421D01*
X145516164Y-104466734D01*
X145481342Y-104401587D01*
X145434481Y-104344486D01*
X143843491Y-102753496D01*
X144216315Y-102380672D01*
X144313780Y-102445796D01*
X144454821Y-102504217D01*
X144604549Y-102534000D01*
X144757211Y-102534000D01*
X144906939Y-102504217D01*
X145047980Y-102445796D01*
X145174914Y-102360982D01*
X145282862Y-102253034D01*
X145367676Y-102126100D01*
X145426097Y-101985059D01*
X145455880Y-101835331D01*
X145455880Y-101682669D01*
X145426097Y-101532941D01*
X145367676Y-101391900D01*
X145282862Y-101264966D01*
X145174914Y-101157018D01*
X145047980Y-101072204D01*
X144906939Y-101013783D01*
X144757211Y-100984000D01*
X144604549Y-100984000D01*
X144454821Y-101013783D01*
X144313780Y-101072204D01*
X144186846Y-101157018D01*
X144082520Y-101261344D01*
X144032863Y-101266235D01*
X143938613Y-101294825D01*
X143851751Y-101341254D01*
X143775616Y-101403736D01*
X143759960Y-101422813D01*
X143136384Y-102046389D01*
X141778035Y-100688040D01*
X141776571Y-100673174D01*
X141771711Y-100623830D01*
X141743121Y-100529580D01*
X141696692Y-100442718D01*
X141634210Y-100366583D01*
X141615122Y-100350918D01*
X141552285Y-100288081D01*
X141495227Y-100241255D01*
X141408366Y-100194826D01*
X141314116Y-100166235D01*
X141216099Y-100156581D01*
X141118082Y-100166235D01*
X141023832Y-100194826D01*
X140936971Y-100241255D01*
X140860836Y-100303737D01*
X140798354Y-100379872D01*
X140751925Y-100466733D01*
X140723334Y-100560983D01*
X140713680Y-100659000D01*
X140722217Y-100745680D01*
X139623441Y-101844456D01*
X138555880Y-100776895D01*
X138555880Y-100632669D01*
X138526097Y-100482941D01*
X138467676Y-100341900D01*
X138382862Y-100214966D01*
X138274914Y-100107018D01*
X138147980Y-100022204D01*
X138006939Y-99963783D01*
X137857211Y-99934000D01*
X137704549Y-99934000D01*
X137554821Y-99963783D01*
X137413780Y-100022204D01*
X137286846Y-100107018D01*
X137178898Y-100214966D01*
X137094084Y-100341900D01*
X137035663Y-100482941D01*
X137005880Y-100632669D01*
X136280880Y-100632669D01*
X136280880Y-95559967D01*
X147124672Y-95559967D01*
X147131912Y-95633480D01*
X147153355Y-95704167D01*
X147188177Y-95769314D01*
X147235038Y-95826415D01*
X149829913Y-98421290D01*
X149829914Y-106452859D01*
X148348775Y-107934000D01*
X148204549Y-107934000D01*
X148054821Y-107963783D01*
X147913780Y-108022204D01*
X147786846Y-108107018D01*
X147678898Y-108214966D01*
X147594084Y-108341900D01*
X147535663Y-108482941D01*
X147505880Y-108632669D01*
X147505880Y-108785331D01*
X147535663Y-108935059D01*
X147594084Y-109076100D01*
X147678898Y-109203034D01*
X147786846Y-109310982D01*
X147913780Y-109395796D01*
X148054821Y-109454217D01*
X148204549Y-109484000D01*
X148357211Y-109484000D01*
X148506939Y-109454217D01*
X148647980Y-109395796D01*
X148774914Y-109310982D01*
X148882862Y-109203034D01*
X148967676Y-109076100D01*
X149026097Y-108935059D01*
X149055880Y-108785331D01*
X149055880Y-108641105D01*
X149069240Y-108627745D01*
X150955880Y-108627745D01*
X150955880Y-108790255D01*
X150987584Y-108949644D01*
X151049774Y-109099784D01*
X151140061Y-109234907D01*
X151254973Y-109349819D01*
X151390096Y-109440106D01*
X151540236Y-109502296D01*
X151699625Y-109534000D01*
X151862135Y-109534000D01*
X152021524Y-109502296D01*
X152171664Y-109440106D01*
X152306787Y-109349819D01*
X152421699Y-109234907D01*
X152511986Y-109099784D01*
X152574176Y-108949644D01*
X152605880Y-108790255D01*
X152605880Y-108627745D01*
X152574176Y-108468356D01*
X152511986Y-108318216D01*
X152421699Y-108183093D01*
X152306787Y-108068181D01*
X152171664Y-107977894D01*
X152021524Y-107915704D01*
X151862135Y-107884000D01*
X151699625Y-107884000D01*
X151540236Y-107915704D01*
X151390096Y-107977894D01*
X151254973Y-108068181D01*
X151140061Y-108183093D01*
X151049774Y-108318216D01*
X150987584Y-108468356D01*
X150955880Y-108627745D01*
X149069240Y-108627745D01*
X150666100Y-107030887D01*
X150685177Y-107015231D01*
X150747659Y-106939096D01*
X150794088Y-106852234D01*
X150822678Y-106757984D01*
X150829913Y-106684527D01*
X150829913Y-106684518D01*
X150832331Y-106659968D01*
X150829913Y-106635418D01*
X150829913Y-98421290D01*
X153424788Y-95826415D01*
X153471649Y-95769314D01*
X153506471Y-95704167D01*
X153527914Y-95633480D01*
X153535154Y-95559967D01*
X153527914Y-95486454D01*
X153506471Y-95415767D01*
X153471649Y-95350620D01*
X153424788Y-95293519D01*
X150596361Y-92465092D01*
X150539260Y-92418231D01*
X150474113Y-92383409D01*
X150403426Y-92361966D01*
X150329913Y-92354726D01*
X150256400Y-92361966D01*
X150185713Y-92383409D01*
X150120566Y-92418231D01*
X150063465Y-92465092D01*
X147235038Y-95293519D01*
X147188177Y-95350620D01*
X147153355Y-95415767D01*
X147131912Y-95486454D01*
X147124672Y-95559967D01*
X136280880Y-95559967D01*
X136280880Y-85722790D01*
X137974941Y-85722790D01*
X137974941Y-86295210D01*
X138086614Y-86856631D01*
X138305670Y-87385478D01*
X138623689Y-87861428D01*
X139028452Y-88266191D01*
X139504402Y-88584210D01*
X140033249Y-88803266D01*
X140594670Y-88914939D01*
X141167090Y-88914939D01*
X141728511Y-88803266D01*
X142257358Y-88584210D01*
X142733308Y-88266191D01*
X143138071Y-87861428D01*
X143456090Y-87385478D01*
X143675146Y-86856631D01*
X143744293Y-86509000D01*
X155114979Y-86509000D01*
X155122219Y-86582513D01*
X155143662Y-86653200D01*
X155178484Y-86718347D01*
X155225345Y-86775448D01*
X156433903Y-87984006D01*
X156157738Y-88164114D01*
X156156939Y-88163783D01*
X156007211Y-88134000D01*
X155854549Y-88134000D01*
X155704821Y-88163783D01*
X155563780Y-88222204D01*
X155436846Y-88307018D01*
X155328898Y-88414966D01*
X155244084Y-88541900D01*
X155185663Y-88682941D01*
X155155880Y-88832669D01*
X155155880Y-88985331D01*
X155185663Y-89135059D01*
X155244084Y-89276100D01*
X155328898Y-89403034D01*
X155430881Y-89505017D01*
X155430880Y-92134440D01*
X155430880Y-92134441D01*
X155430881Y-97562983D01*
X155378898Y-97614966D01*
X155294084Y-97741900D01*
X155235663Y-97882941D01*
X155205880Y-98032669D01*
X155205880Y-98185331D01*
X155235663Y-98335059D01*
X155294084Y-98476100D01*
X155378898Y-98603034D01*
X155486846Y-98710982D01*
X155613780Y-98795796D01*
X155754821Y-98854217D01*
X155904549Y-98884000D01*
X156057211Y-98884000D01*
X156206939Y-98854217D01*
X156347980Y-98795796D01*
X156474914Y-98710982D01*
X156576896Y-98609000D01*
X161673775Y-98609000D01*
X163205880Y-100141107D01*
X163205880Y-100285331D01*
X163235663Y-100435059D01*
X163294084Y-100576100D01*
X163378898Y-100703034D01*
X163486846Y-100810982D01*
X163613780Y-100895796D01*
X163754821Y-100954217D01*
X163904549Y-100984000D01*
X164057211Y-100984000D01*
X164206939Y-100954217D01*
X164347980Y-100895796D01*
X164474914Y-100810982D01*
X164582862Y-100703034D01*
X164667676Y-100576100D01*
X164726097Y-100435059D01*
X164755880Y-100285331D01*
X164755880Y-100132669D01*
X164726097Y-99982941D01*
X164667676Y-99841900D01*
X164582862Y-99714966D01*
X164474914Y-99607018D01*
X164347980Y-99522204D01*
X164206939Y-99463783D01*
X164057211Y-99434000D01*
X163912987Y-99434000D01*
X162251809Y-97772824D01*
X162236144Y-97753736D01*
X162160009Y-97691254D01*
X162073147Y-97644825D01*
X161978897Y-97616235D01*
X161905440Y-97609000D01*
X161880880Y-97606581D01*
X161856320Y-97609000D01*
X156576896Y-97609000D01*
X156474914Y-97507018D01*
X156430880Y-97477596D01*
X156430880Y-89505016D01*
X156532862Y-89403034D01*
X156617676Y-89276100D01*
X156676097Y-89135059D01*
X156702413Y-89002762D01*
X157156509Y-88706612D01*
X159114432Y-90664535D01*
X159171533Y-90711396D01*
X159236680Y-90746218D01*
X159307367Y-90767661D01*
X159380880Y-90774901D01*
X159454393Y-90767661D01*
X159525080Y-90746218D01*
X159590227Y-90711396D01*
X159647328Y-90664535D01*
X160030880Y-90280983D01*
X160030880Y-90912984D01*
X159928898Y-91014966D01*
X159844084Y-91141900D01*
X159785663Y-91282941D01*
X159755880Y-91432669D01*
X159755880Y-91585331D01*
X159785663Y-91735059D01*
X159844084Y-91876100D01*
X159928898Y-92003034D01*
X160036846Y-92110982D01*
X160163780Y-92195796D01*
X160304821Y-92254217D01*
X160454549Y-92284000D01*
X160607211Y-92284000D01*
X160756939Y-92254217D01*
X160897980Y-92195796D01*
X161024914Y-92110982D01*
X161132862Y-92003034D01*
X161217676Y-91876100D01*
X161276097Y-91735059D01*
X161305880Y-91585331D01*
X161305880Y-91432669D01*
X161276097Y-91282941D01*
X161217676Y-91141900D01*
X161132862Y-91014966D01*
X161030880Y-90912984D01*
X161030880Y-89280983D01*
X163536415Y-86775448D01*
X163583276Y-86718347D01*
X163618098Y-86653200D01*
X163639541Y-86582513D01*
X163646781Y-86509000D01*
X163639541Y-86435487D01*
X163618098Y-86364800D01*
X163583276Y-86299653D01*
X163536415Y-86242552D01*
X159647328Y-82353465D01*
X159590227Y-82306604D01*
X159525080Y-82271782D01*
X159454393Y-82250339D01*
X159380880Y-82243099D01*
X159307367Y-82250339D01*
X159236680Y-82271782D01*
X159171533Y-82306604D01*
X159114432Y-82353465D01*
X155225345Y-86242552D01*
X155178484Y-86299653D01*
X155143662Y-86364800D01*
X155122219Y-86435487D01*
X155114979Y-86509000D01*
X143744293Y-86509000D01*
X143786819Y-86295210D01*
X143786819Y-85722790D01*
X143675146Y-85161369D01*
X143456090Y-84632522D01*
X143138071Y-84156572D01*
X142733308Y-83751809D01*
X142257358Y-83433790D01*
X141728511Y-83214734D01*
X141167090Y-83103061D01*
X140594670Y-83103061D01*
X140033249Y-83214734D01*
X139504402Y-83433790D01*
X139028452Y-83751809D01*
X138623689Y-84156572D01*
X138305670Y-84632522D01*
X138086614Y-85161369D01*
X137974941Y-85722790D01*
X136280880Y-85722790D01*
X136280880Y-81409000D01*
X160715195Y-81409000D01*
X165480880Y-86174686D01*
G37*
%TD.AperFunction*%
%TD*%
M02*
