%TF.GenerationSoftware,KiCad,Pcbnew,(5.1.9-0-10_14)*%
%TF.CreationDate,2021-04-10T21:21:16-04:00*%
%TF.ProjectId,Hexo,4865786f-2e6b-4696-9361-645f70636258,1*%
%TF.SameCoordinates,Original*%
%TF.FileFunction,Paste,Top*%
%TF.FilePolarity,Positive*%
%FSLAX46Y46*%
G04 Gerber Fmt 4.6, Leading zero omitted, Abs format (unit mm)*
G04 Created by KiCad (PCBNEW (5.1.9-0-10_14)) date 2021-04-10 21:21:16*
%MOMM*%
%LPD*%
G01*
G04 APERTURE LIST*
%ADD10R,1.250000X2.500000*%
%ADD11R,1.700000X1.000000*%
%ADD12R,0.800000X0.900000*%
G04 APERTURE END LIST*
%TO.C,R3*%
G36*
G01*
X163022498Y-96858999D02*
X163022498Y-97759001D01*
G75*
G02*
X162772499Y-98009000I-249999J0D01*
G01*
X162072497Y-98009000D01*
G75*
G02*
X161822498Y-97759001I0J249999D01*
G01*
X161822498Y-96858999D01*
G75*
G02*
X162072497Y-96609000I249999J0D01*
G01*
X162772499Y-96609000D01*
G75*
G02*
X163022498Y-96858999I0J-249999D01*
G01*
G37*
G36*
G01*
X165022498Y-96858999D02*
X165022498Y-97759001D01*
G75*
G02*
X164772499Y-98009000I-249999J0D01*
G01*
X164072497Y-98009000D01*
G75*
G02*
X163822498Y-97759001I0J249999D01*
G01*
X163822498Y-96858999D01*
G75*
G02*
X164072497Y-96609000I249999J0D01*
G01*
X164772499Y-96609000D01*
G75*
G02*
X165022498Y-96858999I0J-249999D01*
G01*
G37*
%TD*%
%TO.C,C1*%
G36*
G01*
X159645880Y-94754000D02*
X159645880Y-95704000D01*
G75*
G02*
X159395880Y-95954000I-250000J0D01*
G01*
X158720880Y-95954000D01*
G75*
G02*
X158470880Y-95704000I0J250000D01*
G01*
X158470880Y-94754000D01*
G75*
G02*
X158720880Y-94504000I250000J0D01*
G01*
X159395880Y-94504000D01*
G75*
G02*
X159645880Y-94754000I0J-250000D01*
G01*
G37*
G36*
G01*
X157570880Y-94754000D02*
X157570880Y-95704000D01*
G75*
G02*
X157320880Y-95954000I-250000J0D01*
G01*
X156645880Y-95954000D01*
G75*
G02*
X156395880Y-95704000I0J250000D01*
G01*
X156395880Y-94754000D01*
G75*
G02*
X156645880Y-94504000I250000J0D01*
G01*
X157320880Y-94504000D01*
G75*
G02*
X157570880Y-94754000I0J-250000D01*
G01*
G37*
%TD*%
D10*
%TO.C,SW2*%
X145880880Y-105959000D03*
X148380880Y-105959000D03*
X150880880Y-105959000D03*
%TD*%
D11*
%TO.C,SW1*%
X154030880Y-101909000D03*
X147730880Y-101909000D03*
X154030880Y-98109000D03*
X147730880Y-98109000D03*
%TD*%
%TO.C,U2*%
G36*
G01*
X146435880Y-94639000D02*
X146735880Y-94639000D01*
G75*
G02*
X146885880Y-94789000I0J-150000D01*
G01*
X146885880Y-96439000D01*
G75*
G02*
X146735880Y-96589000I-150000J0D01*
G01*
X146435880Y-96589000D01*
G75*
G02*
X146285880Y-96439000I0J150000D01*
G01*
X146285880Y-94789000D01*
G75*
G02*
X146435880Y-94639000I150000J0D01*
G01*
G37*
G36*
G01*
X145165880Y-94639000D02*
X145465880Y-94639000D01*
G75*
G02*
X145615880Y-94789000I0J-150000D01*
G01*
X145615880Y-96439000D01*
G75*
G02*
X145465880Y-96589000I-150000J0D01*
G01*
X145165880Y-96589000D01*
G75*
G02*
X145015880Y-96439000I0J150000D01*
G01*
X145015880Y-94789000D01*
G75*
G02*
X145165880Y-94639000I150000J0D01*
G01*
G37*
G36*
G01*
X143895880Y-94639000D02*
X144195880Y-94639000D01*
G75*
G02*
X144345880Y-94789000I0J-150000D01*
G01*
X144345880Y-96439000D01*
G75*
G02*
X144195880Y-96589000I-150000J0D01*
G01*
X143895880Y-96589000D01*
G75*
G02*
X143745880Y-96439000I0J150000D01*
G01*
X143745880Y-94789000D01*
G75*
G02*
X143895880Y-94639000I150000J0D01*
G01*
G37*
G36*
G01*
X142625880Y-94639000D02*
X142925880Y-94639000D01*
G75*
G02*
X143075880Y-94789000I0J-150000D01*
G01*
X143075880Y-96439000D01*
G75*
G02*
X142925880Y-96589000I-150000J0D01*
G01*
X142625880Y-96589000D01*
G75*
G02*
X142475880Y-96439000I0J150000D01*
G01*
X142475880Y-94789000D01*
G75*
G02*
X142625880Y-94639000I150000J0D01*
G01*
G37*
G36*
G01*
X141355880Y-94639000D02*
X141655880Y-94639000D01*
G75*
G02*
X141805880Y-94789000I0J-150000D01*
G01*
X141805880Y-96439000D01*
G75*
G02*
X141655880Y-96589000I-150000J0D01*
G01*
X141355880Y-96589000D01*
G75*
G02*
X141205880Y-96439000I0J150000D01*
G01*
X141205880Y-94789000D01*
G75*
G02*
X141355880Y-94639000I150000J0D01*
G01*
G37*
G36*
G01*
X140085880Y-94639000D02*
X140385880Y-94639000D01*
G75*
G02*
X140535880Y-94789000I0J-150000D01*
G01*
X140535880Y-96439000D01*
G75*
G02*
X140385880Y-96589000I-150000J0D01*
G01*
X140085880Y-96589000D01*
G75*
G02*
X139935880Y-96439000I0J150000D01*
G01*
X139935880Y-94789000D01*
G75*
G02*
X140085880Y-94639000I150000J0D01*
G01*
G37*
G36*
G01*
X138815880Y-94639000D02*
X139115880Y-94639000D01*
G75*
G02*
X139265880Y-94789000I0J-150000D01*
G01*
X139265880Y-96439000D01*
G75*
G02*
X139115880Y-96589000I-150000J0D01*
G01*
X138815880Y-96589000D01*
G75*
G02*
X138665880Y-96439000I0J150000D01*
G01*
X138665880Y-94789000D01*
G75*
G02*
X138815880Y-94639000I150000J0D01*
G01*
G37*
G36*
G01*
X137545880Y-94639000D02*
X137845880Y-94639000D01*
G75*
G02*
X137995880Y-94789000I0J-150000D01*
G01*
X137995880Y-96439000D01*
G75*
G02*
X137845880Y-96589000I-150000J0D01*
G01*
X137545880Y-96589000D01*
G75*
G02*
X137395880Y-96439000I0J150000D01*
G01*
X137395880Y-94789000D01*
G75*
G02*
X137545880Y-94639000I150000J0D01*
G01*
G37*
G36*
G01*
X137545880Y-89689000D02*
X137845880Y-89689000D01*
G75*
G02*
X137995880Y-89839000I0J-150000D01*
G01*
X137995880Y-91489000D01*
G75*
G02*
X137845880Y-91639000I-150000J0D01*
G01*
X137545880Y-91639000D01*
G75*
G02*
X137395880Y-91489000I0J150000D01*
G01*
X137395880Y-89839000D01*
G75*
G02*
X137545880Y-89689000I150000J0D01*
G01*
G37*
G36*
G01*
X138815880Y-89689000D02*
X139115880Y-89689000D01*
G75*
G02*
X139265880Y-89839000I0J-150000D01*
G01*
X139265880Y-91489000D01*
G75*
G02*
X139115880Y-91639000I-150000J0D01*
G01*
X138815880Y-91639000D01*
G75*
G02*
X138665880Y-91489000I0J150000D01*
G01*
X138665880Y-89839000D01*
G75*
G02*
X138815880Y-89689000I150000J0D01*
G01*
G37*
G36*
G01*
X140085880Y-89689000D02*
X140385880Y-89689000D01*
G75*
G02*
X140535880Y-89839000I0J-150000D01*
G01*
X140535880Y-91489000D01*
G75*
G02*
X140385880Y-91639000I-150000J0D01*
G01*
X140085880Y-91639000D01*
G75*
G02*
X139935880Y-91489000I0J150000D01*
G01*
X139935880Y-89839000D01*
G75*
G02*
X140085880Y-89689000I150000J0D01*
G01*
G37*
G36*
G01*
X141355880Y-89689000D02*
X141655880Y-89689000D01*
G75*
G02*
X141805880Y-89839000I0J-150000D01*
G01*
X141805880Y-91489000D01*
G75*
G02*
X141655880Y-91639000I-150000J0D01*
G01*
X141355880Y-91639000D01*
G75*
G02*
X141205880Y-91489000I0J150000D01*
G01*
X141205880Y-89839000D01*
G75*
G02*
X141355880Y-89689000I150000J0D01*
G01*
G37*
G36*
G01*
X142625880Y-89689000D02*
X142925880Y-89689000D01*
G75*
G02*
X143075880Y-89839000I0J-150000D01*
G01*
X143075880Y-91489000D01*
G75*
G02*
X142925880Y-91639000I-150000J0D01*
G01*
X142625880Y-91639000D01*
G75*
G02*
X142475880Y-91489000I0J150000D01*
G01*
X142475880Y-89839000D01*
G75*
G02*
X142625880Y-89689000I150000J0D01*
G01*
G37*
G36*
G01*
X143895880Y-89689000D02*
X144195880Y-89689000D01*
G75*
G02*
X144345880Y-89839000I0J-150000D01*
G01*
X144345880Y-91489000D01*
G75*
G02*
X144195880Y-91639000I-150000J0D01*
G01*
X143895880Y-91639000D01*
G75*
G02*
X143745880Y-91489000I0J150000D01*
G01*
X143745880Y-89839000D01*
G75*
G02*
X143895880Y-89689000I150000J0D01*
G01*
G37*
G36*
G01*
X145165880Y-89689000D02*
X145465880Y-89689000D01*
G75*
G02*
X145615880Y-89839000I0J-150000D01*
G01*
X145615880Y-91489000D01*
G75*
G02*
X145465880Y-91639000I-150000J0D01*
G01*
X145165880Y-91639000D01*
G75*
G02*
X145015880Y-91489000I0J150000D01*
G01*
X145015880Y-89839000D01*
G75*
G02*
X145165880Y-89689000I150000J0D01*
G01*
G37*
G36*
G01*
X146435880Y-89689000D02*
X146735880Y-89689000D01*
G75*
G02*
X146885880Y-89839000I0J-150000D01*
G01*
X146885880Y-91489000D01*
G75*
G02*
X146735880Y-91639000I-150000J0D01*
G01*
X146435880Y-91639000D01*
G75*
G02*
X146285880Y-91489000I0J150000D01*
G01*
X146285880Y-89839000D01*
G75*
G02*
X146435880Y-89689000I150000J0D01*
G01*
G37*
%TD*%
%TO.C,U1*%
G36*
G01*
X137915880Y-99909000D02*
X137615880Y-99909000D01*
G75*
G02*
X137465880Y-99759000I0J150000D01*
G01*
X137465880Y-98109000D01*
G75*
G02*
X137615880Y-97959000I150000J0D01*
G01*
X137915880Y-97959000D01*
G75*
G02*
X138065880Y-98109000I0J-150000D01*
G01*
X138065880Y-99759000D01*
G75*
G02*
X137915880Y-99909000I-150000J0D01*
G01*
G37*
G36*
G01*
X139185880Y-99909000D02*
X138885880Y-99909000D01*
G75*
G02*
X138735880Y-99759000I0J150000D01*
G01*
X138735880Y-98109000D01*
G75*
G02*
X138885880Y-97959000I150000J0D01*
G01*
X139185880Y-97959000D01*
G75*
G02*
X139335880Y-98109000I0J-150000D01*
G01*
X139335880Y-99759000D01*
G75*
G02*
X139185880Y-99909000I-150000J0D01*
G01*
G37*
G36*
G01*
X140455880Y-99909000D02*
X140155880Y-99909000D01*
G75*
G02*
X140005880Y-99759000I0J150000D01*
G01*
X140005880Y-98109000D01*
G75*
G02*
X140155880Y-97959000I150000J0D01*
G01*
X140455880Y-97959000D01*
G75*
G02*
X140605880Y-98109000I0J-150000D01*
G01*
X140605880Y-99759000D01*
G75*
G02*
X140455880Y-99909000I-150000J0D01*
G01*
G37*
G36*
G01*
X141725880Y-99909000D02*
X141425880Y-99909000D01*
G75*
G02*
X141275880Y-99759000I0J150000D01*
G01*
X141275880Y-98109000D01*
G75*
G02*
X141425880Y-97959000I150000J0D01*
G01*
X141725880Y-97959000D01*
G75*
G02*
X141875880Y-98109000I0J-150000D01*
G01*
X141875880Y-99759000D01*
G75*
G02*
X141725880Y-99909000I-150000J0D01*
G01*
G37*
G36*
G01*
X141725880Y-104859000D02*
X141425880Y-104859000D01*
G75*
G02*
X141275880Y-104709000I0J150000D01*
G01*
X141275880Y-103059000D01*
G75*
G02*
X141425880Y-102909000I150000J0D01*
G01*
X141725880Y-102909000D01*
G75*
G02*
X141875880Y-103059000I0J-150000D01*
G01*
X141875880Y-104709000D01*
G75*
G02*
X141725880Y-104859000I-150000J0D01*
G01*
G37*
G36*
G01*
X140455880Y-104859000D02*
X140155880Y-104859000D01*
G75*
G02*
X140005880Y-104709000I0J150000D01*
G01*
X140005880Y-103059000D01*
G75*
G02*
X140155880Y-102909000I150000J0D01*
G01*
X140455880Y-102909000D01*
G75*
G02*
X140605880Y-103059000I0J-150000D01*
G01*
X140605880Y-104709000D01*
G75*
G02*
X140455880Y-104859000I-150000J0D01*
G01*
G37*
G36*
G01*
X139185880Y-104859000D02*
X138885880Y-104859000D01*
G75*
G02*
X138735880Y-104709000I0J150000D01*
G01*
X138735880Y-103059000D01*
G75*
G02*
X138885880Y-102909000I150000J0D01*
G01*
X139185880Y-102909000D01*
G75*
G02*
X139335880Y-103059000I0J-150000D01*
G01*
X139335880Y-104709000D01*
G75*
G02*
X139185880Y-104859000I-150000J0D01*
G01*
G37*
G36*
G01*
X137915880Y-104859000D02*
X137615880Y-104859000D01*
G75*
G02*
X137465880Y-104709000I0J150000D01*
G01*
X137465880Y-103059000D01*
G75*
G02*
X137615880Y-102909000I150000J0D01*
G01*
X137915880Y-102909000D01*
G75*
G02*
X138065880Y-103059000I0J-150000D01*
G01*
X138065880Y-104709000D01*
G75*
G02*
X137915880Y-104859000I-150000J0D01*
G01*
G37*
%TD*%
%TO.C,R5*%
G36*
G01*
X163022498Y-88468999D02*
X163022498Y-89369001D01*
G75*
G02*
X162772499Y-89619000I-249999J0D01*
G01*
X162072497Y-89619000D01*
G75*
G02*
X161822498Y-89369001I0J249999D01*
G01*
X161822498Y-88468999D01*
G75*
G02*
X162072497Y-88219000I249999J0D01*
G01*
X162772499Y-88219000D01*
G75*
G02*
X163022498Y-88468999I0J-249999D01*
G01*
G37*
G36*
G01*
X165022498Y-88468999D02*
X165022498Y-89369001D01*
G75*
G02*
X164772499Y-89619000I-249999J0D01*
G01*
X164072497Y-89619000D01*
G75*
G02*
X163822498Y-89369001I0J249999D01*
G01*
X163822498Y-88468999D01*
G75*
G02*
X164072497Y-88219000I249999J0D01*
G01*
X164772499Y-88219000D01*
G75*
G02*
X165022498Y-88468999I0J-249999D01*
G01*
G37*
%TD*%
%TO.C,R4*%
G36*
G01*
X163022498Y-94741120D02*
X163022498Y-95641122D01*
G75*
G02*
X162772499Y-95891121I-249999J0D01*
G01*
X162072497Y-95891121D01*
G75*
G02*
X161822498Y-95641122I0J249999D01*
G01*
X161822498Y-94741120D01*
G75*
G02*
X162072497Y-94491121I249999J0D01*
G01*
X162772499Y-94491121D01*
G75*
G02*
X163022498Y-94741120I0J-249999D01*
G01*
G37*
G36*
G01*
X165022498Y-94741120D02*
X165022498Y-95641122D01*
G75*
G02*
X164772499Y-95891121I-249999J0D01*
G01*
X164072497Y-95891121D01*
G75*
G02*
X163822498Y-95641122I0J249999D01*
G01*
X163822498Y-94741120D01*
G75*
G02*
X164072497Y-94491121I249999J0D01*
G01*
X164772499Y-94491121D01*
G75*
G02*
X165022498Y-94741120I0J-249999D01*
G01*
G37*
%TD*%
%TO.C,R2*%
G36*
G01*
X163822498Y-93563338D02*
X163822498Y-92663336D01*
G75*
G02*
X164072497Y-92413337I249999J0D01*
G01*
X164772499Y-92413337D01*
G75*
G02*
X165022498Y-92663336I0J-249999D01*
G01*
X165022498Y-93563338D01*
G75*
G02*
X164772499Y-93813337I-249999J0D01*
G01*
X164072497Y-93813337D01*
G75*
G02*
X163822498Y-93563338I0J249999D01*
G01*
G37*
G36*
G01*
X161822498Y-93563338D02*
X161822498Y-92663336D01*
G75*
G02*
X162072497Y-92413337I249999J0D01*
G01*
X162772499Y-92413337D01*
G75*
G02*
X163022498Y-92663336I0J-249999D01*
G01*
X163022498Y-93563338D01*
G75*
G02*
X162772499Y-93813337I-249999J0D01*
G01*
X162072497Y-93813337D01*
G75*
G02*
X161822498Y-93563338I0J249999D01*
G01*
G37*
%TD*%
%TO.C,R1*%
G36*
G01*
X157610144Y-92673471D02*
X157610144Y-93573473D01*
G75*
G02*
X157360145Y-93823472I-249999J0D01*
G01*
X156660143Y-93823472D01*
G75*
G02*
X156410144Y-93573473I0J249999D01*
G01*
X156410144Y-92673471D01*
G75*
G02*
X156660143Y-92423472I249999J0D01*
G01*
X157360145Y-92423472D01*
G75*
G02*
X157610144Y-92673471I0J-249999D01*
G01*
G37*
G36*
G01*
X159610144Y-92673471D02*
X159610144Y-93573473D01*
G75*
G02*
X159360145Y-93823472I-249999J0D01*
G01*
X158660143Y-93823472D01*
G75*
G02*
X158410144Y-93573473I0J249999D01*
G01*
X158410144Y-92673471D01*
G75*
G02*
X158660143Y-92423472I249999J0D01*
G01*
X159360145Y-92423472D01*
G75*
G02*
X159610144Y-92673471I0J-249999D01*
G01*
G37*
%TD*%
D12*
%TO.C,Q1*%
X158010144Y-89324580D03*
X158960144Y-91324580D03*
X157060144Y-91324580D03*
%TD*%
%TO.C,D6*%
G36*
G01*
X157230879Y-84062544D02*
X158130881Y-84062544D01*
G75*
G02*
X158380880Y-84312543I0J-249999D01*
G01*
X158380880Y-84962545D01*
G75*
G02*
X158130881Y-85212544I-249999J0D01*
G01*
X157230879Y-85212544D01*
G75*
G02*
X156980880Y-84962545I0J249999D01*
G01*
X156980880Y-84312543D01*
G75*
G02*
X157230879Y-84062544I249999J0D01*
G01*
G37*
G36*
G01*
X157230879Y-82012544D02*
X158130881Y-82012544D01*
G75*
G02*
X158380880Y-82262543I0J-249999D01*
G01*
X158380880Y-82912545D01*
G75*
G02*
X158130881Y-83162544I-249999J0D01*
G01*
X157230879Y-83162544D01*
G75*
G02*
X156980880Y-82912545I0J249999D01*
G01*
X156980880Y-82262543D01*
G75*
G02*
X157230879Y-82012544I249999J0D01*
G01*
G37*
%TD*%
%TO.C,D5*%
G36*
G01*
X154650879Y-84062544D02*
X155550881Y-84062544D01*
G75*
G02*
X155800880Y-84312543I0J-249999D01*
G01*
X155800880Y-84962545D01*
G75*
G02*
X155550881Y-85212544I-249999J0D01*
G01*
X154650879Y-85212544D01*
G75*
G02*
X154400880Y-84962545I0J249999D01*
G01*
X154400880Y-84312543D01*
G75*
G02*
X154650879Y-84062544I249999J0D01*
G01*
G37*
G36*
G01*
X154650879Y-82012544D02*
X155550881Y-82012544D01*
G75*
G02*
X155800880Y-82262543I0J-249999D01*
G01*
X155800880Y-82912545D01*
G75*
G02*
X155550881Y-83162544I-249999J0D01*
G01*
X154650879Y-83162544D01*
G75*
G02*
X154400880Y-82912545I0J249999D01*
G01*
X154400880Y-82262543D01*
G75*
G02*
X154650879Y-82012544I249999J0D01*
G01*
G37*
%TD*%
%TO.C,D4*%
G36*
G01*
X152070879Y-84062544D02*
X152970881Y-84062544D01*
G75*
G02*
X153220880Y-84312543I0J-249999D01*
G01*
X153220880Y-84962545D01*
G75*
G02*
X152970881Y-85212544I-249999J0D01*
G01*
X152070879Y-85212544D01*
G75*
G02*
X151820880Y-84962545I0J249999D01*
G01*
X151820880Y-84312543D01*
G75*
G02*
X152070879Y-84062544I249999J0D01*
G01*
G37*
G36*
G01*
X152070879Y-82012544D02*
X152970881Y-82012544D01*
G75*
G02*
X153220880Y-82262543I0J-249999D01*
G01*
X153220880Y-82912545D01*
G75*
G02*
X152970881Y-83162544I-249999J0D01*
G01*
X152070879Y-83162544D01*
G75*
G02*
X151820880Y-82912545I0J249999D01*
G01*
X151820880Y-82262543D01*
G75*
G02*
X152070879Y-82012544I249999J0D01*
G01*
G37*
%TD*%
%TO.C,D3*%
G36*
G01*
X149490879Y-84062544D02*
X150390881Y-84062544D01*
G75*
G02*
X150640880Y-84312543I0J-249999D01*
G01*
X150640880Y-84962545D01*
G75*
G02*
X150390881Y-85212544I-249999J0D01*
G01*
X149490879Y-85212544D01*
G75*
G02*
X149240880Y-84962545I0J249999D01*
G01*
X149240880Y-84312543D01*
G75*
G02*
X149490879Y-84062544I249999J0D01*
G01*
G37*
G36*
G01*
X149490879Y-82012544D02*
X150390881Y-82012544D01*
G75*
G02*
X150640880Y-82262543I0J-249999D01*
G01*
X150640880Y-82912545D01*
G75*
G02*
X150390881Y-83162544I-249999J0D01*
G01*
X149490879Y-83162544D01*
G75*
G02*
X149240880Y-82912545I0J249999D01*
G01*
X149240880Y-82262543D01*
G75*
G02*
X149490879Y-82012544I249999J0D01*
G01*
G37*
%TD*%
%TO.C,D2*%
G36*
G01*
X146910879Y-84062544D02*
X147810881Y-84062544D01*
G75*
G02*
X148060880Y-84312543I0J-249999D01*
G01*
X148060880Y-84962545D01*
G75*
G02*
X147810881Y-85212544I-249999J0D01*
G01*
X146910879Y-85212544D01*
G75*
G02*
X146660880Y-84962545I0J249999D01*
G01*
X146660880Y-84312543D01*
G75*
G02*
X146910879Y-84062544I249999J0D01*
G01*
G37*
G36*
G01*
X146910879Y-82012544D02*
X147810881Y-82012544D01*
G75*
G02*
X148060880Y-82262543I0J-249999D01*
G01*
X148060880Y-82912545D01*
G75*
G02*
X147810881Y-83162544I-249999J0D01*
G01*
X146910879Y-83162544D01*
G75*
G02*
X146660880Y-82912545I0J249999D01*
G01*
X146660880Y-82262543D01*
G75*
G02*
X146910879Y-82012544I249999J0D01*
G01*
G37*
%TD*%
%TO.C,D1*%
G36*
G01*
X144330879Y-84062544D02*
X145230881Y-84062544D01*
G75*
G02*
X145480880Y-84312543I0J-249999D01*
G01*
X145480880Y-84962545D01*
G75*
G02*
X145230881Y-85212544I-249999J0D01*
G01*
X144330879Y-85212544D01*
G75*
G02*
X144080880Y-84962545I0J249999D01*
G01*
X144080880Y-84312543D01*
G75*
G02*
X144330879Y-84062544I249999J0D01*
G01*
G37*
G36*
G01*
X144330879Y-82012544D02*
X145230881Y-82012544D01*
G75*
G02*
X145480880Y-82262543I0J-249999D01*
G01*
X145480880Y-82912545D01*
G75*
G02*
X145230881Y-83162544I-249999J0D01*
G01*
X144330879Y-83162544D01*
G75*
G02*
X144080880Y-82912545I0J249999D01*
G01*
X144080880Y-82262543D01*
G75*
G02*
X144330879Y-82012544I249999J0D01*
G01*
G37*
%TD*%
%TO.C,C2*%
G36*
G01*
X163872498Y-91509445D02*
X163872498Y-90559445D01*
G75*
G02*
X164122498Y-90309445I250000J0D01*
G01*
X164797498Y-90309445D01*
G75*
G02*
X165047498Y-90559445I0J-250000D01*
G01*
X165047498Y-91509445D01*
G75*
G02*
X164797498Y-91759445I-250000J0D01*
G01*
X164122498Y-91759445D01*
G75*
G02*
X163872498Y-91509445I0J250000D01*
G01*
G37*
G36*
G01*
X161797498Y-91509445D02*
X161797498Y-90559445D01*
G75*
G02*
X162047498Y-90309445I250000J0D01*
G01*
X162722498Y-90309445D01*
G75*
G02*
X162972498Y-90559445I0J-250000D01*
G01*
X162972498Y-91509445D01*
G75*
G02*
X162722498Y-91759445I-250000J0D01*
G01*
X162047498Y-91759445D01*
G75*
G02*
X161797498Y-91509445I0J250000D01*
G01*
G37*
%TD*%
M02*
