%TF.GenerationSoftware,KiCad,Pcbnew,(5.1.9-0-10_14)*%
%TF.CreationDate,2021-03-11T21:56:35-05:00*%
%TF.ProjectId,getting_to_blinky,67657474-696e-4675-9f74-6f5f626c696e,rev?*%
%TF.SameCoordinates,Original*%
%TF.FileFunction,Soldermask,Top*%
%TF.FilePolarity,Negative*%
%FSLAX46Y46*%
G04 Gerber Fmt 4.6, Leading zero omitted, Abs format (unit mm)*
G04 Created by KiCad (PCBNEW (5.1.9-0-10_14)) date 2021-03-11 21:56:35*
%MOMM*%
%LPD*%
G01*
G04 APERTURE LIST*
G04 APERTURE END LIST*
%TO.C,U1*%
G36*
G01*
X133500000Y-102245000D02*
X133500000Y-101945000D01*
G75*
G02*
X133650000Y-101795000I150000J0D01*
G01*
X135300000Y-101795000D01*
G75*
G02*
X135450000Y-101945000I0J-150000D01*
G01*
X135450000Y-102245000D01*
G75*
G02*
X135300000Y-102395000I-150000J0D01*
G01*
X133650000Y-102395000D01*
G75*
G02*
X133500000Y-102245000I0J150000D01*
G01*
G37*
G36*
G01*
X133500000Y-103515000D02*
X133500000Y-103215000D01*
G75*
G02*
X133650000Y-103065000I150000J0D01*
G01*
X135300000Y-103065000D01*
G75*
G02*
X135450000Y-103215000I0J-150000D01*
G01*
X135450000Y-103515000D01*
G75*
G02*
X135300000Y-103665000I-150000J0D01*
G01*
X133650000Y-103665000D01*
G75*
G02*
X133500000Y-103515000I0J150000D01*
G01*
G37*
G36*
G01*
X133500000Y-104785000D02*
X133500000Y-104485000D01*
G75*
G02*
X133650000Y-104335000I150000J0D01*
G01*
X135300000Y-104335000D01*
G75*
G02*
X135450000Y-104485000I0J-150000D01*
G01*
X135450000Y-104785000D01*
G75*
G02*
X135300000Y-104935000I-150000J0D01*
G01*
X133650000Y-104935000D01*
G75*
G02*
X133500000Y-104785000I0J150000D01*
G01*
G37*
G36*
G01*
X133500000Y-106055000D02*
X133500000Y-105755000D01*
G75*
G02*
X133650000Y-105605000I150000J0D01*
G01*
X135300000Y-105605000D01*
G75*
G02*
X135450000Y-105755000I0J-150000D01*
G01*
X135450000Y-106055000D01*
G75*
G02*
X135300000Y-106205000I-150000J0D01*
G01*
X133650000Y-106205000D01*
G75*
G02*
X133500000Y-106055000I0J150000D01*
G01*
G37*
G36*
G01*
X128550000Y-106055000D02*
X128550000Y-105755000D01*
G75*
G02*
X128700000Y-105605000I150000J0D01*
G01*
X130350000Y-105605000D01*
G75*
G02*
X130500000Y-105755000I0J-150000D01*
G01*
X130500000Y-106055000D01*
G75*
G02*
X130350000Y-106205000I-150000J0D01*
G01*
X128700000Y-106205000D01*
G75*
G02*
X128550000Y-106055000I0J150000D01*
G01*
G37*
G36*
G01*
X128550000Y-104785000D02*
X128550000Y-104485000D01*
G75*
G02*
X128700000Y-104335000I150000J0D01*
G01*
X130350000Y-104335000D01*
G75*
G02*
X130500000Y-104485000I0J-150000D01*
G01*
X130500000Y-104785000D01*
G75*
G02*
X130350000Y-104935000I-150000J0D01*
G01*
X128700000Y-104935000D01*
G75*
G02*
X128550000Y-104785000I0J150000D01*
G01*
G37*
G36*
G01*
X128550000Y-103515000D02*
X128550000Y-103215000D01*
G75*
G02*
X128700000Y-103065000I150000J0D01*
G01*
X130350000Y-103065000D01*
G75*
G02*
X130500000Y-103215000I0J-150000D01*
G01*
X130500000Y-103515000D01*
G75*
G02*
X130350000Y-103665000I-150000J0D01*
G01*
X128700000Y-103665000D01*
G75*
G02*
X128550000Y-103515000I0J150000D01*
G01*
G37*
G36*
G01*
X128550000Y-102245000D02*
X128550000Y-101945000D01*
G75*
G02*
X128700000Y-101795000I150000J0D01*
G01*
X130350000Y-101795000D01*
G75*
G02*
X130500000Y-101945000I0J-150000D01*
G01*
X130500000Y-102245000D01*
G75*
G02*
X130350000Y-102395000I-150000J0D01*
G01*
X128700000Y-102395000D01*
G75*
G02*
X128550000Y-102245000I0J150000D01*
G01*
G37*
%TD*%
%TO.C,R3*%
G36*
G01*
X124549999Y-101400000D02*
X125450001Y-101400000D01*
G75*
G02*
X125700000Y-101649999I0J-249999D01*
G01*
X125700000Y-102350001D01*
G75*
G02*
X125450001Y-102600000I-249999J0D01*
G01*
X124549999Y-102600000D01*
G75*
G02*
X124300000Y-102350001I0J249999D01*
G01*
X124300000Y-101649999D01*
G75*
G02*
X124549999Y-101400000I249999J0D01*
G01*
G37*
G36*
G01*
X124549999Y-103400000D02*
X125450001Y-103400000D01*
G75*
G02*
X125700000Y-103649999I0J-249999D01*
G01*
X125700000Y-104350001D01*
G75*
G02*
X125450001Y-104600000I-249999J0D01*
G01*
X124549999Y-104600000D01*
G75*
G02*
X124300000Y-104350001I0J249999D01*
G01*
X124300000Y-103649999D01*
G75*
G02*
X124549999Y-103400000I249999J0D01*
G01*
G37*
%TD*%
%TO.C,R2*%
G36*
G01*
X138549999Y-106400000D02*
X139450001Y-106400000D01*
G75*
G02*
X139700000Y-106649999I0J-249999D01*
G01*
X139700000Y-107350001D01*
G75*
G02*
X139450001Y-107600000I-249999J0D01*
G01*
X138549999Y-107600000D01*
G75*
G02*
X138300000Y-107350001I0J249999D01*
G01*
X138300000Y-106649999D01*
G75*
G02*
X138549999Y-106400000I249999J0D01*
G01*
G37*
G36*
G01*
X138549999Y-104400000D02*
X139450001Y-104400000D01*
G75*
G02*
X139700000Y-104649999I0J-249999D01*
G01*
X139700000Y-105350001D01*
G75*
G02*
X139450001Y-105600000I-249999J0D01*
G01*
X138549999Y-105600000D01*
G75*
G02*
X138300000Y-105350001I0J249999D01*
G01*
X138300000Y-104649999D01*
G75*
G02*
X138549999Y-104400000I249999J0D01*
G01*
G37*
%TD*%
%TO.C,R1*%
G36*
G01*
X138549999Y-101400000D02*
X139450001Y-101400000D01*
G75*
G02*
X139700000Y-101649999I0J-249999D01*
G01*
X139700000Y-102350001D01*
G75*
G02*
X139450001Y-102600000I-249999J0D01*
G01*
X138549999Y-102600000D01*
G75*
G02*
X138300000Y-102350001I0J249999D01*
G01*
X138300000Y-101649999D01*
G75*
G02*
X138549999Y-101400000I249999J0D01*
G01*
G37*
G36*
G01*
X138549999Y-99400000D02*
X139450001Y-99400000D01*
G75*
G02*
X139700000Y-99649999I0J-249999D01*
G01*
X139700000Y-100350001D01*
G75*
G02*
X139450001Y-100600000I-249999J0D01*
G01*
X138549999Y-100600000D01*
G75*
G02*
X138300000Y-100350001I0J249999D01*
G01*
X138300000Y-99649999D01*
G75*
G02*
X138549999Y-99400000I249999J0D01*
G01*
G37*
%TD*%
%TO.C,D1*%
G36*
G01*
X125450001Y-107550000D02*
X124549999Y-107550000D01*
G75*
G02*
X124300000Y-107300001I0J249999D01*
G01*
X124300000Y-106649999D01*
G75*
G02*
X124549999Y-106400000I249999J0D01*
G01*
X125450001Y-106400000D01*
G75*
G02*
X125700000Y-106649999I0J-249999D01*
G01*
X125700000Y-107300001D01*
G75*
G02*
X125450001Y-107550000I-249999J0D01*
G01*
G37*
G36*
G01*
X125450001Y-109600000D02*
X124549999Y-109600000D01*
G75*
G02*
X124300000Y-109350001I0J249999D01*
G01*
X124300000Y-108699999D01*
G75*
G02*
X124549999Y-108450000I249999J0D01*
G01*
X125450001Y-108450000D01*
G75*
G02*
X125700000Y-108699999I0J-249999D01*
G01*
X125700000Y-109350001D01*
G75*
G02*
X125450001Y-109600000I-249999J0D01*
G01*
G37*
%TD*%
%TO.C,C1*%
G36*
G01*
X125475000Y-99587500D02*
X124525000Y-99587500D01*
G75*
G02*
X124275000Y-99337500I0J250000D01*
G01*
X124275000Y-98662500D01*
G75*
G02*
X124525000Y-98412500I250000J0D01*
G01*
X125475000Y-98412500D01*
G75*
G02*
X125725000Y-98662500I0J-250000D01*
G01*
X125725000Y-99337500D01*
G75*
G02*
X125475000Y-99587500I-250000J0D01*
G01*
G37*
G36*
G01*
X125475000Y-97512500D02*
X124525000Y-97512500D01*
G75*
G02*
X124275000Y-97262500I0J250000D01*
G01*
X124275000Y-96587500D01*
G75*
G02*
X124525000Y-96337500I250000J0D01*
G01*
X125475000Y-96337500D01*
G75*
G02*
X125725000Y-96587500I0J-250000D01*
G01*
X125725000Y-97262500D01*
G75*
G02*
X125475000Y-97512500I-250000J0D01*
G01*
G37*
%TD*%
M02*
