%TF.GenerationSoftware,KiCad,Pcbnew,(5.1.9-0-10_14)*%
%TF.CreationDate,2021-03-11T21:56:35-05:00*%
%TF.ProjectId,getting_to_blinky,67657474-696e-4675-9f74-6f5f626c696e,rev?*%
%TF.SameCoordinates,Original*%
%TF.FileFunction,Copper,L1,Top*%
%TF.FilePolarity,Positive*%
%FSLAX46Y46*%
G04 Gerber Fmt 4.6, Leading zero omitted, Abs format (unit mm)*
G04 Created by KiCad (PCBNEW (5.1.9-0-10_14)) date 2021-03-11 21:56:35*
%MOMM*%
%LPD*%
G01*
G04 APERTURE LIST*
%TA.AperFunction,ViaPad*%
%ADD10C,0.800000*%
%TD*%
%TA.AperFunction,Conductor*%
%ADD11C,0.250000*%
%TD*%
%TA.AperFunction,Conductor*%
%ADD12C,0.100000*%
%TD*%
G04 APERTURE END LIST*
%TO.P,U1,8*%
%TO.N,/VDD*%
%TA.AperFunction,SMDPad,CuDef*%
G36*
G01*
X133500000Y-102245000D02*
X133500000Y-101945000D01*
G75*
G02*
X133650000Y-101795000I150000J0D01*
G01*
X135300000Y-101795000D01*
G75*
G02*
X135450000Y-101945000I0J-150000D01*
G01*
X135450000Y-102245000D01*
G75*
G02*
X135300000Y-102395000I-150000J0D01*
G01*
X133650000Y-102395000D01*
G75*
G02*
X133500000Y-102245000I0J150000D01*
G01*
G37*
%TD.AperFunction*%
%TO.P,U1,7*%
%TO.N,Net-(R1-Pad2)*%
%TA.AperFunction,SMDPad,CuDef*%
G36*
G01*
X133500000Y-103515000D02*
X133500000Y-103215000D01*
G75*
G02*
X133650000Y-103065000I150000J0D01*
G01*
X135300000Y-103065000D01*
G75*
G02*
X135450000Y-103215000I0J-150000D01*
G01*
X135450000Y-103515000D01*
G75*
G02*
X135300000Y-103665000I-150000J0D01*
G01*
X133650000Y-103665000D01*
G75*
G02*
X133500000Y-103515000I0J150000D01*
G01*
G37*
%TD.AperFunction*%
%TO.P,U1,6*%
%TO.N,Net-(C1-Pad1)*%
%TA.AperFunction,SMDPad,CuDef*%
G36*
G01*
X133500000Y-104785000D02*
X133500000Y-104485000D01*
G75*
G02*
X133650000Y-104335000I150000J0D01*
G01*
X135300000Y-104335000D01*
G75*
G02*
X135450000Y-104485000I0J-150000D01*
G01*
X135450000Y-104785000D01*
G75*
G02*
X135300000Y-104935000I-150000J0D01*
G01*
X133650000Y-104935000D01*
G75*
G02*
X133500000Y-104785000I0J150000D01*
G01*
G37*
%TD.AperFunction*%
%TO.P,U1,5*%
%TO.N,Net-(U1-Pad5)*%
%TA.AperFunction,SMDPad,CuDef*%
G36*
G01*
X133500000Y-106055000D02*
X133500000Y-105755000D01*
G75*
G02*
X133650000Y-105605000I150000J0D01*
G01*
X135300000Y-105605000D01*
G75*
G02*
X135450000Y-105755000I0J-150000D01*
G01*
X135450000Y-106055000D01*
G75*
G02*
X135300000Y-106205000I-150000J0D01*
G01*
X133650000Y-106205000D01*
G75*
G02*
X133500000Y-106055000I0J150000D01*
G01*
G37*
%TD.AperFunction*%
%TO.P,U1,4*%
%TO.N,/VDD*%
%TA.AperFunction,SMDPad,CuDef*%
G36*
G01*
X128550000Y-106055000D02*
X128550000Y-105755000D01*
G75*
G02*
X128700000Y-105605000I150000J0D01*
G01*
X130350000Y-105605000D01*
G75*
G02*
X130500000Y-105755000I0J-150000D01*
G01*
X130500000Y-106055000D01*
G75*
G02*
X130350000Y-106205000I-150000J0D01*
G01*
X128700000Y-106205000D01*
G75*
G02*
X128550000Y-106055000I0J150000D01*
G01*
G37*
%TD.AperFunction*%
%TO.P,U1,3*%
%TO.N,Net-(R3-Pad1)*%
%TA.AperFunction,SMDPad,CuDef*%
G36*
G01*
X128550000Y-104785000D02*
X128550000Y-104485000D01*
G75*
G02*
X128700000Y-104335000I150000J0D01*
G01*
X130350000Y-104335000D01*
G75*
G02*
X130500000Y-104485000I0J-150000D01*
G01*
X130500000Y-104785000D01*
G75*
G02*
X130350000Y-104935000I-150000J0D01*
G01*
X128700000Y-104935000D01*
G75*
G02*
X128550000Y-104785000I0J150000D01*
G01*
G37*
%TD.AperFunction*%
%TO.P,U1,2*%
%TO.N,Net-(C1-Pad1)*%
%TA.AperFunction,SMDPad,CuDef*%
G36*
G01*
X128550000Y-103515000D02*
X128550000Y-103215000D01*
G75*
G02*
X128700000Y-103065000I150000J0D01*
G01*
X130350000Y-103065000D01*
G75*
G02*
X130500000Y-103215000I0J-150000D01*
G01*
X130500000Y-103515000D01*
G75*
G02*
X130350000Y-103665000I-150000J0D01*
G01*
X128700000Y-103665000D01*
G75*
G02*
X128550000Y-103515000I0J150000D01*
G01*
G37*
%TD.AperFunction*%
%TO.P,U1,1*%
%TO.N,GND*%
%TA.AperFunction,SMDPad,CuDef*%
G36*
G01*
X128550000Y-102245000D02*
X128550000Y-101945000D01*
G75*
G02*
X128700000Y-101795000I150000J0D01*
G01*
X130350000Y-101795000D01*
G75*
G02*
X130500000Y-101945000I0J-150000D01*
G01*
X130500000Y-102245000D01*
G75*
G02*
X130350000Y-102395000I-150000J0D01*
G01*
X128700000Y-102395000D01*
G75*
G02*
X128550000Y-102245000I0J150000D01*
G01*
G37*
%TD.AperFunction*%
%TD*%
%TO.P,R3,1*%
%TO.N,Net-(R3-Pad1)*%
%TA.AperFunction,SMDPad,CuDef*%
G36*
G01*
X124549999Y-101400000D02*
X125450001Y-101400000D01*
G75*
G02*
X125700000Y-101649999I0J-249999D01*
G01*
X125700000Y-102350001D01*
G75*
G02*
X125450001Y-102600000I-249999J0D01*
G01*
X124549999Y-102600000D01*
G75*
G02*
X124300000Y-102350001I0J249999D01*
G01*
X124300000Y-101649999D01*
G75*
G02*
X124549999Y-101400000I249999J0D01*
G01*
G37*
%TD.AperFunction*%
%TO.P,R3,2*%
%TO.N,Net-(D1-Pad2)*%
%TA.AperFunction,SMDPad,CuDef*%
G36*
G01*
X124549999Y-103400000D02*
X125450001Y-103400000D01*
G75*
G02*
X125700000Y-103649999I0J-249999D01*
G01*
X125700000Y-104350001D01*
G75*
G02*
X125450001Y-104600000I-249999J0D01*
G01*
X124549999Y-104600000D01*
G75*
G02*
X124300000Y-104350001I0J249999D01*
G01*
X124300000Y-103649999D01*
G75*
G02*
X124549999Y-103400000I249999J0D01*
G01*
G37*
%TD.AperFunction*%
%TD*%
%TO.P,R2,2*%
%TO.N,Net-(C1-Pad1)*%
%TA.AperFunction,SMDPad,CuDef*%
G36*
G01*
X138549999Y-106400000D02*
X139450001Y-106400000D01*
G75*
G02*
X139700000Y-106649999I0J-249999D01*
G01*
X139700000Y-107350001D01*
G75*
G02*
X139450001Y-107600000I-249999J0D01*
G01*
X138549999Y-107600000D01*
G75*
G02*
X138300000Y-107350001I0J249999D01*
G01*
X138300000Y-106649999D01*
G75*
G02*
X138549999Y-106400000I249999J0D01*
G01*
G37*
%TD.AperFunction*%
%TO.P,R2,1*%
%TO.N,Net-(R1-Pad2)*%
%TA.AperFunction,SMDPad,CuDef*%
G36*
G01*
X138549999Y-104400000D02*
X139450001Y-104400000D01*
G75*
G02*
X139700000Y-104649999I0J-249999D01*
G01*
X139700000Y-105350001D01*
G75*
G02*
X139450001Y-105600000I-249999J0D01*
G01*
X138549999Y-105600000D01*
G75*
G02*
X138300000Y-105350001I0J249999D01*
G01*
X138300000Y-104649999D01*
G75*
G02*
X138549999Y-104400000I249999J0D01*
G01*
G37*
%TD.AperFunction*%
%TD*%
%TO.P,R1,2*%
%TO.N,Net-(R1-Pad2)*%
%TA.AperFunction,SMDPad,CuDef*%
G36*
G01*
X138549999Y-101400000D02*
X139450001Y-101400000D01*
G75*
G02*
X139700000Y-101649999I0J-249999D01*
G01*
X139700000Y-102350001D01*
G75*
G02*
X139450001Y-102600000I-249999J0D01*
G01*
X138549999Y-102600000D01*
G75*
G02*
X138300000Y-102350001I0J249999D01*
G01*
X138300000Y-101649999D01*
G75*
G02*
X138549999Y-101400000I249999J0D01*
G01*
G37*
%TD.AperFunction*%
%TO.P,R1,1*%
%TO.N,/VDD*%
%TA.AperFunction,SMDPad,CuDef*%
G36*
G01*
X138549999Y-99400000D02*
X139450001Y-99400000D01*
G75*
G02*
X139700000Y-99649999I0J-249999D01*
G01*
X139700000Y-100350001D01*
G75*
G02*
X139450001Y-100600000I-249999J0D01*
G01*
X138549999Y-100600000D01*
G75*
G02*
X138300000Y-100350001I0J249999D01*
G01*
X138300000Y-99649999D01*
G75*
G02*
X138549999Y-99400000I249999J0D01*
G01*
G37*
%TD.AperFunction*%
%TD*%
%TO.P,D1,2*%
%TO.N,Net-(D1-Pad2)*%
%TA.AperFunction,SMDPad,CuDef*%
G36*
G01*
X125450001Y-107550000D02*
X124549999Y-107550000D01*
G75*
G02*
X124300000Y-107300001I0J249999D01*
G01*
X124300000Y-106649999D01*
G75*
G02*
X124549999Y-106400000I249999J0D01*
G01*
X125450001Y-106400000D01*
G75*
G02*
X125700000Y-106649999I0J-249999D01*
G01*
X125700000Y-107300001D01*
G75*
G02*
X125450001Y-107550000I-249999J0D01*
G01*
G37*
%TD.AperFunction*%
%TO.P,D1,1*%
%TO.N,GND*%
%TA.AperFunction,SMDPad,CuDef*%
G36*
G01*
X125450001Y-109600000D02*
X124549999Y-109600000D01*
G75*
G02*
X124300000Y-109350001I0J249999D01*
G01*
X124300000Y-108699999D01*
G75*
G02*
X124549999Y-108450000I249999J0D01*
G01*
X125450001Y-108450000D01*
G75*
G02*
X125700000Y-108699999I0J-249999D01*
G01*
X125700000Y-109350001D01*
G75*
G02*
X125450001Y-109600000I-249999J0D01*
G01*
G37*
%TD.AperFunction*%
%TD*%
%TO.P,C1,1*%
%TO.N,Net-(C1-Pad1)*%
%TA.AperFunction,SMDPad,CuDef*%
G36*
G01*
X125475000Y-99587500D02*
X124525000Y-99587500D01*
G75*
G02*
X124275000Y-99337500I0J250000D01*
G01*
X124275000Y-98662500D01*
G75*
G02*
X124525000Y-98412500I250000J0D01*
G01*
X125475000Y-98412500D01*
G75*
G02*
X125725000Y-98662500I0J-250000D01*
G01*
X125725000Y-99337500D01*
G75*
G02*
X125475000Y-99587500I-250000J0D01*
G01*
G37*
%TD.AperFunction*%
%TO.P,C1,2*%
%TO.N,GND*%
%TA.AperFunction,SMDPad,CuDef*%
G36*
G01*
X125475000Y-97512500D02*
X124525000Y-97512500D01*
G75*
G02*
X124275000Y-97262500I0J250000D01*
G01*
X124275000Y-96587500D01*
G75*
G02*
X124525000Y-96337500I250000J0D01*
G01*
X125475000Y-96337500D01*
G75*
G02*
X125725000Y-96587500I0J-250000D01*
G01*
X125725000Y-97262500D01*
G75*
G02*
X125475000Y-97512500I-250000J0D01*
G01*
G37*
%TD.AperFunction*%
%TD*%
D10*
%TO.N,GND*%
X125000000Y-111000000D03*
X125000000Y-95000000D03*
X129500000Y-99900000D03*
%TO.N,/VDD*%
X119000000Y-99000000D03*
X144780000Y-109220000D03*
%TD*%
D11*
%TO.N,GND*%
X125000000Y-109025000D02*
X125000000Y-109000000D01*
X125000000Y-109025000D02*
X125000000Y-111000000D01*
X125000000Y-96925000D02*
X125000000Y-95000000D01*
X129525000Y-99925000D02*
X129500000Y-99900000D01*
X129525000Y-102095000D02*
X129525000Y-99925000D01*
%TO.N,Net-(C1-Pad1)*%
X128777500Y-103365000D02*
X129525000Y-103365000D01*
X125000000Y-99587500D02*
X128777500Y-103365000D01*
X125000000Y-99000000D02*
X125000000Y-99587500D01*
X138300000Y-107000000D02*
X139000000Y-107000000D01*
X136635000Y-104635000D02*
X139000000Y-107000000D01*
X134475000Y-104635000D02*
X136635000Y-104635000D01*
X131365000Y-103365000D02*
X129525000Y-103365000D01*
X132635000Y-104635000D02*
X131365000Y-103365000D01*
X134475000Y-104635000D02*
X132635000Y-104635000D01*
%TO.N,Net-(D1-Pad2)*%
X125000000Y-104000000D02*
X125000000Y-106975000D01*
%TO.N,Net-(R1-Pad2)*%
X137635000Y-103365000D02*
X139000000Y-102000000D01*
X134475000Y-103365000D02*
X137635000Y-103365000D01*
X139000000Y-104800000D02*
X139000000Y-105000000D01*
X134475000Y-103365000D02*
X137565000Y-103365000D01*
X139000000Y-105000000D02*
X139000000Y-104600000D01*
X139000000Y-104600000D02*
X139000000Y-102000000D01*
%TO.N,Net-(R3-Pad1)*%
X127635000Y-104635000D02*
X129525000Y-104635000D01*
X125000000Y-102000000D02*
X127635000Y-104635000D01*
%TO.N,/VDD*%
X136905000Y-102095000D02*
X139000000Y-100000000D01*
X134475000Y-102095000D02*
X136905000Y-102095000D01*
%TD*%
%TO.N,/VDD*%
X147650000Y-118650000D02*
X116350000Y-118650000D01*
X116350000Y-108699999D01*
X123973428Y-108699999D01*
X123973428Y-109350001D01*
X123984507Y-109462484D01*
X124017317Y-109570645D01*
X124070598Y-109670327D01*
X124142302Y-109757698D01*
X124229673Y-109829402D01*
X124329355Y-109882683D01*
X124437516Y-109915493D01*
X124549999Y-109926572D01*
X124550000Y-109926572D01*
X124550001Y-110428730D01*
X124537839Y-110436856D01*
X124436856Y-110537839D01*
X124357513Y-110656584D01*
X124302861Y-110788525D01*
X124275000Y-110928594D01*
X124275000Y-111071406D01*
X124302861Y-111211475D01*
X124357513Y-111343416D01*
X124436856Y-111462161D01*
X124537839Y-111563144D01*
X124656584Y-111642487D01*
X124788525Y-111697139D01*
X124928594Y-111725000D01*
X125071406Y-111725000D01*
X125211475Y-111697139D01*
X125343416Y-111642487D01*
X125462161Y-111563144D01*
X125563144Y-111462161D01*
X125642487Y-111343416D01*
X125697139Y-111211475D01*
X125725000Y-111071406D01*
X125725000Y-110928594D01*
X125697139Y-110788525D01*
X125642487Y-110656584D01*
X125563144Y-110537839D01*
X125462161Y-110436856D01*
X125450000Y-110428730D01*
X125450000Y-109926572D01*
X125450001Y-109926572D01*
X125562484Y-109915493D01*
X125670645Y-109882683D01*
X125770327Y-109829402D01*
X125857698Y-109757698D01*
X125929402Y-109670327D01*
X125982683Y-109570645D01*
X126015493Y-109462484D01*
X126026572Y-109350001D01*
X126026572Y-108699999D01*
X126015493Y-108587516D01*
X125982683Y-108479355D01*
X125929402Y-108379673D01*
X125857698Y-108292302D01*
X125770327Y-108220598D01*
X125670645Y-108167317D01*
X125562484Y-108134507D01*
X125450001Y-108123428D01*
X124549999Y-108123428D01*
X124437516Y-108134507D01*
X124329355Y-108167317D01*
X124229673Y-108220598D01*
X124142302Y-108292302D01*
X124070598Y-108379673D01*
X124017317Y-108479355D01*
X123984507Y-108587516D01*
X123973428Y-108699999D01*
X116350000Y-108699999D01*
X116350000Y-101649999D01*
X123973428Y-101649999D01*
X123973428Y-102350001D01*
X123984507Y-102462484D01*
X124017317Y-102570645D01*
X124070598Y-102670327D01*
X124142302Y-102757698D01*
X124229673Y-102829402D01*
X124329355Y-102882683D01*
X124437516Y-102915493D01*
X124549999Y-102926572D01*
X125290177Y-102926572D01*
X125437033Y-103073428D01*
X124549999Y-103073428D01*
X124437516Y-103084507D01*
X124329355Y-103117317D01*
X124229673Y-103170598D01*
X124142302Y-103242302D01*
X124070598Y-103329673D01*
X124017317Y-103429355D01*
X123984507Y-103537516D01*
X123973428Y-103649999D01*
X123973428Y-104350001D01*
X123984507Y-104462484D01*
X124017317Y-104570645D01*
X124070598Y-104670327D01*
X124142302Y-104757698D01*
X124229673Y-104829402D01*
X124329355Y-104882683D01*
X124437516Y-104915493D01*
X124549999Y-104926572D01*
X124550000Y-104926572D01*
X124550001Y-106073428D01*
X124549999Y-106073428D01*
X124437516Y-106084507D01*
X124329355Y-106117317D01*
X124229673Y-106170598D01*
X124142302Y-106242302D01*
X124070598Y-106329673D01*
X124017317Y-106429355D01*
X123984507Y-106537516D01*
X123973428Y-106649999D01*
X123973428Y-107300001D01*
X123984507Y-107412484D01*
X124017317Y-107520645D01*
X124070598Y-107620327D01*
X124142302Y-107707698D01*
X124229673Y-107779402D01*
X124329355Y-107832683D01*
X124437516Y-107865493D01*
X124549999Y-107876572D01*
X125450001Y-107876572D01*
X125562484Y-107865493D01*
X125670645Y-107832683D01*
X125770327Y-107779402D01*
X125857698Y-107707698D01*
X125929402Y-107620327D01*
X125982683Y-107520645D01*
X126015493Y-107412484D01*
X126026572Y-107300001D01*
X126026572Y-106649999D01*
X126015493Y-106537516D01*
X125982683Y-106429355D01*
X125929402Y-106329673D01*
X125857698Y-106242302D01*
X125812246Y-106205000D01*
X128122944Y-106205000D01*
X128131150Y-106288314D01*
X128155452Y-106368427D01*
X128194916Y-106442260D01*
X128248026Y-106506974D01*
X128312740Y-106560084D01*
X128386573Y-106599548D01*
X128466686Y-106623850D01*
X128550000Y-106632056D01*
X129243750Y-106630000D01*
X129350000Y-106523750D01*
X129350000Y-106080000D01*
X129700000Y-106080000D01*
X129700000Y-106523750D01*
X129806250Y-106630000D01*
X130500000Y-106632056D01*
X130583314Y-106623850D01*
X130663427Y-106599548D01*
X130737260Y-106560084D01*
X130801974Y-106506974D01*
X130855084Y-106442260D01*
X130894548Y-106368427D01*
X130918850Y-106288314D01*
X130927056Y-106205000D01*
X130925000Y-106186250D01*
X130818750Y-106080000D01*
X129700000Y-106080000D01*
X129350000Y-106080000D01*
X128231250Y-106080000D01*
X128125000Y-106186250D01*
X128122944Y-106205000D01*
X125812246Y-106205000D01*
X125770327Y-106170598D01*
X125670645Y-106117317D01*
X125562484Y-106084507D01*
X125450001Y-106073428D01*
X125450000Y-106073428D01*
X125450000Y-105755000D01*
X133173428Y-105755000D01*
X133173428Y-106055000D01*
X133182585Y-106147975D01*
X133209705Y-106237376D01*
X133253745Y-106319769D01*
X133313013Y-106391987D01*
X133385231Y-106451255D01*
X133467624Y-106495295D01*
X133557025Y-106522415D01*
X133650000Y-106531572D01*
X135300000Y-106531572D01*
X135392975Y-106522415D01*
X135482376Y-106495295D01*
X135564769Y-106451255D01*
X135636987Y-106391987D01*
X135696255Y-106319769D01*
X135740295Y-106237376D01*
X135767415Y-106147975D01*
X135776572Y-106055000D01*
X135776572Y-105755000D01*
X135767415Y-105662025D01*
X135740295Y-105572624D01*
X135696255Y-105490231D01*
X135636987Y-105418013D01*
X135564769Y-105358745D01*
X135482376Y-105314705D01*
X135392975Y-105287585D01*
X135300000Y-105278428D01*
X133650000Y-105278428D01*
X133557025Y-105287585D01*
X133467624Y-105314705D01*
X133385231Y-105358745D01*
X133313013Y-105418013D01*
X133253745Y-105490231D01*
X133209705Y-105572624D01*
X133182585Y-105662025D01*
X133173428Y-105755000D01*
X125450000Y-105755000D01*
X125450000Y-104926572D01*
X125450001Y-104926572D01*
X125562484Y-104915493D01*
X125670645Y-104882683D01*
X125770327Y-104829402D01*
X125857698Y-104757698D01*
X125929402Y-104670327D01*
X125982683Y-104570645D01*
X126015493Y-104462484D01*
X126026572Y-104350001D01*
X126026572Y-103662968D01*
X127301176Y-104937572D01*
X127315263Y-104954737D01*
X127332428Y-104968824D01*
X127332432Y-104968828D01*
X127383783Y-105010971D01*
X127444620Y-105043489D01*
X127461959Y-105052757D01*
X127546785Y-105078489D01*
X127612895Y-105085000D01*
X127612906Y-105085000D01*
X127635000Y-105087176D01*
X127657094Y-105085000D01*
X128332658Y-105085000D01*
X128363013Y-105121987D01*
X128435231Y-105181255D01*
X128452462Y-105190465D01*
X128386573Y-105210452D01*
X128312740Y-105249916D01*
X128248026Y-105303026D01*
X128194916Y-105367740D01*
X128155452Y-105441573D01*
X128131150Y-105521686D01*
X128122944Y-105605000D01*
X128125000Y-105623750D01*
X128231250Y-105730000D01*
X129350000Y-105730000D01*
X129350000Y-105710000D01*
X129700000Y-105710000D01*
X129700000Y-105730000D01*
X130818750Y-105730000D01*
X130925000Y-105623750D01*
X130927056Y-105605000D01*
X130918850Y-105521686D01*
X130894548Y-105441573D01*
X130855084Y-105367740D01*
X130801974Y-105303026D01*
X130737260Y-105249916D01*
X130663427Y-105210452D01*
X130597538Y-105190465D01*
X130614769Y-105181255D01*
X130686987Y-105121987D01*
X130746255Y-105049769D01*
X130790295Y-104967376D01*
X130817415Y-104877975D01*
X130826572Y-104785000D01*
X130826572Y-104485000D01*
X130817415Y-104392025D01*
X130790295Y-104302624D01*
X130746255Y-104220231D01*
X130686987Y-104148013D01*
X130614769Y-104088745D01*
X130532376Y-104044705D01*
X130442975Y-104017585D01*
X130350000Y-104008428D01*
X128700000Y-104008428D01*
X128607025Y-104017585D01*
X128517624Y-104044705D01*
X128435231Y-104088745D01*
X128363013Y-104148013D01*
X128332658Y-104185000D01*
X127821396Y-104185000D01*
X126022970Y-102386574D01*
X126026572Y-102350001D01*
X126026572Y-101649999D01*
X126015493Y-101537516D01*
X125982683Y-101429355D01*
X125929402Y-101329673D01*
X125857698Y-101242302D01*
X125770327Y-101170598D01*
X125670645Y-101117317D01*
X125562484Y-101084507D01*
X125450001Y-101073428D01*
X124549999Y-101073428D01*
X124437516Y-101084507D01*
X124329355Y-101117317D01*
X124229673Y-101170598D01*
X124142302Y-101242302D01*
X124070598Y-101329673D01*
X124017317Y-101429355D01*
X123984507Y-101537516D01*
X123973428Y-101649999D01*
X116350000Y-101649999D01*
X116350000Y-98662500D01*
X123948428Y-98662500D01*
X123948428Y-99337500D01*
X123959507Y-99449984D01*
X123992317Y-99558145D01*
X124045598Y-99657826D01*
X124117302Y-99745198D01*
X124204674Y-99816902D01*
X124304355Y-99870183D01*
X124412516Y-99902993D01*
X124525000Y-99914072D01*
X124688592Y-99914072D01*
X124697429Y-99921324D01*
X128223428Y-103447324D01*
X128223428Y-103515000D01*
X128232585Y-103607975D01*
X128259705Y-103697376D01*
X128303745Y-103779769D01*
X128363013Y-103851987D01*
X128435231Y-103911255D01*
X128517624Y-103955295D01*
X128607025Y-103982415D01*
X128700000Y-103991572D01*
X130350000Y-103991572D01*
X130442975Y-103982415D01*
X130532376Y-103955295D01*
X130614769Y-103911255D01*
X130686987Y-103851987D01*
X130717342Y-103815000D01*
X131178605Y-103815000D01*
X132301176Y-104937572D01*
X132315263Y-104954737D01*
X132332428Y-104968824D01*
X132332432Y-104968828D01*
X132383783Y-105010971D01*
X132444620Y-105043489D01*
X132461959Y-105052757D01*
X132546785Y-105078489D01*
X132612895Y-105085000D01*
X132612905Y-105085000D01*
X132634999Y-105087176D01*
X132657093Y-105085000D01*
X133282658Y-105085000D01*
X133313013Y-105121987D01*
X133385231Y-105181255D01*
X133467624Y-105225295D01*
X133557025Y-105252415D01*
X133650000Y-105261572D01*
X135300000Y-105261572D01*
X135392975Y-105252415D01*
X135482376Y-105225295D01*
X135564769Y-105181255D01*
X135636987Y-105121987D01*
X135667342Y-105085000D01*
X136448605Y-105085000D01*
X137977030Y-106613426D01*
X137973428Y-106649999D01*
X137973428Y-106688591D01*
X137924029Y-106748784D01*
X137882243Y-106826959D01*
X137856511Y-106911785D01*
X137847823Y-107000000D01*
X137856511Y-107088215D01*
X137882243Y-107173041D01*
X137924029Y-107251216D01*
X137973428Y-107311409D01*
X137973428Y-107350001D01*
X137984507Y-107462484D01*
X138017317Y-107570645D01*
X138070598Y-107670327D01*
X138142302Y-107757698D01*
X138229673Y-107829402D01*
X138329355Y-107882683D01*
X138437516Y-107915493D01*
X138549999Y-107926572D01*
X139450001Y-107926572D01*
X139562484Y-107915493D01*
X139670645Y-107882683D01*
X139770327Y-107829402D01*
X139857698Y-107757698D01*
X139929402Y-107670327D01*
X139982683Y-107570645D01*
X140015493Y-107462484D01*
X140026572Y-107350001D01*
X140026572Y-106649999D01*
X140015493Y-106537516D01*
X139982683Y-106429355D01*
X139929402Y-106329673D01*
X139857698Y-106242302D01*
X139770327Y-106170598D01*
X139670645Y-106117317D01*
X139562484Y-106084507D01*
X139450001Y-106073428D01*
X138709824Y-106073428D01*
X138562968Y-105926572D01*
X139450001Y-105926572D01*
X139562484Y-105915493D01*
X139670645Y-105882683D01*
X139770327Y-105829402D01*
X139857698Y-105757698D01*
X139929402Y-105670327D01*
X139982683Y-105570645D01*
X140015493Y-105462484D01*
X140026572Y-105350001D01*
X140026572Y-104649999D01*
X140015493Y-104537516D01*
X139982683Y-104429355D01*
X139929402Y-104329673D01*
X139857698Y-104242302D01*
X139770327Y-104170598D01*
X139670645Y-104117317D01*
X139562484Y-104084507D01*
X139450001Y-104073428D01*
X139450000Y-104073428D01*
X139450000Y-102926572D01*
X139450001Y-102926572D01*
X139562484Y-102915493D01*
X139670645Y-102882683D01*
X139770327Y-102829402D01*
X139857698Y-102757698D01*
X139929402Y-102670327D01*
X139982683Y-102570645D01*
X140015493Y-102462484D01*
X140026572Y-102350001D01*
X140026572Y-101649999D01*
X140015493Y-101537516D01*
X139982683Y-101429355D01*
X139929402Y-101329673D01*
X139857698Y-101242302D01*
X139770327Y-101170598D01*
X139670645Y-101117317D01*
X139562484Y-101084507D01*
X139450001Y-101073428D01*
X138549999Y-101073428D01*
X138437516Y-101084507D01*
X138329355Y-101117317D01*
X138229673Y-101170598D01*
X138142302Y-101242302D01*
X138070598Y-101329673D01*
X138017317Y-101429355D01*
X137984507Y-101537516D01*
X137973428Y-101649999D01*
X137973428Y-102350001D01*
X137977030Y-102386574D01*
X137448605Y-102915000D01*
X135667342Y-102915000D01*
X135636987Y-102878013D01*
X135564769Y-102818745D01*
X135547538Y-102809535D01*
X135613427Y-102789548D01*
X135687260Y-102750084D01*
X135751974Y-102696974D01*
X135805084Y-102632260D01*
X135844548Y-102558427D01*
X135868850Y-102478314D01*
X135877056Y-102395000D01*
X135875000Y-102376250D01*
X135768750Y-102270000D01*
X134650000Y-102270000D01*
X134650000Y-102290000D01*
X134300000Y-102290000D01*
X134300000Y-102270000D01*
X133181250Y-102270000D01*
X133075000Y-102376250D01*
X133072944Y-102395000D01*
X133081150Y-102478314D01*
X133105452Y-102558427D01*
X133144916Y-102632260D01*
X133198026Y-102696974D01*
X133262740Y-102750084D01*
X133336573Y-102789548D01*
X133402462Y-102809535D01*
X133385231Y-102818745D01*
X133313013Y-102878013D01*
X133253745Y-102950231D01*
X133209705Y-103032624D01*
X133182585Y-103122025D01*
X133173428Y-103215000D01*
X133173428Y-103515000D01*
X133182585Y-103607975D01*
X133209705Y-103697376D01*
X133253745Y-103779769D01*
X133313013Y-103851987D01*
X133385231Y-103911255D01*
X133467624Y-103955295D01*
X133557025Y-103982415D01*
X133650000Y-103991572D01*
X135300000Y-103991572D01*
X135392975Y-103982415D01*
X135482376Y-103955295D01*
X135564769Y-103911255D01*
X135636987Y-103851987D01*
X135667342Y-103815000D01*
X137612906Y-103815000D01*
X137635000Y-103817176D01*
X137657094Y-103815000D01*
X137657105Y-103815000D01*
X137723215Y-103808489D01*
X137808041Y-103782757D01*
X137886216Y-103740971D01*
X137954737Y-103684737D01*
X137968829Y-103667566D01*
X138550001Y-103086395D01*
X138550000Y-104073428D01*
X138549999Y-104073428D01*
X138437516Y-104084507D01*
X138329355Y-104117317D01*
X138229673Y-104170598D01*
X138142302Y-104242302D01*
X138070598Y-104329673D01*
X138017317Y-104429355D01*
X137984507Y-104537516D01*
X137973428Y-104649999D01*
X137973428Y-105337033D01*
X136968827Y-104332432D01*
X136954737Y-104315263D01*
X136886216Y-104259029D01*
X136808041Y-104217243D01*
X136723215Y-104191511D01*
X136657105Y-104185000D01*
X136657094Y-104185000D01*
X136635000Y-104182824D01*
X136612906Y-104185000D01*
X135667342Y-104185000D01*
X135636987Y-104148013D01*
X135564769Y-104088745D01*
X135482376Y-104044705D01*
X135392975Y-104017585D01*
X135300000Y-104008428D01*
X133650000Y-104008428D01*
X133557025Y-104017585D01*
X133467624Y-104044705D01*
X133385231Y-104088745D01*
X133313013Y-104148013D01*
X133282658Y-104185000D01*
X132821396Y-104185000D01*
X131698827Y-103062432D01*
X131684737Y-103045263D01*
X131616216Y-102989029D01*
X131538041Y-102947243D01*
X131453215Y-102921511D01*
X131387105Y-102915000D01*
X131387094Y-102915000D01*
X131365000Y-102912824D01*
X131342906Y-102915000D01*
X130717342Y-102915000D01*
X130686987Y-102878013D01*
X130614769Y-102818745D01*
X130532376Y-102774705D01*
X130442975Y-102747585D01*
X130350000Y-102738428D01*
X128787324Y-102738428D01*
X128770468Y-102721572D01*
X130350000Y-102721572D01*
X130442975Y-102712415D01*
X130532376Y-102685295D01*
X130614769Y-102641255D01*
X130686987Y-102581987D01*
X130746255Y-102509769D01*
X130790295Y-102427376D01*
X130817415Y-102337975D01*
X130826572Y-102245000D01*
X130826572Y-101945000D01*
X130817415Y-101852025D01*
X130800117Y-101795000D01*
X133072944Y-101795000D01*
X133075000Y-101813750D01*
X133181250Y-101920000D01*
X134300000Y-101920000D01*
X134300000Y-101476250D01*
X134650000Y-101476250D01*
X134650000Y-101920000D01*
X135768750Y-101920000D01*
X135875000Y-101813750D01*
X135877056Y-101795000D01*
X135868850Y-101711686D01*
X135844548Y-101631573D01*
X135805084Y-101557740D01*
X135751974Y-101493026D01*
X135687260Y-101439916D01*
X135613427Y-101400452D01*
X135533314Y-101376150D01*
X135450000Y-101367944D01*
X134756250Y-101370000D01*
X134650000Y-101476250D01*
X134300000Y-101476250D01*
X134193750Y-101370000D01*
X133500000Y-101367944D01*
X133416686Y-101376150D01*
X133336573Y-101400452D01*
X133262740Y-101439916D01*
X133198026Y-101493026D01*
X133144916Y-101557740D01*
X133105452Y-101631573D01*
X133081150Y-101711686D01*
X133072944Y-101795000D01*
X130800117Y-101795000D01*
X130790295Y-101762624D01*
X130746255Y-101680231D01*
X130686987Y-101608013D01*
X130614769Y-101548745D01*
X130532376Y-101504705D01*
X130442975Y-101477585D01*
X130350000Y-101468428D01*
X129975000Y-101468428D01*
X129975000Y-100600000D01*
X137872944Y-100600000D01*
X137881150Y-100683314D01*
X137905452Y-100763427D01*
X137944916Y-100837260D01*
X137998026Y-100901974D01*
X138062740Y-100955084D01*
X138136573Y-100994548D01*
X138216686Y-101018850D01*
X138300000Y-101027056D01*
X138718750Y-101025000D01*
X138825000Y-100918750D01*
X138825000Y-100175000D01*
X139175000Y-100175000D01*
X139175000Y-100918750D01*
X139281250Y-101025000D01*
X139700000Y-101027056D01*
X139783314Y-101018850D01*
X139863427Y-100994548D01*
X139937260Y-100955084D01*
X140001974Y-100901974D01*
X140055084Y-100837260D01*
X140094548Y-100763427D01*
X140118850Y-100683314D01*
X140127056Y-100600000D01*
X140125000Y-100281250D01*
X140018750Y-100175000D01*
X139175000Y-100175000D01*
X138825000Y-100175000D01*
X137981250Y-100175000D01*
X137875000Y-100281250D01*
X137872944Y-100600000D01*
X129975000Y-100600000D01*
X129975000Y-100450305D01*
X130063144Y-100362161D01*
X130142487Y-100243416D01*
X130197139Y-100111475D01*
X130225000Y-99971406D01*
X130225000Y-99828594D01*
X130197139Y-99688525D01*
X130142487Y-99556584D01*
X130063144Y-99437839D01*
X130025305Y-99400000D01*
X137872944Y-99400000D01*
X137875000Y-99718750D01*
X137981250Y-99825000D01*
X138825000Y-99825000D01*
X138825000Y-99081250D01*
X139175000Y-99081250D01*
X139175000Y-99825000D01*
X140018750Y-99825000D01*
X140125000Y-99718750D01*
X140127056Y-99400000D01*
X140118850Y-99316686D01*
X140094548Y-99236573D01*
X140055084Y-99162740D01*
X140001974Y-99098026D01*
X139937260Y-99044916D01*
X139863427Y-99005452D01*
X139783314Y-98981150D01*
X139700000Y-98972944D01*
X139281250Y-98975000D01*
X139175000Y-99081250D01*
X138825000Y-99081250D01*
X138718750Y-98975000D01*
X138300000Y-98972944D01*
X138216686Y-98981150D01*
X138136573Y-99005452D01*
X138062740Y-99044916D01*
X137998026Y-99098026D01*
X137944916Y-99162740D01*
X137905452Y-99236573D01*
X137881150Y-99316686D01*
X137872944Y-99400000D01*
X130025305Y-99400000D01*
X129962161Y-99336856D01*
X129843416Y-99257513D01*
X129711475Y-99202861D01*
X129571406Y-99175000D01*
X129428594Y-99175000D01*
X129288525Y-99202861D01*
X129156584Y-99257513D01*
X129037839Y-99336856D01*
X128936856Y-99437839D01*
X128857513Y-99556584D01*
X128802861Y-99688525D01*
X128775000Y-99828594D01*
X128775000Y-99971406D01*
X128802861Y-100111475D01*
X128857513Y-100243416D01*
X128936856Y-100362161D01*
X129037839Y-100463144D01*
X129075001Y-100487975D01*
X129075000Y-101468428D01*
X128700000Y-101468428D01*
X128607025Y-101477585D01*
X128517624Y-101504705D01*
X128435231Y-101548745D01*
X128363013Y-101608013D01*
X128303745Y-101680231D01*
X128259705Y-101762624D01*
X128232585Y-101852025D01*
X128223428Y-101945000D01*
X128223428Y-102174532D01*
X125834032Y-99785137D01*
X125882698Y-99745198D01*
X125954402Y-99657826D01*
X126007683Y-99558145D01*
X126040493Y-99449984D01*
X126051572Y-99337500D01*
X126051572Y-98662500D01*
X126040493Y-98550016D01*
X126007683Y-98441855D01*
X125954402Y-98342174D01*
X125882698Y-98254802D01*
X125795326Y-98183098D01*
X125695645Y-98129817D01*
X125587484Y-98097007D01*
X125475000Y-98085928D01*
X124525000Y-98085928D01*
X124412516Y-98097007D01*
X124304355Y-98129817D01*
X124204674Y-98183098D01*
X124117302Y-98254802D01*
X124045598Y-98342174D01*
X123992317Y-98441855D01*
X123959507Y-98550016D01*
X123948428Y-98662500D01*
X116350000Y-98662500D01*
X116350000Y-96587500D01*
X123948428Y-96587500D01*
X123948428Y-97262500D01*
X123959507Y-97374984D01*
X123992317Y-97483145D01*
X124045598Y-97582826D01*
X124117302Y-97670198D01*
X124204674Y-97741902D01*
X124304355Y-97795183D01*
X124412516Y-97827993D01*
X124525000Y-97839072D01*
X125475000Y-97839072D01*
X125587484Y-97827993D01*
X125695645Y-97795183D01*
X125795326Y-97741902D01*
X125882698Y-97670198D01*
X125954402Y-97582826D01*
X126007683Y-97483145D01*
X126040493Y-97374984D01*
X126051572Y-97262500D01*
X126051572Y-96587500D01*
X126040493Y-96475016D01*
X126007683Y-96366855D01*
X125954402Y-96267174D01*
X125882698Y-96179802D01*
X125795326Y-96108098D01*
X125695645Y-96054817D01*
X125587484Y-96022007D01*
X125475000Y-96010928D01*
X125450000Y-96010928D01*
X125450000Y-95571270D01*
X125462161Y-95563144D01*
X125563144Y-95462161D01*
X125642487Y-95343416D01*
X125697139Y-95211475D01*
X125725000Y-95071406D01*
X125725000Y-94928594D01*
X125697139Y-94788525D01*
X125642487Y-94656584D01*
X125563144Y-94537839D01*
X125462161Y-94436856D01*
X125343416Y-94357513D01*
X125211475Y-94302861D01*
X125071406Y-94275000D01*
X124928594Y-94275000D01*
X124788525Y-94302861D01*
X124656584Y-94357513D01*
X124537839Y-94436856D01*
X124436856Y-94537839D01*
X124357513Y-94656584D01*
X124302861Y-94788525D01*
X124275000Y-94928594D01*
X124275000Y-95071406D01*
X124302861Y-95211475D01*
X124357513Y-95343416D01*
X124436856Y-95462161D01*
X124537839Y-95563144D01*
X124550001Y-95571270D01*
X124550000Y-96010928D01*
X124525000Y-96010928D01*
X124412516Y-96022007D01*
X124304355Y-96054817D01*
X124204674Y-96108098D01*
X124117302Y-96179802D01*
X124045598Y-96267174D01*
X123992317Y-96366855D01*
X123959507Y-96475016D01*
X123948428Y-96587500D01*
X116350000Y-96587500D01*
X116350000Y-89350000D01*
X147650001Y-89350000D01*
X147650000Y-118650000D01*
%TA.AperFunction,Conductor*%
D12*
G36*
X147650000Y-118650000D02*
G01*
X116350000Y-118650000D01*
X116350000Y-108699999D01*
X123973428Y-108699999D01*
X123973428Y-109350001D01*
X123984507Y-109462484D01*
X124017317Y-109570645D01*
X124070598Y-109670327D01*
X124142302Y-109757698D01*
X124229673Y-109829402D01*
X124329355Y-109882683D01*
X124437516Y-109915493D01*
X124549999Y-109926572D01*
X124550000Y-109926572D01*
X124550001Y-110428730D01*
X124537839Y-110436856D01*
X124436856Y-110537839D01*
X124357513Y-110656584D01*
X124302861Y-110788525D01*
X124275000Y-110928594D01*
X124275000Y-111071406D01*
X124302861Y-111211475D01*
X124357513Y-111343416D01*
X124436856Y-111462161D01*
X124537839Y-111563144D01*
X124656584Y-111642487D01*
X124788525Y-111697139D01*
X124928594Y-111725000D01*
X125071406Y-111725000D01*
X125211475Y-111697139D01*
X125343416Y-111642487D01*
X125462161Y-111563144D01*
X125563144Y-111462161D01*
X125642487Y-111343416D01*
X125697139Y-111211475D01*
X125725000Y-111071406D01*
X125725000Y-110928594D01*
X125697139Y-110788525D01*
X125642487Y-110656584D01*
X125563144Y-110537839D01*
X125462161Y-110436856D01*
X125450000Y-110428730D01*
X125450000Y-109926572D01*
X125450001Y-109926572D01*
X125562484Y-109915493D01*
X125670645Y-109882683D01*
X125770327Y-109829402D01*
X125857698Y-109757698D01*
X125929402Y-109670327D01*
X125982683Y-109570645D01*
X126015493Y-109462484D01*
X126026572Y-109350001D01*
X126026572Y-108699999D01*
X126015493Y-108587516D01*
X125982683Y-108479355D01*
X125929402Y-108379673D01*
X125857698Y-108292302D01*
X125770327Y-108220598D01*
X125670645Y-108167317D01*
X125562484Y-108134507D01*
X125450001Y-108123428D01*
X124549999Y-108123428D01*
X124437516Y-108134507D01*
X124329355Y-108167317D01*
X124229673Y-108220598D01*
X124142302Y-108292302D01*
X124070598Y-108379673D01*
X124017317Y-108479355D01*
X123984507Y-108587516D01*
X123973428Y-108699999D01*
X116350000Y-108699999D01*
X116350000Y-101649999D01*
X123973428Y-101649999D01*
X123973428Y-102350001D01*
X123984507Y-102462484D01*
X124017317Y-102570645D01*
X124070598Y-102670327D01*
X124142302Y-102757698D01*
X124229673Y-102829402D01*
X124329355Y-102882683D01*
X124437516Y-102915493D01*
X124549999Y-102926572D01*
X125290177Y-102926572D01*
X125437033Y-103073428D01*
X124549999Y-103073428D01*
X124437516Y-103084507D01*
X124329355Y-103117317D01*
X124229673Y-103170598D01*
X124142302Y-103242302D01*
X124070598Y-103329673D01*
X124017317Y-103429355D01*
X123984507Y-103537516D01*
X123973428Y-103649999D01*
X123973428Y-104350001D01*
X123984507Y-104462484D01*
X124017317Y-104570645D01*
X124070598Y-104670327D01*
X124142302Y-104757698D01*
X124229673Y-104829402D01*
X124329355Y-104882683D01*
X124437516Y-104915493D01*
X124549999Y-104926572D01*
X124550000Y-104926572D01*
X124550001Y-106073428D01*
X124549999Y-106073428D01*
X124437516Y-106084507D01*
X124329355Y-106117317D01*
X124229673Y-106170598D01*
X124142302Y-106242302D01*
X124070598Y-106329673D01*
X124017317Y-106429355D01*
X123984507Y-106537516D01*
X123973428Y-106649999D01*
X123973428Y-107300001D01*
X123984507Y-107412484D01*
X124017317Y-107520645D01*
X124070598Y-107620327D01*
X124142302Y-107707698D01*
X124229673Y-107779402D01*
X124329355Y-107832683D01*
X124437516Y-107865493D01*
X124549999Y-107876572D01*
X125450001Y-107876572D01*
X125562484Y-107865493D01*
X125670645Y-107832683D01*
X125770327Y-107779402D01*
X125857698Y-107707698D01*
X125929402Y-107620327D01*
X125982683Y-107520645D01*
X126015493Y-107412484D01*
X126026572Y-107300001D01*
X126026572Y-106649999D01*
X126015493Y-106537516D01*
X125982683Y-106429355D01*
X125929402Y-106329673D01*
X125857698Y-106242302D01*
X125812246Y-106205000D01*
X128122944Y-106205000D01*
X128131150Y-106288314D01*
X128155452Y-106368427D01*
X128194916Y-106442260D01*
X128248026Y-106506974D01*
X128312740Y-106560084D01*
X128386573Y-106599548D01*
X128466686Y-106623850D01*
X128550000Y-106632056D01*
X129243750Y-106630000D01*
X129350000Y-106523750D01*
X129350000Y-106080000D01*
X129700000Y-106080000D01*
X129700000Y-106523750D01*
X129806250Y-106630000D01*
X130500000Y-106632056D01*
X130583314Y-106623850D01*
X130663427Y-106599548D01*
X130737260Y-106560084D01*
X130801974Y-106506974D01*
X130855084Y-106442260D01*
X130894548Y-106368427D01*
X130918850Y-106288314D01*
X130927056Y-106205000D01*
X130925000Y-106186250D01*
X130818750Y-106080000D01*
X129700000Y-106080000D01*
X129350000Y-106080000D01*
X128231250Y-106080000D01*
X128125000Y-106186250D01*
X128122944Y-106205000D01*
X125812246Y-106205000D01*
X125770327Y-106170598D01*
X125670645Y-106117317D01*
X125562484Y-106084507D01*
X125450001Y-106073428D01*
X125450000Y-106073428D01*
X125450000Y-105755000D01*
X133173428Y-105755000D01*
X133173428Y-106055000D01*
X133182585Y-106147975D01*
X133209705Y-106237376D01*
X133253745Y-106319769D01*
X133313013Y-106391987D01*
X133385231Y-106451255D01*
X133467624Y-106495295D01*
X133557025Y-106522415D01*
X133650000Y-106531572D01*
X135300000Y-106531572D01*
X135392975Y-106522415D01*
X135482376Y-106495295D01*
X135564769Y-106451255D01*
X135636987Y-106391987D01*
X135696255Y-106319769D01*
X135740295Y-106237376D01*
X135767415Y-106147975D01*
X135776572Y-106055000D01*
X135776572Y-105755000D01*
X135767415Y-105662025D01*
X135740295Y-105572624D01*
X135696255Y-105490231D01*
X135636987Y-105418013D01*
X135564769Y-105358745D01*
X135482376Y-105314705D01*
X135392975Y-105287585D01*
X135300000Y-105278428D01*
X133650000Y-105278428D01*
X133557025Y-105287585D01*
X133467624Y-105314705D01*
X133385231Y-105358745D01*
X133313013Y-105418013D01*
X133253745Y-105490231D01*
X133209705Y-105572624D01*
X133182585Y-105662025D01*
X133173428Y-105755000D01*
X125450000Y-105755000D01*
X125450000Y-104926572D01*
X125450001Y-104926572D01*
X125562484Y-104915493D01*
X125670645Y-104882683D01*
X125770327Y-104829402D01*
X125857698Y-104757698D01*
X125929402Y-104670327D01*
X125982683Y-104570645D01*
X126015493Y-104462484D01*
X126026572Y-104350001D01*
X126026572Y-103662968D01*
X127301176Y-104937572D01*
X127315263Y-104954737D01*
X127332428Y-104968824D01*
X127332432Y-104968828D01*
X127383783Y-105010971D01*
X127444620Y-105043489D01*
X127461959Y-105052757D01*
X127546785Y-105078489D01*
X127612895Y-105085000D01*
X127612906Y-105085000D01*
X127635000Y-105087176D01*
X127657094Y-105085000D01*
X128332658Y-105085000D01*
X128363013Y-105121987D01*
X128435231Y-105181255D01*
X128452462Y-105190465D01*
X128386573Y-105210452D01*
X128312740Y-105249916D01*
X128248026Y-105303026D01*
X128194916Y-105367740D01*
X128155452Y-105441573D01*
X128131150Y-105521686D01*
X128122944Y-105605000D01*
X128125000Y-105623750D01*
X128231250Y-105730000D01*
X129350000Y-105730000D01*
X129350000Y-105710000D01*
X129700000Y-105710000D01*
X129700000Y-105730000D01*
X130818750Y-105730000D01*
X130925000Y-105623750D01*
X130927056Y-105605000D01*
X130918850Y-105521686D01*
X130894548Y-105441573D01*
X130855084Y-105367740D01*
X130801974Y-105303026D01*
X130737260Y-105249916D01*
X130663427Y-105210452D01*
X130597538Y-105190465D01*
X130614769Y-105181255D01*
X130686987Y-105121987D01*
X130746255Y-105049769D01*
X130790295Y-104967376D01*
X130817415Y-104877975D01*
X130826572Y-104785000D01*
X130826572Y-104485000D01*
X130817415Y-104392025D01*
X130790295Y-104302624D01*
X130746255Y-104220231D01*
X130686987Y-104148013D01*
X130614769Y-104088745D01*
X130532376Y-104044705D01*
X130442975Y-104017585D01*
X130350000Y-104008428D01*
X128700000Y-104008428D01*
X128607025Y-104017585D01*
X128517624Y-104044705D01*
X128435231Y-104088745D01*
X128363013Y-104148013D01*
X128332658Y-104185000D01*
X127821396Y-104185000D01*
X126022970Y-102386574D01*
X126026572Y-102350001D01*
X126026572Y-101649999D01*
X126015493Y-101537516D01*
X125982683Y-101429355D01*
X125929402Y-101329673D01*
X125857698Y-101242302D01*
X125770327Y-101170598D01*
X125670645Y-101117317D01*
X125562484Y-101084507D01*
X125450001Y-101073428D01*
X124549999Y-101073428D01*
X124437516Y-101084507D01*
X124329355Y-101117317D01*
X124229673Y-101170598D01*
X124142302Y-101242302D01*
X124070598Y-101329673D01*
X124017317Y-101429355D01*
X123984507Y-101537516D01*
X123973428Y-101649999D01*
X116350000Y-101649999D01*
X116350000Y-98662500D01*
X123948428Y-98662500D01*
X123948428Y-99337500D01*
X123959507Y-99449984D01*
X123992317Y-99558145D01*
X124045598Y-99657826D01*
X124117302Y-99745198D01*
X124204674Y-99816902D01*
X124304355Y-99870183D01*
X124412516Y-99902993D01*
X124525000Y-99914072D01*
X124688592Y-99914072D01*
X124697429Y-99921324D01*
X128223428Y-103447324D01*
X128223428Y-103515000D01*
X128232585Y-103607975D01*
X128259705Y-103697376D01*
X128303745Y-103779769D01*
X128363013Y-103851987D01*
X128435231Y-103911255D01*
X128517624Y-103955295D01*
X128607025Y-103982415D01*
X128700000Y-103991572D01*
X130350000Y-103991572D01*
X130442975Y-103982415D01*
X130532376Y-103955295D01*
X130614769Y-103911255D01*
X130686987Y-103851987D01*
X130717342Y-103815000D01*
X131178605Y-103815000D01*
X132301176Y-104937572D01*
X132315263Y-104954737D01*
X132332428Y-104968824D01*
X132332432Y-104968828D01*
X132383783Y-105010971D01*
X132444620Y-105043489D01*
X132461959Y-105052757D01*
X132546785Y-105078489D01*
X132612895Y-105085000D01*
X132612905Y-105085000D01*
X132634999Y-105087176D01*
X132657093Y-105085000D01*
X133282658Y-105085000D01*
X133313013Y-105121987D01*
X133385231Y-105181255D01*
X133467624Y-105225295D01*
X133557025Y-105252415D01*
X133650000Y-105261572D01*
X135300000Y-105261572D01*
X135392975Y-105252415D01*
X135482376Y-105225295D01*
X135564769Y-105181255D01*
X135636987Y-105121987D01*
X135667342Y-105085000D01*
X136448605Y-105085000D01*
X137977030Y-106613426D01*
X137973428Y-106649999D01*
X137973428Y-106688591D01*
X137924029Y-106748784D01*
X137882243Y-106826959D01*
X137856511Y-106911785D01*
X137847823Y-107000000D01*
X137856511Y-107088215D01*
X137882243Y-107173041D01*
X137924029Y-107251216D01*
X137973428Y-107311409D01*
X137973428Y-107350001D01*
X137984507Y-107462484D01*
X138017317Y-107570645D01*
X138070598Y-107670327D01*
X138142302Y-107757698D01*
X138229673Y-107829402D01*
X138329355Y-107882683D01*
X138437516Y-107915493D01*
X138549999Y-107926572D01*
X139450001Y-107926572D01*
X139562484Y-107915493D01*
X139670645Y-107882683D01*
X139770327Y-107829402D01*
X139857698Y-107757698D01*
X139929402Y-107670327D01*
X139982683Y-107570645D01*
X140015493Y-107462484D01*
X140026572Y-107350001D01*
X140026572Y-106649999D01*
X140015493Y-106537516D01*
X139982683Y-106429355D01*
X139929402Y-106329673D01*
X139857698Y-106242302D01*
X139770327Y-106170598D01*
X139670645Y-106117317D01*
X139562484Y-106084507D01*
X139450001Y-106073428D01*
X138709824Y-106073428D01*
X138562968Y-105926572D01*
X139450001Y-105926572D01*
X139562484Y-105915493D01*
X139670645Y-105882683D01*
X139770327Y-105829402D01*
X139857698Y-105757698D01*
X139929402Y-105670327D01*
X139982683Y-105570645D01*
X140015493Y-105462484D01*
X140026572Y-105350001D01*
X140026572Y-104649999D01*
X140015493Y-104537516D01*
X139982683Y-104429355D01*
X139929402Y-104329673D01*
X139857698Y-104242302D01*
X139770327Y-104170598D01*
X139670645Y-104117317D01*
X139562484Y-104084507D01*
X139450001Y-104073428D01*
X139450000Y-104073428D01*
X139450000Y-102926572D01*
X139450001Y-102926572D01*
X139562484Y-102915493D01*
X139670645Y-102882683D01*
X139770327Y-102829402D01*
X139857698Y-102757698D01*
X139929402Y-102670327D01*
X139982683Y-102570645D01*
X140015493Y-102462484D01*
X140026572Y-102350001D01*
X140026572Y-101649999D01*
X140015493Y-101537516D01*
X139982683Y-101429355D01*
X139929402Y-101329673D01*
X139857698Y-101242302D01*
X139770327Y-101170598D01*
X139670645Y-101117317D01*
X139562484Y-101084507D01*
X139450001Y-101073428D01*
X138549999Y-101073428D01*
X138437516Y-101084507D01*
X138329355Y-101117317D01*
X138229673Y-101170598D01*
X138142302Y-101242302D01*
X138070598Y-101329673D01*
X138017317Y-101429355D01*
X137984507Y-101537516D01*
X137973428Y-101649999D01*
X137973428Y-102350001D01*
X137977030Y-102386574D01*
X137448605Y-102915000D01*
X135667342Y-102915000D01*
X135636987Y-102878013D01*
X135564769Y-102818745D01*
X135547538Y-102809535D01*
X135613427Y-102789548D01*
X135687260Y-102750084D01*
X135751974Y-102696974D01*
X135805084Y-102632260D01*
X135844548Y-102558427D01*
X135868850Y-102478314D01*
X135877056Y-102395000D01*
X135875000Y-102376250D01*
X135768750Y-102270000D01*
X134650000Y-102270000D01*
X134650000Y-102290000D01*
X134300000Y-102290000D01*
X134300000Y-102270000D01*
X133181250Y-102270000D01*
X133075000Y-102376250D01*
X133072944Y-102395000D01*
X133081150Y-102478314D01*
X133105452Y-102558427D01*
X133144916Y-102632260D01*
X133198026Y-102696974D01*
X133262740Y-102750084D01*
X133336573Y-102789548D01*
X133402462Y-102809535D01*
X133385231Y-102818745D01*
X133313013Y-102878013D01*
X133253745Y-102950231D01*
X133209705Y-103032624D01*
X133182585Y-103122025D01*
X133173428Y-103215000D01*
X133173428Y-103515000D01*
X133182585Y-103607975D01*
X133209705Y-103697376D01*
X133253745Y-103779769D01*
X133313013Y-103851987D01*
X133385231Y-103911255D01*
X133467624Y-103955295D01*
X133557025Y-103982415D01*
X133650000Y-103991572D01*
X135300000Y-103991572D01*
X135392975Y-103982415D01*
X135482376Y-103955295D01*
X135564769Y-103911255D01*
X135636987Y-103851987D01*
X135667342Y-103815000D01*
X137612906Y-103815000D01*
X137635000Y-103817176D01*
X137657094Y-103815000D01*
X137657105Y-103815000D01*
X137723215Y-103808489D01*
X137808041Y-103782757D01*
X137886216Y-103740971D01*
X137954737Y-103684737D01*
X137968829Y-103667566D01*
X138550001Y-103086395D01*
X138550000Y-104073428D01*
X138549999Y-104073428D01*
X138437516Y-104084507D01*
X138329355Y-104117317D01*
X138229673Y-104170598D01*
X138142302Y-104242302D01*
X138070598Y-104329673D01*
X138017317Y-104429355D01*
X137984507Y-104537516D01*
X137973428Y-104649999D01*
X137973428Y-105337033D01*
X136968827Y-104332432D01*
X136954737Y-104315263D01*
X136886216Y-104259029D01*
X136808041Y-104217243D01*
X136723215Y-104191511D01*
X136657105Y-104185000D01*
X136657094Y-104185000D01*
X136635000Y-104182824D01*
X136612906Y-104185000D01*
X135667342Y-104185000D01*
X135636987Y-104148013D01*
X135564769Y-104088745D01*
X135482376Y-104044705D01*
X135392975Y-104017585D01*
X135300000Y-104008428D01*
X133650000Y-104008428D01*
X133557025Y-104017585D01*
X133467624Y-104044705D01*
X133385231Y-104088745D01*
X133313013Y-104148013D01*
X133282658Y-104185000D01*
X132821396Y-104185000D01*
X131698827Y-103062432D01*
X131684737Y-103045263D01*
X131616216Y-102989029D01*
X131538041Y-102947243D01*
X131453215Y-102921511D01*
X131387105Y-102915000D01*
X131387094Y-102915000D01*
X131365000Y-102912824D01*
X131342906Y-102915000D01*
X130717342Y-102915000D01*
X130686987Y-102878013D01*
X130614769Y-102818745D01*
X130532376Y-102774705D01*
X130442975Y-102747585D01*
X130350000Y-102738428D01*
X128787324Y-102738428D01*
X128770468Y-102721572D01*
X130350000Y-102721572D01*
X130442975Y-102712415D01*
X130532376Y-102685295D01*
X130614769Y-102641255D01*
X130686987Y-102581987D01*
X130746255Y-102509769D01*
X130790295Y-102427376D01*
X130817415Y-102337975D01*
X130826572Y-102245000D01*
X130826572Y-101945000D01*
X130817415Y-101852025D01*
X130800117Y-101795000D01*
X133072944Y-101795000D01*
X133075000Y-101813750D01*
X133181250Y-101920000D01*
X134300000Y-101920000D01*
X134300000Y-101476250D01*
X134650000Y-101476250D01*
X134650000Y-101920000D01*
X135768750Y-101920000D01*
X135875000Y-101813750D01*
X135877056Y-101795000D01*
X135868850Y-101711686D01*
X135844548Y-101631573D01*
X135805084Y-101557740D01*
X135751974Y-101493026D01*
X135687260Y-101439916D01*
X135613427Y-101400452D01*
X135533314Y-101376150D01*
X135450000Y-101367944D01*
X134756250Y-101370000D01*
X134650000Y-101476250D01*
X134300000Y-101476250D01*
X134193750Y-101370000D01*
X133500000Y-101367944D01*
X133416686Y-101376150D01*
X133336573Y-101400452D01*
X133262740Y-101439916D01*
X133198026Y-101493026D01*
X133144916Y-101557740D01*
X133105452Y-101631573D01*
X133081150Y-101711686D01*
X133072944Y-101795000D01*
X130800117Y-101795000D01*
X130790295Y-101762624D01*
X130746255Y-101680231D01*
X130686987Y-101608013D01*
X130614769Y-101548745D01*
X130532376Y-101504705D01*
X130442975Y-101477585D01*
X130350000Y-101468428D01*
X129975000Y-101468428D01*
X129975000Y-100600000D01*
X137872944Y-100600000D01*
X137881150Y-100683314D01*
X137905452Y-100763427D01*
X137944916Y-100837260D01*
X137998026Y-100901974D01*
X138062740Y-100955084D01*
X138136573Y-100994548D01*
X138216686Y-101018850D01*
X138300000Y-101027056D01*
X138718750Y-101025000D01*
X138825000Y-100918750D01*
X138825000Y-100175000D01*
X139175000Y-100175000D01*
X139175000Y-100918750D01*
X139281250Y-101025000D01*
X139700000Y-101027056D01*
X139783314Y-101018850D01*
X139863427Y-100994548D01*
X139937260Y-100955084D01*
X140001974Y-100901974D01*
X140055084Y-100837260D01*
X140094548Y-100763427D01*
X140118850Y-100683314D01*
X140127056Y-100600000D01*
X140125000Y-100281250D01*
X140018750Y-100175000D01*
X139175000Y-100175000D01*
X138825000Y-100175000D01*
X137981250Y-100175000D01*
X137875000Y-100281250D01*
X137872944Y-100600000D01*
X129975000Y-100600000D01*
X129975000Y-100450305D01*
X130063144Y-100362161D01*
X130142487Y-100243416D01*
X130197139Y-100111475D01*
X130225000Y-99971406D01*
X130225000Y-99828594D01*
X130197139Y-99688525D01*
X130142487Y-99556584D01*
X130063144Y-99437839D01*
X130025305Y-99400000D01*
X137872944Y-99400000D01*
X137875000Y-99718750D01*
X137981250Y-99825000D01*
X138825000Y-99825000D01*
X138825000Y-99081250D01*
X139175000Y-99081250D01*
X139175000Y-99825000D01*
X140018750Y-99825000D01*
X140125000Y-99718750D01*
X140127056Y-99400000D01*
X140118850Y-99316686D01*
X140094548Y-99236573D01*
X140055084Y-99162740D01*
X140001974Y-99098026D01*
X139937260Y-99044916D01*
X139863427Y-99005452D01*
X139783314Y-98981150D01*
X139700000Y-98972944D01*
X139281250Y-98975000D01*
X139175000Y-99081250D01*
X138825000Y-99081250D01*
X138718750Y-98975000D01*
X138300000Y-98972944D01*
X138216686Y-98981150D01*
X138136573Y-99005452D01*
X138062740Y-99044916D01*
X137998026Y-99098026D01*
X137944916Y-99162740D01*
X137905452Y-99236573D01*
X137881150Y-99316686D01*
X137872944Y-99400000D01*
X130025305Y-99400000D01*
X129962161Y-99336856D01*
X129843416Y-99257513D01*
X129711475Y-99202861D01*
X129571406Y-99175000D01*
X129428594Y-99175000D01*
X129288525Y-99202861D01*
X129156584Y-99257513D01*
X129037839Y-99336856D01*
X128936856Y-99437839D01*
X128857513Y-99556584D01*
X128802861Y-99688525D01*
X128775000Y-99828594D01*
X128775000Y-99971406D01*
X128802861Y-100111475D01*
X128857513Y-100243416D01*
X128936856Y-100362161D01*
X129037839Y-100463144D01*
X129075001Y-100487975D01*
X129075000Y-101468428D01*
X128700000Y-101468428D01*
X128607025Y-101477585D01*
X128517624Y-101504705D01*
X128435231Y-101548745D01*
X128363013Y-101608013D01*
X128303745Y-101680231D01*
X128259705Y-101762624D01*
X128232585Y-101852025D01*
X128223428Y-101945000D01*
X128223428Y-102174532D01*
X125834032Y-99785137D01*
X125882698Y-99745198D01*
X125954402Y-99657826D01*
X126007683Y-99558145D01*
X126040493Y-99449984D01*
X126051572Y-99337500D01*
X126051572Y-98662500D01*
X126040493Y-98550016D01*
X126007683Y-98441855D01*
X125954402Y-98342174D01*
X125882698Y-98254802D01*
X125795326Y-98183098D01*
X125695645Y-98129817D01*
X125587484Y-98097007D01*
X125475000Y-98085928D01*
X124525000Y-98085928D01*
X124412516Y-98097007D01*
X124304355Y-98129817D01*
X124204674Y-98183098D01*
X124117302Y-98254802D01*
X124045598Y-98342174D01*
X123992317Y-98441855D01*
X123959507Y-98550016D01*
X123948428Y-98662500D01*
X116350000Y-98662500D01*
X116350000Y-96587500D01*
X123948428Y-96587500D01*
X123948428Y-97262500D01*
X123959507Y-97374984D01*
X123992317Y-97483145D01*
X124045598Y-97582826D01*
X124117302Y-97670198D01*
X124204674Y-97741902D01*
X124304355Y-97795183D01*
X124412516Y-97827993D01*
X124525000Y-97839072D01*
X125475000Y-97839072D01*
X125587484Y-97827993D01*
X125695645Y-97795183D01*
X125795326Y-97741902D01*
X125882698Y-97670198D01*
X125954402Y-97582826D01*
X126007683Y-97483145D01*
X126040493Y-97374984D01*
X126051572Y-97262500D01*
X126051572Y-96587500D01*
X126040493Y-96475016D01*
X126007683Y-96366855D01*
X125954402Y-96267174D01*
X125882698Y-96179802D01*
X125795326Y-96108098D01*
X125695645Y-96054817D01*
X125587484Y-96022007D01*
X125475000Y-96010928D01*
X125450000Y-96010928D01*
X125450000Y-95571270D01*
X125462161Y-95563144D01*
X125563144Y-95462161D01*
X125642487Y-95343416D01*
X125697139Y-95211475D01*
X125725000Y-95071406D01*
X125725000Y-94928594D01*
X125697139Y-94788525D01*
X125642487Y-94656584D01*
X125563144Y-94537839D01*
X125462161Y-94436856D01*
X125343416Y-94357513D01*
X125211475Y-94302861D01*
X125071406Y-94275000D01*
X124928594Y-94275000D01*
X124788525Y-94302861D01*
X124656584Y-94357513D01*
X124537839Y-94436856D01*
X124436856Y-94537839D01*
X124357513Y-94656584D01*
X124302861Y-94788525D01*
X124275000Y-94928594D01*
X124275000Y-95071406D01*
X124302861Y-95211475D01*
X124357513Y-95343416D01*
X124436856Y-95462161D01*
X124537839Y-95563144D01*
X124550001Y-95571270D01*
X124550000Y-96010928D01*
X124525000Y-96010928D01*
X124412516Y-96022007D01*
X124304355Y-96054817D01*
X124204674Y-96108098D01*
X124117302Y-96179802D01*
X124045598Y-96267174D01*
X123992317Y-96366855D01*
X123959507Y-96475016D01*
X123948428Y-96587500D01*
X116350000Y-96587500D01*
X116350000Y-89350000D01*
X147650001Y-89350000D01*
X147650000Y-118650000D01*
G37*
%TD.AperFunction*%
%TD*%
M02*
