%TF.GenerationSoftware,KiCad,Pcbnew,(5.1.9-0-10_14)*%
%TF.CreationDate,2021-03-11T21:56:35-05:00*%
%TF.ProjectId,getting_to_blinky,67657474-696e-4675-9f74-6f5f626c696e,rev?*%
%TF.SameCoordinates,Original*%
%TF.FileFunction,Copper,L2,Bot*%
%TF.FilePolarity,Positive*%
%FSLAX46Y46*%
G04 Gerber Fmt 4.6, Leading zero omitted, Abs format (unit mm)*
G04 Created by KiCad (PCBNEW (5.1.9-0-10_14)) date 2021-03-11 21:56:35*
%MOMM*%
%LPD*%
G01*
G04 APERTURE LIST*
%TA.AperFunction,SMDPad,CuDef*%
%ADD10R,5.500000X5.500000*%
%TD*%
%TA.AperFunction,SMDPad,CuDef*%
%ADD11R,4.000000X4.000000*%
%TD*%
%TA.AperFunction,ViaPad*%
%ADD12C,0.800000*%
%TD*%
%TA.AperFunction,Conductor*%
%ADD13C,0.250000*%
%TD*%
%TA.AperFunction,Conductor*%
%ADD14C,0.100000*%
%TD*%
G04 APERTURE END LIST*
D10*
%TO.P,BT1,1*%
%TO.N,/VDD*%
X144800000Y-104000000D03*
D11*
%TO.P,BT1,2*%
%TO.N,GND*%
X132000000Y-104000000D03*
D10*
%TO.P,BT1,1*%
%TO.N,/VDD*%
X119200000Y-104000000D03*
%TD*%
D12*
%TO.N,GND*%
X125000000Y-111000000D03*
X125000000Y-95000000D03*
X129500000Y-99900000D03*
%TO.N,/VDD*%
X119000000Y-99000000D03*
X144780000Y-109220000D03*
%TD*%
D13*
%TO.N,/VDD*%
X119200000Y-104000000D02*
X119000000Y-104000000D01*
X119000000Y-104000000D02*
X119000000Y-99000000D01*
X144800000Y-108800000D02*
X145000000Y-109000000D01*
X144800000Y-104000000D02*
X144800000Y-108800000D01*
%TD*%
%TO.N,GND*%
X147650001Y-100940711D02*
X147613711Y-100929703D01*
X147550000Y-100923428D01*
X142050000Y-100923428D01*
X141986289Y-100929703D01*
X141925026Y-100948287D01*
X141868566Y-100978465D01*
X141819079Y-101019079D01*
X141778465Y-101068566D01*
X141748287Y-101125026D01*
X141729703Y-101186289D01*
X141723428Y-101250000D01*
X141723428Y-106750000D01*
X141729703Y-106813711D01*
X141748287Y-106874974D01*
X141778465Y-106931434D01*
X141819079Y-106980921D01*
X141868566Y-107021535D01*
X141925026Y-107051713D01*
X141986289Y-107070297D01*
X142050000Y-107076572D01*
X144350001Y-107076572D01*
X144350001Y-108635366D01*
X144317839Y-108656856D01*
X144216856Y-108757839D01*
X144137513Y-108876584D01*
X144082861Y-109008525D01*
X144055000Y-109148594D01*
X144055000Y-109291406D01*
X144082861Y-109431475D01*
X144137513Y-109563416D01*
X144216856Y-109682161D01*
X144317839Y-109783144D01*
X144436584Y-109862487D01*
X144568525Y-109917139D01*
X144708594Y-109945000D01*
X144851406Y-109945000D01*
X144991475Y-109917139D01*
X145123416Y-109862487D01*
X145242161Y-109783144D01*
X145343144Y-109682161D01*
X145422487Y-109563416D01*
X145477139Y-109431475D01*
X145505000Y-109291406D01*
X145505000Y-109148594D01*
X145477139Y-109008525D01*
X145445491Y-108932120D01*
X145443488Y-108911785D01*
X145417757Y-108826959D01*
X145375971Y-108748784D01*
X145333828Y-108697433D01*
X145250000Y-108613605D01*
X145250000Y-107076572D01*
X147550000Y-107076572D01*
X147613711Y-107070297D01*
X147650000Y-107059289D01*
X147650000Y-118650000D01*
X116350000Y-118650000D01*
X116350000Y-107059289D01*
X116386289Y-107070297D01*
X116450000Y-107076572D01*
X121950000Y-107076572D01*
X122013711Y-107070297D01*
X122074974Y-107051713D01*
X122131434Y-107021535D01*
X122180921Y-106980921D01*
X122221535Y-106931434D01*
X122251713Y-106874974D01*
X122270297Y-106813711D01*
X122276572Y-106750000D01*
X122276572Y-106000000D01*
X129363937Y-106000000D01*
X129376159Y-106124090D01*
X129412354Y-106243411D01*
X129471133Y-106353378D01*
X129550236Y-106449764D01*
X129646622Y-106528867D01*
X129756589Y-106587646D01*
X129875910Y-106623841D01*
X130000000Y-106636063D01*
X131712750Y-106633000D01*
X131871000Y-106474750D01*
X131871000Y-104129000D01*
X132129000Y-104129000D01*
X132129000Y-106474750D01*
X132287250Y-106633000D01*
X134000000Y-106636063D01*
X134124090Y-106623841D01*
X134243411Y-106587646D01*
X134353378Y-106528867D01*
X134449764Y-106449764D01*
X134528867Y-106353378D01*
X134587646Y-106243411D01*
X134623841Y-106124090D01*
X134636063Y-106000000D01*
X134633000Y-104287250D01*
X134474750Y-104129000D01*
X132129000Y-104129000D01*
X131871000Y-104129000D01*
X129525250Y-104129000D01*
X129367000Y-104287250D01*
X129363937Y-106000000D01*
X122276572Y-106000000D01*
X122276572Y-102000000D01*
X129363937Y-102000000D01*
X129367000Y-103712750D01*
X129525250Y-103871000D01*
X131871000Y-103871000D01*
X131871000Y-101525250D01*
X132129000Y-101525250D01*
X132129000Y-103871000D01*
X134474750Y-103871000D01*
X134633000Y-103712750D01*
X134636063Y-102000000D01*
X134623841Y-101875910D01*
X134587646Y-101756589D01*
X134528867Y-101646622D01*
X134449764Y-101550236D01*
X134353378Y-101471133D01*
X134243411Y-101412354D01*
X134124090Y-101376159D01*
X134000000Y-101363937D01*
X132287250Y-101367000D01*
X132129000Y-101525250D01*
X131871000Y-101525250D01*
X131712750Y-101367000D01*
X130000000Y-101363937D01*
X129875910Y-101376159D01*
X129756589Y-101412354D01*
X129646622Y-101471133D01*
X129550236Y-101550236D01*
X129471133Y-101646622D01*
X129412354Y-101756589D01*
X129376159Y-101875910D01*
X129363937Y-102000000D01*
X122276572Y-102000000D01*
X122276572Y-101250000D01*
X122270297Y-101186289D01*
X122251713Y-101125026D01*
X122221535Y-101068566D01*
X122180921Y-101019079D01*
X122131434Y-100978465D01*
X122074974Y-100948287D01*
X122013711Y-100929703D01*
X121950000Y-100923428D01*
X119450000Y-100923428D01*
X119450000Y-99571270D01*
X119462161Y-99563144D01*
X119563144Y-99462161D01*
X119642487Y-99343416D01*
X119697139Y-99211475D01*
X119725000Y-99071406D01*
X119725000Y-98928594D01*
X119697139Y-98788525D01*
X119642487Y-98656584D01*
X119563144Y-98537839D01*
X119462161Y-98436856D01*
X119343416Y-98357513D01*
X119211475Y-98302861D01*
X119071406Y-98275000D01*
X118928594Y-98275000D01*
X118788525Y-98302861D01*
X118656584Y-98357513D01*
X118537839Y-98436856D01*
X118436856Y-98537839D01*
X118357513Y-98656584D01*
X118302861Y-98788525D01*
X118275000Y-98928594D01*
X118275000Y-99071406D01*
X118302861Y-99211475D01*
X118357513Y-99343416D01*
X118436856Y-99462161D01*
X118537839Y-99563144D01*
X118550001Y-99571270D01*
X118550001Y-100923428D01*
X116450000Y-100923428D01*
X116386289Y-100929703D01*
X116350000Y-100940711D01*
X116350000Y-89350000D01*
X147650001Y-89350000D01*
X147650001Y-100940711D01*
%TA.AperFunction,Conductor*%
D14*
G36*
X147650001Y-100940711D02*
G01*
X147613711Y-100929703D01*
X147550000Y-100923428D01*
X142050000Y-100923428D01*
X141986289Y-100929703D01*
X141925026Y-100948287D01*
X141868566Y-100978465D01*
X141819079Y-101019079D01*
X141778465Y-101068566D01*
X141748287Y-101125026D01*
X141729703Y-101186289D01*
X141723428Y-101250000D01*
X141723428Y-106750000D01*
X141729703Y-106813711D01*
X141748287Y-106874974D01*
X141778465Y-106931434D01*
X141819079Y-106980921D01*
X141868566Y-107021535D01*
X141925026Y-107051713D01*
X141986289Y-107070297D01*
X142050000Y-107076572D01*
X144350001Y-107076572D01*
X144350001Y-108635366D01*
X144317839Y-108656856D01*
X144216856Y-108757839D01*
X144137513Y-108876584D01*
X144082861Y-109008525D01*
X144055000Y-109148594D01*
X144055000Y-109291406D01*
X144082861Y-109431475D01*
X144137513Y-109563416D01*
X144216856Y-109682161D01*
X144317839Y-109783144D01*
X144436584Y-109862487D01*
X144568525Y-109917139D01*
X144708594Y-109945000D01*
X144851406Y-109945000D01*
X144991475Y-109917139D01*
X145123416Y-109862487D01*
X145242161Y-109783144D01*
X145343144Y-109682161D01*
X145422487Y-109563416D01*
X145477139Y-109431475D01*
X145505000Y-109291406D01*
X145505000Y-109148594D01*
X145477139Y-109008525D01*
X145445491Y-108932120D01*
X145443488Y-108911785D01*
X145417757Y-108826959D01*
X145375971Y-108748784D01*
X145333828Y-108697433D01*
X145250000Y-108613605D01*
X145250000Y-107076572D01*
X147550000Y-107076572D01*
X147613711Y-107070297D01*
X147650000Y-107059289D01*
X147650000Y-118650000D01*
X116350000Y-118650000D01*
X116350000Y-107059289D01*
X116386289Y-107070297D01*
X116450000Y-107076572D01*
X121950000Y-107076572D01*
X122013711Y-107070297D01*
X122074974Y-107051713D01*
X122131434Y-107021535D01*
X122180921Y-106980921D01*
X122221535Y-106931434D01*
X122251713Y-106874974D01*
X122270297Y-106813711D01*
X122276572Y-106750000D01*
X122276572Y-106000000D01*
X129363937Y-106000000D01*
X129376159Y-106124090D01*
X129412354Y-106243411D01*
X129471133Y-106353378D01*
X129550236Y-106449764D01*
X129646622Y-106528867D01*
X129756589Y-106587646D01*
X129875910Y-106623841D01*
X130000000Y-106636063D01*
X131712750Y-106633000D01*
X131871000Y-106474750D01*
X131871000Y-104129000D01*
X132129000Y-104129000D01*
X132129000Y-106474750D01*
X132287250Y-106633000D01*
X134000000Y-106636063D01*
X134124090Y-106623841D01*
X134243411Y-106587646D01*
X134353378Y-106528867D01*
X134449764Y-106449764D01*
X134528867Y-106353378D01*
X134587646Y-106243411D01*
X134623841Y-106124090D01*
X134636063Y-106000000D01*
X134633000Y-104287250D01*
X134474750Y-104129000D01*
X132129000Y-104129000D01*
X131871000Y-104129000D01*
X129525250Y-104129000D01*
X129367000Y-104287250D01*
X129363937Y-106000000D01*
X122276572Y-106000000D01*
X122276572Y-102000000D01*
X129363937Y-102000000D01*
X129367000Y-103712750D01*
X129525250Y-103871000D01*
X131871000Y-103871000D01*
X131871000Y-101525250D01*
X132129000Y-101525250D01*
X132129000Y-103871000D01*
X134474750Y-103871000D01*
X134633000Y-103712750D01*
X134636063Y-102000000D01*
X134623841Y-101875910D01*
X134587646Y-101756589D01*
X134528867Y-101646622D01*
X134449764Y-101550236D01*
X134353378Y-101471133D01*
X134243411Y-101412354D01*
X134124090Y-101376159D01*
X134000000Y-101363937D01*
X132287250Y-101367000D01*
X132129000Y-101525250D01*
X131871000Y-101525250D01*
X131712750Y-101367000D01*
X130000000Y-101363937D01*
X129875910Y-101376159D01*
X129756589Y-101412354D01*
X129646622Y-101471133D01*
X129550236Y-101550236D01*
X129471133Y-101646622D01*
X129412354Y-101756589D01*
X129376159Y-101875910D01*
X129363937Y-102000000D01*
X122276572Y-102000000D01*
X122276572Y-101250000D01*
X122270297Y-101186289D01*
X122251713Y-101125026D01*
X122221535Y-101068566D01*
X122180921Y-101019079D01*
X122131434Y-100978465D01*
X122074974Y-100948287D01*
X122013711Y-100929703D01*
X121950000Y-100923428D01*
X119450000Y-100923428D01*
X119450000Y-99571270D01*
X119462161Y-99563144D01*
X119563144Y-99462161D01*
X119642487Y-99343416D01*
X119697139Y-99211475D01*
X119725000Y-99071406D01*
X119725000Y-98928594D01*
X119697139Y-98788525D01*
X119642487Y-98656584D01*
X119563144Y-98537839D01*
X119462161Y-98436856D01*
X119343416Y-98357513D01*
X119211475Y-98302861D01*
X119071406Y-98275000D01*
X118928594Y-98275000D01*
X118788525Y-98302861D01*
X118656584Y-98357513D01*
X118537839Y-98436856D01*
X118436856Y-98537839D01*
X118357513Y-98656584D01*
X118302861Y-98788525D01*
X118275000Y-98928594D01*
X118275000Y-99071406D01*
X118302861Y-99211475D01*
X118357513Y-99343416D01*
X118436856Y-99462161D01*
X118537839Y-99563144D01*
X118550001Y-99571270D01*
X118550001Y-100923428D01*
X116450000Y-100923428D01*
X116386289Y-100929703D01*
X116350000Y-100940711D01*
X116350000Y-89350000D01*
X147650001Y-89350000D01*
X147650001Y-100940711D01*
G37*
%TD.AperFunction*%
%TD*%
M02*
